<?xml version="1.0" encoding="UTF-8"?>
<svg version="1.0" viewBox="0 0 800 378.88" xmlns="http://www.w3.org/2000/svg">
 <g transform="matrix(4.8533 0 0 4.8533 -5787.9 -5100.7)">
  <g transform="matrix(.51225 0 0 .51225 953.85 957.18)">
   <path d="m507.94 275.38 12.492 51.19s11.493-0.51862 32.813-2.2445c21.32-1.7259 44.161-2.6322 55.813-2.6322h35.517c11.286 0 34.665 0.90632 55.813 2.6322 21.148 1.7258 33.148 2.2445 33.148 2.2445l12.2-49.624 0.57474-0.80637-13.069 0.45875-3.4766-1.4428-4.1718-10.46-5.2148 5.7712-8.6913 2.1642-8.6913-4.6891-3.1289-11.542-9.3867 10.46-9.3866 1.0821-9.3866-4.3284-3.4766-6.8533-4.8671 3.9677-8.3437 5.0498-15.992-0.3607-8.6913-8.2961-1.0429-11.182h-3.8242l-1.7382 9.3782-4.8672 7.214-8.6913 3.607h-8.3437l-9.0389-3.2463-7.3007-5.0498-5.9101 7.9354-8.6912 2.5249-9.3866-3.2463-6.6054-5.7712-5.2148 7.9354-5.9101 4.6891h-7.3007l-8.3437-6.1319-4.5194 10.1-5.9101 1.4428-9.7589-1.94z" fill="#d0b54e" fill-rule="evenodd"/>
   <path d="m507.44 276.55 12.995 50.015s11.493-0.51862 32.813-2.2445c21.32-1.7259 44.161-2.6322 55.813-2.6322h35.517c11.286 0 34.665 0.90632 55.813 2.6322 21.148 1.7258 33.148 2.2445 33.148 2.2445l12.659-50.015-7.6869 0.40463-5.2664-0.36071-3.4766-1.4428-4.1718-10.46-5.2148 5.7712-8.6913 2.1642-8.6913-4.6891-3.1289-11.542-9.3867 10.46-9.3866 1.0821-9.3866-4.3284-3.4766-6.8533-4.8671 3.9677-8.3437 5.0498-15.992-0.3607-8.6913-8.2961-1.0429-11.182h-3.8242l-1.7382 9.3782-4.8672 7.214-8.6913 3.607h-8.3437l-9.0389-3.2463-7.3007-5.0498-5.9101 7.9354-8.6912 2.5249-9.3866-3.2463-6.6054-5.7712-5.2148 7.9354-5.9101 4.6891h-7.3007l-8.3437-6.1319-4.5194 10.1-5.9101 1.4428-10.261-0.76532z" fill="none" stroke="#540" stroke-width="1.3437"/>
   <path d="m626.91 253.81c5e-3 2.8427 0.10382-0.19467-0.98794 2.4089-0.89666 2.1382-2.3026 5.0553-4.4238 7.0082-2.6744 2.4621-4.2472 3.6694-7.8329 4.8366-2.4122 0.78525-6.3859 1.5823-9.3709 1.1845-2.2033-0.2936-5.6882-0.33713-8.6257-1.6122-2.3951-1.0398-5.3214-2.8535-7.3254-4.8366-0.53789-0.5323-0.98383-1.1479-1.4112-1.7767-0.24086 0.59594-0.47786 1.1938-0.85622 1.7603-2.0433 3.0591-5.3611 5.2963-8.3086 6.6298-2.5646 1.1603-5.768 1.6744-8.594 1.2667-3.6515-0.5268-7.7928-2.3456-10.639-4.9024-1.1988-1.0768-2.1724-2.5149-3.0761-3.9812-0.29074 1.3672-0.64145 2.7166-1.1575 3.866-1.2929 2.88-3.3232 5.59-6.2156 7.2549-2.8754 1.6552-6.4776 2.0174-9.3868 1.7438-2.5501-0.23983-5.6579-1.0337-7.9756-3.1257-0.53789-0.48555-0.96105-1.0422-1.4112-1.5793-0.89083 3.1631-2.4984 6.8606-5.946 8.752-3.2095 1.7609-7.5638 2.5602-11.289 1.2503-4.465-1.5699-7.2355-5.2293-9.2276-8.5535-0.89889-1.4999-1.7199-4.0122-2.1253-5.578-0.40536-1.5657-0.6659-2.879-0.6659-2.879l4.725-1.0035s0.23954 1.1806 0.60257 2.5828c0.36299 1.4022 1.3563 3.8984 1.5544 4.229 1.6679 2.7831 4.5909 5.7259 6.6908 6.4643 1.6393 0.57641 5.6858 0.0653 7.484-0.92127 1.523-0.83558 2.9835-3.5085 3.6627-6.0376 0.6138-2.2854 0.98308-5.0669 0.98308-5.0669l1.094-8.7684 3.4883 8.0775c5e-5 0 1.6828 3.5773 3.5517 5.2644 0.86784 0.78333 3.5776 1.7691 5.2325 1.9248 1.939 0.18235 5.2307-0.35644 6.6119-1.1516 1.7563-1.011 3.2501-2.8812 4.2018-5.0011 0.3674-0.81837 0.96282-3.3584 1.3161-5.4618 0.35325-2.1034 0.52241-2.6939 0.55499-3.866 0.0375-1.3572-0.39293-4.5076-0.39293-4.5076l3.2464-0.64893s1.8912 4.758 2.2363 5.4362 0.8376 1.6104 1.3953 2.5993c1.1154 1.9777 2.677 4.2591 3.3932 4.9024 1.8115 1.6272 5.6832 3.3808 8.1342 3.7344 1.5552 0.22436 4.5193-0.21417 6.0094-0.88836 2.2167-1.0029 5.1132-3.157 6.279-4.9024 0.13562-0.20307 0.77012-1.8059 1.1258-3.1257s1.7007-10.935 1.7007-10.935l4.6735 10.227c0.61537 1.3466 1.7799 2.7979 2.0612 3.0764 1.2359 1.223 4.1318 3.0799 5.8668 3.8331 1.5038 0.65276 4.8015 0.92407 7.373 1.2667 0.94994 0.12659 5.9363-0.54 7.3096-0.98706 3.2052-1.0434 3.4237-1.3612 6.0729-3.8002 0.87489-0.80545 2.5015-3.5918 3.2029-5.2644 0.33762-0.8052 0.6865-3.9652 0.68178-6.5804-5e-3 -2.6152-0.17439-4.8366-0.17439-4.8366l4.9378-0.41127 4.9378 0.41127s-0.16972 2.2214-0.17439 4.8366c-5e-3 2.6152 0.34416 5.7752 0.68178 6.5804 0.70142 1.6726 2.328 4.4589 3.2029 5.2644 2.6492 2.439 2.8676 2.7568 6.0729 3.8002 1.3733 0.44706 6.3596 1.1136 7.3096 0.98706 2.5715-0.34266 5.8693-0.61397 7.373-1.2667 1.735-0.75317 4.6309-2.6101 5.8668-3.8331 0.2813-0.27844 1.4459-1.7298 2.0612-3.0764l4.6735-10.227s1.345 9.6148 1.7007 10.935c0.35563 1.3198 0.99012 2.9226 1.1258 3.1257 1.1658 1.7454 4.0623 3.8995 6.279 4.9024 1.4901 0.67419 4.4542 1.1127 6.0094 0.88836 2.4509-0.35358 6.3226-2.1072 8.1342-3.7344 0.71619-0.64331 2.2777-2.9247 3.3932-4.9024 0.55772-0.98885 1.0502-1.9211 1.3953-2.5993 0.34507-0.67821 2.2363-5.4362 2.2363-5.4362l3.2463 0.64893s-0.43067 3.1504-0.39292 4.5076c0.0325 1.1721 0.20174 1.7626 0.55498 3.866 0.35325 2.1034 0.94867 4.6434 1.3161 5.4618 0.95171 2.12 2.4455 3.9901 4.2018 5.0011 1.3813 0.79514 4.6729 1.3339 6.6119 1.1516 1.6549-0.15564 4.3647-1.1414 5.2325-1.9248 1.869-1.6871 3.5517-5.2644 3.5518-5.2644l3.4883-8.0775 1.094 8.7684s0.36928 2.7816 0.98307 5.0669c0.6792 2.529 2.1397 5.202 3.6627 6.0376 1.7982 0.98655 5.8447 1.4977 7.484 0.92127 2.0999-0.73832 5.0229-3.6811 6.6908-6.4643 0.19804-0.33052 1.1914-2.8268 1.5544-4.229 0.36304-1.4022 0.60258-2.5828 0.60258-2.5828l4.725 1.0035s-0.26055 1.3132-0.6659 2.879c-0.40541 1.5657-1.2264 4.0781-2.1253 5.578-1.9922 3.3242-4.7627 6.9837-9.2276 8.5535-3.7256 1.3099-8.08 0.51058-11.289-1.2503-3.4476-1.8914-5.0552-5.5889-5.946-8.752-0.4501 0.53716-0.87327 1.0938-1.4112 1.5793-2.3177 2.092-5.4256 2.8859-7.9756 3.1257-2.9091 0.27358-6.5113-0.0886-9.3868-1.7438-2.8923-1.665-4.9226-4.3749-6.2156-7.2549-0.51602-1.1495-0.86673-2.4988-1.1575-3.866-0.90372 1.4663-1.8773 2.9044-3.0761 3.9812-2.8465 2.5568-6.9878 4.3756-10.639 4.9024-2.8259 0.40768-6.0294-0.10645-8.594-1.2667-2.9474-1.3335-6.2653-3.5707-8.3085-6.6298-0.37836-0.5665-0.61537-1.1643-0.85623-1.7603-0.42737 0.6288-0.87332 1.2444-1.4112 1.7767-2.004 1.9831-4.9303 3.7969-7.3254 4.8366-2.9374 1.2751-6.4224 1.3186-8.6257 1.6122-2.985 0.39779-6.9588-0.39923-9.3709-1.1845-3.5856-1.1673-5.1585-2.3745-7.8329-4.8366-2.1212-1.9529-3.5271-4.87-4.4238-7.0082-1.0918-2.6036-1.06 0.43375-1.0549-2.4089z" fill="#d0b54e" fill-rule="evenodd"/>
   <path d="m625.93 256.21c-0.89666 2.1382-2.3026 5.0553-4.4238 7.0082-2.6744 2.4621-4.2472 3.6694-7.8329 4.8366-2.4122 0.78525-6.3859 1.5823-9.3709 1.1845-2.2033-0.2936-5.6882-0.33713-8.6257-1.6122-2.3951-1.0398-5.3214-2.8535-7.3254-4.8366-0.53789-0.5323-0.98383-1.1479-1.4112-1.7767-0.24086 0.59594-0.47786 1.1938-0.85622 1.7603-2.0433 3.0591-5.3611 5.2963-8.3086 6.6298-2.5646 1.1603-5.768 1.6744-8.594 1.2667-3.6515-0.5268-7.7928-2.3456-10.639-4.9024-1.1988-1.0768-2.1724-2.5149-3.0761-3.9812-0.29074 1.3672-0.64145 2.7166-1.1575 3.866-1.2929 2.88-3.3232 5.59-6.2156 7.2549-2.8754 1.6552-6.4776 2.0174-9.3868 1.7438-2.5501-0.23983-5.6579-1.0337-7.9756-3.1257-0.53789-0.48555-0.96105-1.0422-1.4112-1.5793-0.89083 3.1631-2.4984 6.8606-5.946 8.752-3.2095 1.7609-7.5638 2.5602-11.289 1.2503-4.465-1.5699-7.2355-5.2293-9.2276-8.5535-0.89889-1.4999-1.7199-4.0122-2.1253-5.578-0.40536-1.5657-0.6659-2.879-0.6659-2.879l4.725-1.0035s0.23954 1.1806 0.60257 2.5828c0.36299 1.4022 1.3563 3.8984 1.5544 4.229 1.6679 2.7831 4.5909 5.7259 6.6908 6.4643 1.6393 0.57641 5.6858 0.0653 7.484-0.92127 1.523-0.83558 2.9835-3.5085 3.6627-6.0376 0.6138-2.2854 0.98308-5.0669 0.98308-5.0669l1.094-8.7684 3.4883 8.0775c5e-5 0 1.6828 3.5773 3.5517 5.2644 0.86784 0.78333 3.5776 1.7691 5.2325 1.9248 1.939 0.18235 5.2307-0.35644 6.6119-1.1516 1.7563-1.011 3.2501-2.8812 4.2018-5.0011 0.3674-0.81837 0.96282-3.3584 1.3161-5.4618 0.35325-2.1034 0.52241-2.6939 0.55499-3.866 0.0375-1.3572-0.39293-4.5076-0.39293-4.5076l3.2464-0.64893s1.8912 4.758 2.2363 5.4362 0.8376 1.6104 1.3953 2.5993c1.1154 1.9777 2.677 4.2591 3.3932 4.9024 1.8115 1.6272 5.6832 3.3808 8.1342 3.7344 1.5552 0.22436 4.5193-0.21417 6.0094-0.88836 2.2167-1.0029 5.1132-3.157 6.279-4.9024 0.13562-0.20307 0.77012-1.8059 1.1258-3.1257s1.7007-10.935 1.7007-10.935l4.6735 10.227c0.61537 1.3466 1.7799 2.7979 2.0612 3.0764 1.2359 1.223 4.1318 3.0799 5.8668 3.8331 1.5038 0.65276 4.8015 0.92407 7.373 1.2667 0.94994 0.12659 5.9363-0.54 7.3096-0.98706 3.2052-1.0434 3.4237-1.3612 6.0729-3.8002 0.87489-0.80545 2.5015-3.5918 3.2029-5.2644 0.33762-0.8052 0.6865-3.9652 0.68178-6.5804-5e-3 -2.6152-0.17439-4.8366-0.17439-4.8366l4.9378-0.41127 4.9378 0.41127s-0.16972 2.2214-0.17439 4.8366c-5e-3 2.6152 0.34416 5.7752 0.68178 6.5804 0.70142 1.6726 2.328 4.4589 3.2029 5.2644 2.6492 2.439 2.8676 2.7568 6.0729 3.8002 1.3733 0.44706 6.3596 1.1136 7.3096 0.98706 2.5715-0.34266 5.8693-0.61397 7.373-1.2667 1.735-0.75317 4.6309-2.6101 5.8668-3.8331 0.2813-0.27844 1.4459-1.7298 2.0612-3.0764l4.6735-10.227s1.345 9.6148 1.7007 10.935c0.35563 1.3198 0.99012 2.9226 1.1258 3.1257 1.1658 1.7454 4.0623 3.8995 6.279 4.9024 1.4901 0.67419 4.4542 1.1127 6.0094 0.88836 2.4509-0.35358 6.3226-2.1072 8.1342-3.7344 0.71619-0.64331 2.2777-2.9247 3.3932-4.9024 0.55772-0.98885 1.0502-1.9211 1.3953-2.5993 0.34507-0.67821 2.2363-5.4362 2.2363-5.4362l3.2463 0.64893s-0.43067 3.1504-0.39292 4.5076c0.0325 1.1721 0.20174 1.7626 0.55498 3.866 0.35325 2.1034 0.94867 4.6434 1.3161 5.4618 0.95171 2.12 2.4455 3.9901 4.2018 5.0011 1.3813 0.79514 4.6729 1.3339 6.6119 1.1516 1.6549-0.15564 4.3647-1.1414 5.2325-1.9248 1.869-1.6871 3.5517-5.2644 3.5518-5.2644l3.4883-8.0775 1.094 8.7684s0.36928 2.7816 0.98307 5.0669c0.6792 2.529 2.1397 5.202 3.6627 6.0376 1.7982 0.98655 5.8447 1.4977 7.484 0.92127 2.0999-0.73832 5.0229-3.6811 6.6908-6.4643 0.19804-0.33052 1.1914-2.8268 1.5544-4.229 0.36304-1.4022 0.60258-2.5828 0.60258-2.5828l4.725 1.0035s-0.26055 1.3132-0.6659 2.879c-0.40541 1.5657-1.2264 4.0781-2.1253 5.578-1.9922 3.3242-4.7627 6.9837-9.2276 8.5535-3.7256 1.3099-8.08 0.51058-11.289-1.2503-3.4476-1.8914-5.0552-5.5889-5.946-8.752-0.4501 0.53716-0.87327 1.0938-1.4112 1.5793-2.3177 2.092-5.4256 2.8859-7.9756 3.1257-2.9091 0.27358-6.5113-0.0886-9.3868-1.7438-2.8923-1.665-4.9226-4.3749-6.2156-7.2549-0.51602-1.1495-0.86673-2.4988-1.1575-3.866-0.90372 1.4663-1.8773 2.9044-3.0761 3.9812-2.8465 2.5568-6.9878 4.3756-10.639 4.9024-2.8259 0.40768-6.0294-0.10645-8.594-1.2667-2.9474-1.3335-6.2653-3.5707-8.3085-6.6298-0.37836-0.5665-0.61537-1.1643-0.85623-1.7603-0.42737 0.6288-0.87332 1.2444-1.4112 1.7767-2.004 1.9831-4.9303 3.7969-7.3254 4.8366-2.9374 1.2751-6.4224 1.3186-8.6257 1.6122-2.985 0.39779-6.9588-0.39923-9.3709-1.1845-3.5856-1.1673-5.1585-2.3745-7.8329-4.8366-2.1212-1.9529-3.5271-4.87-4.4238-7.0082-0.5459-1.3018-0.71461-1.48-1.0663-2.6027-0.12157 0.44744-0.209 0.74991-0.28155 0.97579-0.20535 0.63923-0.2916 0.66503-0.69498 1.6269z" fill="none" stroke="#540" stroke-width="1.3437"/>
   <path d="m608.48 270.6c-6.6067 0-31.814 0.67429-56.067 3.8167-24.253 3.1424-46.775 8.6862-46.775 8.6862s-4.4327 5.1098-3.9212 7.6561c0.54705 2.7232 6.9972 5.768 6.9972 5.768s22.001-5.398 45.348-8.423 48.778-3.7509 54.418-3.7509c1.9595 2e-5 35.403 0 37.357 0 5.432 1e-5 30.408 0.72418 53.815 3.7509 23.407 3.0267 46.014 8.423 46.014 8.423s5.902-2.7995 6.4947-5.296c0.6161-2.5949-3.5138-8.1281-3.5138-8.1281s-23.057-5.5455-47.346-8.6862-49.034-3.8166-55.464-3.8167c-1.9535 0-35.398 2e-5 -37.357 0z" fill="#d0b54e" fill-rule="evenodd"/>
   <path d="m608.48 270.6c-6.6067 0-31.814 0.67429-56.067 3.8167-24.253 3.1424-46.775 8.6862-46.775 8.6862s-4.4327 5.1098-3.9212 7.6561c0.54705 2.7232 6.9972 5.768 6.9972 5.768s22.001-5.398 45.348-8.423 48.778-3.7509 54.418-3.7509c1.9595 2e-5 35.403 0 37.357 0 5.432 1e-5 30.408 0.72418 53.815 3.7509 23.407 3.0267 46.014 8.423 46.014 8.423s5.902-2.7995 6.4947-5.296c0.6161-2.5949-3.5138-8.1281-3.5138-8.1281s-23.057-5.5455-47.346-8.6862-49.034-3.8166-55.464-3.8167c-1.9535 0-35.398 2e-5 -37.357 0z" fill="none" stroke="#540" stroke-width="1.3437"/>
   <path d="m609.68 313.7c-11.795 0-34.283 0.87143-55.464 2.5006-21.377 1.6442-40.591 5.0011-40.591 5.0011s-4.4859 5.9095-3.8319 8.6968c0.54262 2.3125 6.02 4.8918 6.02 4.8918s18.756-3.2499 39.386-4.8366c20.826-1.6018 43.318-2.4677 54.481-2.4677 1.8355-1e-5 33.179 0 35.01 0 10.793-1e-5 33.838 0.86698 54.481 2.4677 20.463 1.5866 39.386 4.8366 39.386 4.8366s5.1706-3.4774 5.5796-5.9263c0.41628-2.4923-3.3915-7.6623-3.3915-7.6623s-19.386-3.3569-40.591-5.0011c-21.025-1.6302-44.02-2.5006-55.464-2.5006-1.831 0-33.173-1e-5 -35.01 0z" fill="#d0b54e" fill-rule="evenodd"/>
   <path d="m609.68 313.7c-11.795 0-34.283 0.87143-55.464 2.5006-21.377 1.6442-40.591 5.0011-40.591 5.0011s-4.4859 5.9095-3.8319 8.6968c0.54262 2.3125 6.02 4.8918 6.02 4.8918s18.756-3.2499 39.386-4.8366c20.826-1.6018 43.318-2.4677 54.481-2.4677 1.8355-1e-5 33.179 0 35.01 0 10.793-1e-5 33.838 0.86698 54.481 2.4677 20.463 1.5866 39.386 4.8366 39.386 4.8366s5.1706-3.4774 5.5796-5.9263c0.41628-2.4923-3.3915-7.6623-3.3915-7.6623s-19.386-3.3569-40.591-5.0011c-21.025-1.6302-44.02-2.5006-55.464-2.5006-1.831 0-33.173-1e-5 -35.01 0z" fill="none" stroke="#540" stroke-width="1.3437"/>
   <rect x="617.51" y="252.06" width="19.838" height="5.3032" ry="2.6516" fill="#d0b54e" fill-rule="evenodd" stroke="#540" stroke-width="1.3"/>
   <path d="m625.62 183.81s1.8656-0.12736 2.6505 0c2.4819 0.40277 5.9531 1.1242 7.9514 2.6504 2.2783 1.7402 5.3009 7.9514 5.3009 7.9514s5.7475-0.91286 7.9514 0c1.0388 0.43032 2.22 1.6116 2.6505 2.6504 0.60857 1.4692 0.55166 3.8094 0 5.3009-2.5434 6.8754-15.903 18.553-15.903 18.553s3.8002 0.5264 5.3009 0c4.8043-1.6853 8.4479-8.9165 13.252-10.602 1.5006-0.5264 4.1764-1.1245 5.3009 0 1.1244 1.1245 0.36533 3.7532 0 5.3009-0.40856 1.7304-0.36542 3.7532 0 5.3009 0.40847 1.7304 2.2419 3.5705 2.6505 5.3009 0.73065 3.0955 0.73065 7.5064 0 10.602-0.81703 3.4608-4.484 7.141-5.3009 10.602-0.18267 0.77387-0.12741 1.8656 0 2.6504 0.40268 2.482 4.1207 5.9116 2.6504 7.9514-1.3948 1.9352-5.6298 0.54805-7.9514 0-1.7304-0.40849-3.8033-1.6922-5.3009-2.6505-2.5135-1.6082-6.5622-7.5618-9.5416-10.072-0.68981-0.58104-2.0868-0.44701-3.7106-0.53009-1.6467-0.0843-4.0906-1.426-6.5432-1.427-2.508-9.1e-4 -5.0253 1.3408-6.7091 1.427-1.6239 0.0831-3.0209-0.051-3.7106 0.53009-2.9794 2.5099-7.0282 8.4635-9.5416 10.072-1.4977 0.95825-3.5705 2.242-5.3009 2.6505-2.3217 0.54805-6.5566 1.9352-7.9514 0-1.4702-2.0398 2.2477-5.4694 2.6504-7.9514 0.12731-0.78486 0.18266-1.8766 0-2.6504-0.81703-3.4608-4.484-7.141-5.3009-10.602-0.73074-3.0954-0.73074-7.5064 0-10.602 0.40847-1.7304 2.2419-3.5705 2.6505-5.3009 0.36532-1.5477 0.40846-3.5705 0-5.3009-0.36542-1.5477-1.1245-4.1764 0-5.3009 1.1244-1.1245 3.8002-0.5264 5.3009 0 4.8043 1.6853 8.4478 8.9165 13.252 10.602 1.5006 0.5264 5.3009 0 5.3009 0s-13.359-11.678-15.903-18.553c-0.55175-1.4915-0.60866-3.8317 0-5.3009 0.43031-1.0389 1.6116-2.2201 2.6504-2.6504 2.2038-0.91286 7.9514 0 7.9514 0s3.0226-6.2112 5.3009-7.9514c1.9982-1.5262 5.4693-2.2477 7.9514-2.6504z" fill="#d0b54e" fill-rule="evenodd"/>
   <path d="m625.62 183.81s1.8656-0.12736 2.6505 0c2.4819 0.40277 5.9531 1.1242 7.9514 2.6504 2.2783 1.7402 5.3009 7.9514 5.3009 7.9514s5.7475-0.91286 7.9514 0c1.0388 0.43032 2.22 1.6116 2.6505 2.6504 0.60857 1.4692 0.55166 3.8094 0 5.3009-2.5434 6.8754-15.903 18.553-15.903 18.553s3.8002 0.5264 5.3009 0c4.8043-1.6853 8.4479-8.9165 13.252-10.602 1.5006-0.5264 4.1764-1.1245 5.3009 0 1.1244 1.1245 0.36533 3.7532 0 5.3009-0.40856 1.7304-0.36542 3.7532 0 5.3009 0.40847 1.7304 2.2419 3.5705 2.6505 5.3009 0.73065 3.0955 0.73065 7.5064 0 10.602-0.81703 3.4608-4.484 7.141-5.3009 10.602-0.18267 0.77387-0.12741 1.8656 0 2.6504 0.40268 2.482 4.1207 5.9116 2.6504 7.9514-1.3948 1.9352-5.6298 0.54805-7.9514 0-1.7304-0.40849-3.8033-1.6922-5.3009-2.6505-2.5135-1.6082-6.5622-7.5618-9.5416-10.072-0.68981-0.58104-2.0868-0.44701-3.7106-0.53009-1.6467-0.0843-4.0906-1.426-6.5432-1.427-2.508-9.1e-4 -5.0253 1.3408-6.7091 1.427-1.6239 0.0831-3.0209-0.051-3.7106 0.53009-2.9794 2.5099-7.0282 8.4635-9.5416 10.072-1.4977 0.95825-3.5705 2.242-5.3009 2.6505-2.3217 0.54805-6.5566 1.9352-7.9514 0-1.4702-2.0398 2.2477-5.4694 2.6504-7.9514 0.12731-0.78486 0.18266-1.8766 0-2.6504-0.81703-3.4608-4.484-7.141-5.3009-10.602-0.73074-3.0954-0.73074-7.5064 0-10.602 0.40847-1.7304 2.2419-3.5705 2.6505-5.3009 0.36532-1.5477 0.40846-3.5705 0-5.3009-0.36542-1.5477-1.1245-4.1764 0-5.3009 1.1244-1.1245 3.8002-0.5264 5.3009 0 4.8043 1.6853 8.4478 8.9165 13.252 10.602 1.5006 0.5264 5.3009 0 5.3009 0s-13.359-11.678-15.903-18.553c-0.55175-1.4915-0.60866-3.8317 0-5.3009 0.43031-1.0389 1.6116-2.2201 2.6504-2.6504 2.2038-0.91286 7.9514 0 7.9514 0s3.0226-6.2112 5.3009-7.9514c1.9982-1.5262 5.4693-2.2477 7.9514-2.6504z" fill="none" stroke="#5a5013" stroke-width="1.3"/>
   <g transform="matrix(.91791 0 0 .91791 -607.28 6.9212)" stroke-width="1.659">
    <path transform="matrix(.84274 0 0 .86483 -921.76 -434.33)" d="m2689.7 770.34c-7.9995 0-14.5 6.6708-14.5 14.688s6.5005 14.688 14.5 14.688 14.531-6.6565 14.531-14.688-6.5318-14.688-14.531-14.688z" fill="#d0b54e" stroke="#5b4f0f"/>
    <g transform="matrix(.84274 0 0 .86483 -921.76 -432.55)">
     <path transform="translate(0 -2.0633)" d="m2700.2 785.03a10.489 10.66 0 1 1 -20.977 0 10.489 10.66 0 1 1 20.977 0z" fill="#d0b54e" fill-rule="evenodd"/>
     <path transform="translate(0 -2.0633)" d="m2700.2 785.03a10.489 10.66 0 1 1 -20.977 0 10.489 10.66 0 1 1 20.977 0z" fill="none" stroke="#5a5013" stroke-width="1.659"/>
    </g>
   </g>
   <rect transform="matrix(.91584 -.40154 .33256 .94308 0 0)" x="381.34" y="454.71" width="16.487" height="4.4728" ry="2.2364" fill="#d0b54e" fill-rule="evenodd" stroke="#540" stroke-width="1.3018"/>
   <path d="m499.9 266.26s1.3846-1.7598 2.2243-2.1597c0.77542-0.36932 2.843-0.33796 2.843-0.33796s-0.43886-2.0189 0.29875-2.9731c0.48772-0.62799 1.6666-0.51186 2.4452-0.35114 2.0956 0.4325 3.2244 2.5914 5.9851 3.3641 2.2972 0.64294 5.3937 2.1998 6.2187-0.0383 0.75733-2.0541-0.46554-3.7411-2.2196-5.5426-0.7845-0.80566-2.1056-2.438-2.3494-3.5358-0.24374-1.0978-0.13144-2.197 0.0635-3.3044 0.41355-2.3493-1.6211-7.5976-2.9009-9.6105-2.1848-3.4352-8.355-6.1283-8.355-6.1283s-1.8262-1.4371-2.4715-2.358c-0.91256-1.3024-0.23643-3.8725-1.149-5.1749-0.64527-0.92093-1.7449-1.6692-2.8574-1.5052-1.4083 0.20751-2.2075 1.5976-2.7118 2.7418-0.4183 0.94914-0.6487 2.6035-0.72517 3.6379-0.21873 2.9579 1.4809 7.0085 0.85625 9.908-0.23687 1.0993-1.4647 3.0402-1.4647 3.0402s-1.3943-0.72694-1.9436-1.7081c-2.3508-4.1989-0.83365-11.551-1.489-16.343-0.32325-2.3634-1.461-6.3174-3.1246-8.0266-1.2404-1.2739-4.3889-1.357-4.3889-1.357s-2.0681 0.20452-3.8131 1.4488c-1.5989 1.1402-2.8875 3.3293-2.8875 3.3293s-3.3152-0.2433-4.6061 0.25559c-1.6585 0.64094-4.0157 2.0574-4.6004 3.7364-0.26156 0.75094 0.57449 2.5874 0.57449 2.5874s6.1766-2.4982 8.7454-1.75c2.7525 0.80167 5.2487 4.2686 6.8984 6.6133 1.1319 1.6087 2.7507 5.3033 3.3215 7.1856 0.66043 2.1779 0.54439 4.756 1.3378 6.8891 1.9525 5.2491 5.2366 11.53 8.9368 15.373 0.81482 0.84606 3.3083 2.0941 3.3083 2.0941z" fill="#e2ca73" fill-rule="evenodd"/>
   <path d="m499.9 266.26s1.3846-1.7598 2.2243-2.1597c0.77542-0.36932 2.843-0.33796 2.843-0.33796s-0.43886-2.0189 0.29875-2.9731c0.48772-0.62799 1.6666-0.51186 2.4452-0.35114 2.0956 0.4325 3.2244 2.5914 5.9851 3.3641 2.2972 0.64294 5.3937 2.1998 6.2187-0.0383 0.75733-2.0541-0.46554-3.7411-2.2196-5.5426-0.7845-0.80566-2.1056-2.438-2.3494-3.5358-0.24374-1.0978-0.13144-2.197 0.0635-3.3044 0.41355-2.3493-1.6211-7.5976-2.9009-9.6105-2.1848-3.4352-8.355-6.1283-8.355-6.1283s-1.8262-1.4371-2.4715-2.358c-0.91256-1.3024-0.23643-3.8725-1.149-5.1749-0.64527-0.92093-1.7449-1.6692-2.8574-1.5052-1.4083 0.20751-2.2075 1.5976-2.7118 2.7418-0.4183 0.94914-0.6487 2.6035-0.72517 3.6379-0.21873 2.9579 1.4809 7.0085 0.85625 9.908-0.23687 1.0993-1.4647 3.0402-1.4647 3.0402s-1.3943-0.72694-1.9436-1.7081c-2.3508-4.1989-0.83365-11.551-1.489-16.343-0.32325-2.3634-1.461-6.3174-3.1246-8.0266-1.2404-1.2739-4.3889-1.357-4.3889-1.357s-2.0681 0.20452-3.8131 1.4488c-1.5989 1.1402-2.8875 3.3293-2.8875 3.3293s-3.3152-0.2433-4.6061 0.25559c-1.6585 0.64094-4.0157 2.0574-4.6004 3.7364-0.26156 0.75094 0.57449 2.5874 0.57449 2.5874s6.1766-2.4982 8.7454-1.75c2.7525 0.80167 5.2487 4.2686 6.8984 6.6133 1.1319 1.6087 2.7507 5.3033 3.3215 7.1856 0.66043 2.1779 0.54439 4.756 1.3378 6.8891 1.9525 5.2491 5.2366 11.53 8.9368 15.373 0.81482 0.84606 3.3083 2.0941 3.3083 2.0941z" fill="#d0b54e" stroke="#584b13" stroke-width="1.3"/>
   <path d="m491.64 246.52c-2.5302 0-4.8613 0.90842-6.7148 2.4216-2.0344 2.2577 6.1536 21.829 12.439 18.608 3.1306-2.0126 5.226-5.6125 5.226-9.6678 0-6.2157-4.9228-11.362-10.951-11.362z" fill="#d0b54e" stroke="#5b4f0f" stroke-width="1.3"/>
   <g transform="matrix(.77355 0 0 .79383 -1589.4 -363.32)" fill="#d0b54e" stroke-width="1.659">
    <path transform="translate(0 -2.0633)" d="m2700.2 785.03a10.489 10.66 0 1 1 -20.977 0 10.489 10.66 0 1 1 20.977 0z" fill-rule="evenodd"/>
    <path transform="translate(0 -2.0633)" d="m2700.2 785.03a10.489 10.66 0 1 1 -20.977 0 10.489 10.66 0 1 1 20.977 0z" stroke="#5b4f0f" stroke-width="1.659"/>
   </g>
   <rect transform="matrix(-.91584 -.40154 -.33256 .94308 0 0)" x="-804.44" y="-50.17" width="16.487" height="4.4728" ry="2.2364" fill="#d0b54e" fill-rule="evenodd" stroke="#540" stroke-width="1.3018"/>
   <path d="m754 266.26s-1.3846-1.7598-2.2243-2.1597c-0.77542-0.36932-2.843-0.33796-2.843-0.33796s0.43886-2.0189-0.29875-2.9731c-0.48772-0.62799-1.6666-0.51186-2.4452-0.35114-2.0956 0.4325-3.2244 2.5914-5.9851 3.3641-2.2972 0.64294-5.3937 2.1998-6.2187-0.0383-0.75733-2.0541 0.46554-3.7411 2.2196-5.5426 0.7845-0.80566 2.1056-2.438 2.3494-3.5358 0.24374-1.0978 0.13144-2.197-0.0635-3.3044-0.41355-2.3493 1.6211-7.5976 2.9009-9.6105 2.1848-3.4352 8.355-6.1283 8.355-6.1283s1.8262-1.4371 2.4715-2.358c0.91256-1.3024 0.23643-3.8725 1.149-5.1749 0.64527-0.92093 1.7449-1.6692 2.8574-1.5052 1.4083 0.20751 2.2075 1.5976 2.7118 2.7418 0.4183 0.94914 0.6487 2.6035 0.72517 3.6379 0.21873 2.9579-1.4809 7.0085-0.85625 9.908 0.23687 1.0993 1.4647 3.0402 1.4647 3.0402s1.3943-0.72694 1.9436-1.7081c2.3508-4.1989 0.83365-11.551 1.489-16.343 0.32325-2.3634 1.461-6.3174 3.1246-8.0266 1.2404-1.2739 4.3889-1.357 4.3889-1.357s2.0681 0.20452 3.8131 1.4488c1.5989 1.1402 2.8875 3.3293 2.8875 3.3293s3.3152-0.2433 4.6061 0.25559c1.6585 0.64094 4.0157 2.0574 4.6004 3.7364 0.26156 0.75094-0.57449 2.5874-0.57449 2.5874s-6.1766-2.4982-8.7454-1.75c-2.7525 0.80167-5.2487 4.2686-6.8984 6.6133-1.1319 1.6087-2.7507 5.3033-3.3215 7.1856-0.66043 2.1779-0.54439 4.756-1.3378 6.8891-1.9525 5.2491-5.2366 11.53-8.9368 15.373-0.81482 0.84606-3.3083 2.0941-3.3083 2.0941z" fill="#d0b54e" fill-rule="evenodd"/>
   <path d="m754 266.26s-1.3846-1.7598-2.2243-2.1597c-0.77542-0.36932-2.843-0.33796-2.843-0.33796s0.43886-2.0189-0.29875-2.9731c-0.48772-0.62799-1.6666-0.51186-2.4452-0.35114-2.0956 0.4325-3.2244 2.5914-5.9851 3.3641-2.2972 0.64294-5.3937 2.1998-6.2187-0.0383-0.75733-2.0541 0.46554-3.7411 2.2196-5.5426 0.7845-0.80566 2.1056-2.438 2.3494-3.5358 0.24374-1.0978 0.13144-2.197-0.0635-3.3044-0.41355-2.3493 1.6211-7.5976 2.9009-9.6105 2.1848-3.4352 8.355-6.1283 8.355-6.1283s1.8262-1.4371 2.4715-2.358c0.91256-1.3024 0.23643-3.8725 1.149-5.1749 0.64527-0.92093 1.7449-1.6692 2.8574-1.5052 1.4083 0.20751 2.2075 1.5976 2.7118 2.7418 0.4183 0.94914 0.6487 2.6035 0.72517 3.6379 0.21873 2.9579-1.4809 7.0085-0.85625 9.908 0.23687 1.0993 1.4647 3.0402 1.4647 3.0402s1.3943-0.72694 1.9436-1.7081c2.3508-4.1989 0.83365-11.551 1.489-16.343 0.32325-2.3634 1.461-6.3174 3.1246-8.0266 1.2404-1.2739 4.3889-1.357 4.3889-1.357s2.0681 0.20452 3.8131 1.4488c1.5989 1.1402 2.8875 3.3293 2.8875 3.3293s3.3152-0.2433 4.6061 0.25559c1.6585 0.64094 4.0157 2.0574 4.6004 3.7364 0.26156 0.75094-0.57449 2.5874-0.57449 2.5874s-6.1766-2.4982-8.7454-1.75c-2.7525 0.80167-5.2487 4.2686-6.8984 6.6133-1.1319 1.6087-2.7507 5.3033-3.3215 7.1856-0.66043 2.1779-0.54439 4.756-1.3378 6.8891-1.9525 5.2491-5.2366 11.53-8.9368 15.373-0.81482 0.84606-3.3083 2.0941-3.3083 2.0941z" fill="none" stroke="#584b13" stroke-width="1.3"/>
   <path d="m762.25 246.52c2.5302 0 4.8613 0.90842 6.7148 2.4216 2.0344 2.2577-6.1536 21.829-12.439 18.608-3.1306-2.0126-5.226-5.6125-5.226-9.6678 0-6.2157 4.9228-11.362 10.951-11.362z" fill="#d0b54e" stroke="#5b4f0f" stroke-width="1.3"/>
   <g transform="matrix(-.77355 0 0 .79383 2843.3 -363.32)" stroke-width="1.659">
    <path transform="translate(0 -2.0633)" d="m2700.2 785.03a10.489 10.66 0 1 1 -20.977 0 10.489 10.66 0 1 1 20.977 0z" fill="#d0b54e" fill-rule="evenodd"/>
    <path transform="translate(0 -2.0633)" d="m2700.2 785.03a10.489 10.66 0 1 1 -20.977 0 10.489 10.66 0 1 1 20.977 0z" fill="none" stroke="#5b4f0f" stroke-width="1.659"/>
   </g>
   <g transform="translate(-2)">
    <path transform="matrix(1.3468 0 0 1.3176 -3081.4 -788.4)" d="m2700.2 785.03a10.489 10.66 0 1 1 -20.977 0 10.489 10.66 0 1 1 20.977 0z" fill="#ececec" fill-rule="evenodd"/>
    <path transform="matrix(1.3468 0 0 1.3176 -3081.4 -788.4)" d="m2700.2 785.03a10.489 10.66 0 1 1 -20.977 0 10.489 10.66 0 1 1 20.977 0z" fill="none" stroke="#808080" stroke-width=".90751"/>
   </g>
   <g transform="translate(-.39212)">
    <path transform="matrix(1.3468 0 0 1.3176 -3057.5 -791.87)" d="m2700.2 785.03a10.489 10.66 0 1 1 -20.977 0 10.489 10.66 0 1 1 20.977 0z" fill="#ececec" fill-rule="evenodd"/>
    <path transform="matrix(1.3468 0 0 1.3176 -3057.5 -791.87)" d="m2700.2 785.03a10.489 10.66 0 1 1 -20.977 0 10.489 10.66 0 1 1 20.977 0z" fill="none" stroke="#808080" stroke-width=".90751"/>
   </g>
   <g transform="translate(0 -.82365)">
    <path transform="matrix(1.3468 0 0 1.3176 -3072.5 -812.8)" d="m2700.2 785.03a10.489 10.66 0 1 1 -20.977 0 10.489 10.66 0 1 1 20.977 0z" fill="#ececec" fill-rule="evenodd"/>
    <path transform="matrix(1.3468 0 0 1.3176 -3072.5 -812.8)" d="m2700.2 785.03a10.489 10.66 0 1 1 -20.977 0 10.489 10.66 0 1 1 20.977 0z" fill="none" stroke="#808080" stroke-width=".90751"/>
   </g>
   <path d="m518.09 320.35-5.5559-11.527 0.0828-12.715 26.713 7.188z" fill="#d0b54e" stroke="#540" stroke-width="1.3"/>
   <path d="m517.33 317.02-9.761-7.2388 5.7932-10.336 19.312 4.7599z" fill="#f00839"/>
   <path d="m517.33 317.02-10.067-7.2388 6.0995-10.336 19.935 5.0711z" fill="none" stroke="#540" stroke-width="1.3"/>
   <path d="m626.95 312.33 25.561-13.773-25.561-13.03-25.561 13.03 25.561 13.773z" fill="#d0b54e" stroke="#540" stroke-width="1.3"/>
   <path d="m626.95 308.65 18.531-9.9851-18.531-9.4463-18.531 9.4463 18.531 9.9851z" fill="#f00839"/>
   <path d="m626.95 308.65 18.531-9.9851-18.531-9.4463-18.531 9.4463 18.531 9.9851z" fill="none" stroke="#540" stroke-width="1.3"/>
   <path d="m735.81 320.35 5.5559-11.527-0.0828-12.715-26.713 7.188z" fill="#d0b54e" stroke="#540" stroke-width="1.3"/>
   <path d="m736.56 317.02 9.761-7.2388-5.7932-10.336-19.312 4.7599z" fill="#f00839"/>
   <path d="m736.56 317.02 10.067-7.2388-6.0995-10.336-19.935 5.0711z" fill="none" stroke="#540" stroke-width="1.3"/>
   <g transform="translate(9,-1)">
    <path transform="matrix(1.0006 0 0 .97889 -2132.4 -466.53)" d="m2700.2 785.03a10.489 10.66 0 1 1 -20.977 0 10.489 10.66 0 1 1 20.977 0z" fill="#ececec" fill-rule="evenodd"/>
    <path transform="matrix(1.0006 0 0 .97889 -2132.4 -466.53)" d="m2700.2 785.03a10.489 10.66 0 1 1 -20.977 0 10.489 10.66 0 1 1 20.977 0z" fill="none" stroke="#808080" stroke-width="1.3135"/>
   </g>
   <path transform="matrix(1.3082 0 0 1.2798 -2950.8 -703.64)" d="m2700.2 785.03a10.489 10.66 0 1 1 -20.977 0 10.489 10.66 0 1 1 20.977 0z" fill="none" stroke="#540" stroke-width="1.0047"/>
   <g transform="translate(117.94 -.12454)">
    <g transform="translate(9,-1)">
     <path transform="matrix(1.0006 0 0 .97889 -2132.4 -466.53)" d="m2700.2 785.03a10.489 10.66 0 1 1 -20.977 0 10.489 10.66 0 1 1 20.977 0z" fill="#ececec" fill-rule="evenodd"/>
     <path transform="matrix(1.0006 0 0 .97889 -2132.4 -466.53)" d="m2700.2 785.03a10.489 10.66 0 1 1 -20.977 0 10.489 10.66 0 1 1 20.977 0z" fill="none" stroke="#808080" stroke-width="1.3135"/>
    </g>
    <path transform="matrix(1.3082 0 0 1.2798 -2950.8 -703.64)" d="m2700.2 785.03a10.489 10.66 0 1 1 -20.977 0 10.489 10.66 0 1 1 20.977 0z" fill="none" stroke="#540" stroke-width="1.0047"/>
   </g>
   <g transform="matrix(-1 0 0 1 1253.9 0)">
    <g transform="translate(-2)">
     <path transform="matrix(1.3468 0 0 1.3176 -3081.4 -788.4)" d="m2700.2 785.03a10.489 10.66 0 1 1 -20.977 0 10.489 10.66 0 1 1 20.977 0z" fill="#ececec" fill-rule="evenodd"/>
     <path transform="matrix(1.3468 0 0 1.3176 -3081.4 -788.4)" d="m2700.2 785.03a10.489 10.66 0 1 1 -20.977 0 10.489 10.66 0 1 1 20.977 0z" fill="none" stroke="#808080" stroke-width=".90751"/>
    </g>
    <g transform="translate(-.39212)">
     <path transform="matrix(1.3468 0 0 1.3176 -3057.5 -791.87)" d="m2700.2 785.03a10.489 10.66 0 1 1 -20.977 0 10.489 10.66 0 1 1 20.977 0z" fill="#ececec" fill-rule="evenodd"/>
     <path transform="matrix(1.3468 0 0 1.3176 -3057.5 -791.87)" d="m2700.2 785.03a10.489 10.66 0 1 1 -20.977 0 10.489 10.66 0 1 1 20.977 0z" fill="none" stroke="#808080" stroke-width=".90751"/>
    </g>
    <g transform="translate(0 -.82365)">
     <path transform="matrix(1.3468 0 0 1.3176 -3072.5 -812.8)" d="m2700.2 785.03a10.489 10.66 0 1 1 -20.977 0 10.489 10.66 0 1 1 20.977 0z" fill="#ececec" fill-rule="evenodd"/>
     <path transform="matrix(1.3468 0 0 1.3176 -3072.5 -812.8)" d="m2700.2 785.03a10.489 10.66 0 1 1 -20.977 0 10.489 10.66 0 1 1 20.977 0z" fill="none" stroke="#808080" stroke-width=".90751"/>
    </g>
   </g>
  </g>
 </g>
</svg>
