<?xml version="1.0" encoding="UTF-8"?>
<svg width="872.81" height="454.69" version="1.1" viewBox="0 0 872.8125 454.6875" xmlns="http://www.w3.org/2000/svg">
 <path d="m355.13 451.38c-1.2468-1.2468-13.033-2.3609-23.982-2.2669-28.509 0.24464-42.03-0.0356-43.794-0.90764-1.0394-0.51388-10.116-1.7666-20.171-2.7837-18.94-1.9161-27.188-3.3955-27.188-4.8771 0-0.47387-2.1094-0.86158-4.6875-0.86158s-4.6875-0.42188-4.6875-0.9375c0-0.51563-1.3711-0.9401-3.0469-0.94328-1.6758-3e-3 -4.2706-0.64394-5.7662-1.4239-1.6781-0.87514-6.3447-1.5839-12.188-1.8509-5.2075-0.23803-11.578-0.8944-14.156-1.4586-2.5781-0.56419-8.2734-1.2107-12.656-1.4366-8.0867-0.4169-14.115-2.3363-20.105-6.4012-7.5655-5.1342-28.026-15.159-32.535-15.942-1.8818-0.32645-3.9373-1.2152-4.5679-1.975s-1.8331-1.3949-2.6723-1.4112c-1.9953-0.039-3.615-1.4104-7.7156-6.5327-4.7322-5.9113-6.4665-9.6362-6.4665-13.888 0-3.1909 0.46473-3.9911 3.5662-6.1405 6.6869-4.634 9.7882-8.5918 10.534-13.444 0.87882-5.7143-0.12541-7.5566-4.5027-8.26-6.0776-0.97662-7.1992-1.3441-9.441-3.0929-1.4486-1.13-2.2398-2.7924-2.3438-4.9247-0.14779-3.0313 0.0342-3.2365 3.1243-3.523 3.985-0.3695 7.5-3.4261 7.5-6.5219 0-1.2543-0.70233-5.1904-1.5607-8.7469-1.5599-6.4628-1.5635-6.4677-6.7969-9.0967-8.4706-4.2552-11.868-6.8617-14.625-11.22-1.4286-2.2581-3.3809-4.5949-4.3384-5.1929-0.95755-0.59799-1.741-1.5669-1.741-2.1532s-0.61123-1.5732-1.3583-2.1932c-0.74706-0.62001-1.8471-2.6756-2.4445-4.5679-0.59741-1.8924-2.1131-4.9651-3.3681-6.8284s-2.4966-4.5716-2.7589-6.0184-1.7214-4.2018-3.2424-6.1221c-1.5209-1.9203-2.7653-4.1183-2.7653-4.8843 0-1.4688-6.279-6.8901-10.407-8.9858-1.3413-0.68085-4.9272-4.0479-7.9688-7.4822-8.1641-9.2186-15.218-15.861-20.772-19.56-2.7109-1.8055-5.2422-3.777-5.625-4.3812-0.38284-0.60419-1.8805-1.8523-3.328-2.7735-1.4476-0.92126-4.1171-3.3189-5.9323-5.3281s-5.2714-4.9567-7.6805-6.55c-8.6354-5.7111-7.9331-12.896 1.7823-18.235 4.9012-2.693 15.426-3.383 22.431-1.4705 2.3203 0.63342 6.4336 1.3584 9.1406 1.611 2.707 0.25264 4.9219 0.78611 4.9219 1.1855s1.793 1.8886 3.9844 3.3093 4.8281 3.3735 5.8594 4.3395c3.9516 3.7017 11.201 8.5777 13.905 9.3534 3.351 0.96106 5.3133-0.28105 5.3133-3.3633 0-8.3201 14.198-38.332 21.668-45.802 2.0047-2.0047 3.6449-3.9231 3.6449-4.2632s1.1602-1.9195 2.5781-3.5099c1.418-1.5904 3.2109-3.878 3.9844-5.0834 0.77344-1.2055 3.0873-3.6897 5.1419-5.5204s8.0673-7.5474 13.362-12.704 10.152-9.5471 10.796-9.7575c0.64333-0.21039 1.6753-1.0944 2.2933-1.9646 1.2351-1.739 11.901-9.0931 17.29-11.922 1.8772-0.98527 5.5217-3.5568 8.0988-5.7145s5.0891-3.9231 5.5822-3.9231c0.49306 0 1.66-0.84375 2.5933-1.875s2.2937-1.875 3.0233-1.875c0.72952 0 3.2497-1.3711 5.6004-3.0469 7.257-5.1734 22.633-13.828 24.568-13.828 0.49204 0 3.4352-1.6875 6.5404-3.75 3.3276-2.2103 6.7596-3.75 8.3585-3.75 1.5048 0 3.4541-0.8192 4.3777-1.8397 1.9504-2.1552 6.6266-3.8682 9.9085-3.6298 2.7235 0.19786 14.614-2.7008 17.311-4.2202 1.0312-0.58091 2.5078-1.1247 3.2812-1.2084 0.77344-0.08368 3.5156-0.36749 6.0938-0.63068 2.5781-0.26319 7.2188-1.1213 10.312-1.9069 12.449-3.1611 28.032-4.4306 52.969-4.3153 9.0234 0.04174 18.794 0.02293 21.711-0.04179 2.9178-0.06473 5.5371 0.2578 5.8208 0.71671 0.28363 0.45892 3.1698 0.6949 6.4137 0.52441s12.437-0.57389 20.429-0.89645c8.123-0.32784 15.088-1.0351 15.795-1.6039 1.698-1.3672 0.80453-6.5298-1.6757-9.6829-2.9564-3.7585-2.7377-14.717 0.42409-21.245 4.0314-8.3237 16.637-16.184 33.838-21.101 8.7466-2.5 10.175-2.6379 25.075-2.42 14.53 0.21243 15.967 0.38756 17.873 2.1785 1.1401 1.0711 2.427 1.9474 2.8596 1.9474 0.86554 0 10.18 4.1308 13.155 5.834 1.0312 0.5904 3.1406 1.6887 4.6875 2.4407s4.1636 2.3681 5.8148 3.5913c1.6513 1.2232 3.8041 2.5342 4.784 2.9134 4.4822 1.7343 14.926 17.748 17.948 27.52 1.1916 3.8531 0.22543 9.7646-2.2011 13.468-1.6635 2.5388-1.9248 5.8624-0.62274 7.92 0.65504 1.0351 2.9649 1.3098 10.064 1.1966 8.574-0.1367 18.502-0.72469 25.151-1.4897 17.328-1.9935 26.405-1.6994 29.045 0.94101 1.0439 1.0439 3.7311 1.4347 10.324 1.5015 4.9019 0.04964 8.9125 0.39051 8.9125 0.75749 0 0.62546 4.1288 1.3424 14.062 2.4419 2.3203 0.25682 5.5481 1.0709 7.1729 1.8092s3.3922 1.3422 3.9275 1.3422c0.53531 0 3.8466 1.4745 7.3583 3.2767 4.0586 2.0828 7.7514 3.2903 10.135 3.3142 6.8379 0.0684 28.832 5.7169 34.972 8.9812 2.3175 1.2322 4.9946 2.2404 5.949 2.2404s1.7354 0.42188 1.7354 0.9375 0.40691 0.9375 0.90425 0.9375c1.6088 0 14.933 8.4845 16.649 10.602 0.91583 1.1297 3.6793 3.0028 6.1411 4.1623 2.7375 1.2894 4.8155 3.0015 5.3504 4.4082 0.48093 1.265 2.2637 3.0055 3.9616 3.8679 8.918 4.5293 29.276 25.15 33.522 33.955 1.5653 3.2458 2.8476 6.4099 2.8495 7.0312 2e-3 0.62138 0.8943 2.591 1.983 4.377 1.0888 1.786 2.3272 5.3719 2.7522 7.9688 1.2018 7.3437 2.4789 12.744 4.2206 17.847 1.308 3.8318 1.4912 6.6133 1.0036 15.237-0.56311 9.9591-1.8132 17.675-3.3812 20.87-0.38323 0.78089-0.49395 2.8019-0.24603 4.491l0.45077 3.0712 3.2423-3.7879c1.9229-2.2465 4.071-3.7938 5.2786-3.8023 1.12-7e-3 2.5852-0.36252 3.2561-0.78807 0.67089-0.42554 3.5297-0.41147 6.353 0.0312 4.6581 0.73047 5.4548 0.58648 8.6072-1.5557 1.9107-1.2984 4.155-2.3607 4.9874-2.3607 2.0234 0 6.9389-2.5017 8.4186-4.2846 1.2855-1.5489 7.4935-4.6026 11.228-5.5229 1.2712-0.31328 5.8972-0.92468 10.28-1.3587 4.3828-0.43401 10.406-1.4718 13.385-2.3063 9.4682-2.652 14.693-2.8627 19.427-0.78329 9.11 4.0014 12.033 10.886 6.0938 14.352-1.5469 0.90287-3.4453 1.6736-4.2188 1.7128-0.77344 0.0392-2.25 1.3369-3.2812 2.8838-2.3475 3.5213-9.2076 8.5273-12.124 8.8475-1.2103 0.13285-3.7236 1.1828-5.585 2.3333-1.8614 1.1504-3.3845 1.8428-3.3845 1.5385 0-0.30428-2.2148 0.66774-4.9219 2.16-2.707 1.4923-7.4531 3.4623-10.547 4.3779-3.0938 0.91553-6.2578 2.1496-7.0312 2.7423-0.77344 0.59272-3.7266 2.2721-6.5625 3.7321s-6.272 3.236-7.6357 3.9469c-1.3637 0.71087-2.9974 1.9166-3.6304 2.6793-0.63302 0.76274-1.6667 1.3868-2.2971 1.3868s-1.8925 0.82472-2.8047 1.8327-3.8252 2.9554-6.4734 4.3276-6.5734 3.9225-8.7226 5.6673-4.2983 3.1724-4.7755 3.1724c-0.47727 0-3.135 2.1738-5.906 4.8306-2.771 2.6569-6.7392 5.5915-8.8182 6.5214-2.0913 0.93544-7.2245 5.2298-11.49 9.6127-4.2407 4.357-10.663 9.8846-14.271 12.283-5.3226 3.5385-7.1086 5.3895-9.4638 9.8082-2.179 4.0883-4.3781 6.5077-8.8176 9.7015-3.253 2.3402-7.1238 5.8762-8.6017 7.8578s-2.9499 3.8139-3.271 4.0718c-2.0256 1.6263-7.6586 12.005-7.5979 13.999 0.0403 1.3242 1.3313 5.7827 2.8689 9.9077s3.2859 9.8203 3.8853 12.656c1.5528 7.3472 2.8115 10.24 4.9542 11.387 1.6924 0.90576 1.8202 1.6513 1.3198 7.6985-0.4916 5.9396-0.87815 6.9868-3.4235 9.2738-1.5782 1.418-3.5237 2.5781-4.3234 2.5781-0.79971 0-2.797 1.0039-4.4383 2.2308-1.6414 1.227-4.4609 2.7002-6.2656 3.2739-10.537 3.3498-12.406 3.8703-13.893 3.8703-1.6856 0-9.1798 2.4842-15.399 5.1046-1.9311 0.81364-3.6186 1.407-3.75 1.3186-0.13137-0.0884-1.7154 0.29495-3.5201 0.85194s-7.0781 1.2384-11.719 1.5142c-7.9739 0.47399-19.01 2.3467-34.231 5.8086-6.0401 1.3738-10.674 1.9918-17.8 2.374-1.2891 0.0691-4.924 0.71396-8.0777 1.4329-3.1537 0.71898-7.6225 1.2358-9.9307 1.1485s-4.5795 0.077-5.0472 0.36495c-0.4678 0.28803-3.1364 0.81324-5.9302 1.1671s-6.0719 1.0207-7.2845 1.4817c-1.2126 0.46105-6.7315 1.0781-12.264 1.3713-5.5326 0.29317-11.47 0.97915-13.195 1.5244-3.0838 0.97486-6.7944 1.5062-15.145 2.1688-2.3203 0.1841-8.6997 0.83046-14.176 1.4364-8.22 0.90937-12.474 0.84646-24.375-0.3605-10.974-1.1129-15.984-1.2324-20.98-0.50013-3.6094 0.52909-7.8281 1.0875-9.375 1.2409-1.5469 0.15341-5.7815 0.93171-9.4102 1.7296-6.9666 1.5318-19.184 1.2223-19.184-0.48595 0-0.56064-1.2028-0.65586-3.0469-0.24119-5.1067 1.1483-20.607 1.6961-38.203 1.3501-6.4453-0.12674-12.593 0.0536-13.662 0.40089-1.0686 0.34724-2.1728 0.40132-2.454 0.12018zm63.928-6.5394c9.0234-0.13408 17.523-0.68963 18.888-1.2346 1.3649-0.54493 2.6944-0.77808 2.9544-0.5181 0.25998 0.25997 2.5182-0.10798 5.0183-0.81766 5.317-1.5093 17.737-1.3679 26.577 0.30265 7.2533 1.3707 17.089 1.3652 24.844-0.0138 3.0938-0.55015 8.3528-1.4335 11.687-1.963s6.92-1.5234 7.9688-2.2087c1.3596-0.8883 3.3868-1.0541 7.0631-0.57774 5.4114 0.7012 14.746-0.0808 23.438-1.9634 5.5467-1.2015 8.1964-1.5279 18.101-2.2299 3.5104-0.24881 6.7879-0.70289 7.2833-1.0091 0.4954-0.30617 4.366-0.77554 8.6014-1.043 4.2354-0.26751 8.4527-0.88883 9.3718-1.3807 0.91911-0.49189 3.0357-1.0789 4.7035-1.3044 4.334-0.58605 15.659-2.1582 18.97-2.6335 1.5469-0.22204 4.0454-0.89259 5.5523-1.4901 1.5069-0.59752 3.2757-0.88077 3.9306-0.62943 0.65498 0.25134 2.5861 0.0477 4.2915-0.45258 3.2814-0.96262 8.1685-1.714 14.351-2.2065 6.9074-0.55027 13.105-1.7046 15.469-2.8814 1.2891-0.64163 5.7188-1.9026 9.8438-2.8021 8.9782-1.9578 12.369-3.1346 14.142-4.9078 1.7753-1.7753 1.6839-6.3261-0.16433-8.1743-0.8199-0.8199-1.596-2.4321-1.7247-3.5826-0.22788-2.0373-1.8042-7.371-3.4789-11.771-0.45623-1.1988-0.57583-2.5901-0.26577-3.0918 0.31005-0.50169 0.25268-1.6302-0.12749-2.5079-1.3329-3.0772 0.63335-9.3957 3.5835-11.515 0.41691-0.29953 1.0248-2.198 1.3509-4.2188s1.7877-5.6192 3.248-7.9966c1.4603-2.3773 2.6551-4.6311 2.6551-5.0084s0.84375-1.7586 1.875-3.0696c1.0312-1.311 1.875-2.7486 1.875-3.1947 0-1.3568-4.7276-0.90494-6.2277 0.59518-0.77344 0.77344-2.3253 1.4084-3.4487 1.4109-1.1233 3e-3 -3.3068 1.0163-4.8522 2.2527-2.2585 1.807-3.1755 2.0524-4.6734 1.2507-3.3872-1.8128-32.995-0.60602-31.819 1.2969 0.27749 0.44899 2.8004 1.9025 5.6066 3.23 2.8061 1.3275 5.102 2.8832 5.102 3.457 0 0.57386 0.92516 2.0282 2.0559 3.2318 1.715 1.8255 2.1218 3.5669 2.4534 10.501 0.39092 8.1764 0.35171 8.3606-2.3918 11.231-1.5341 1.6053-3.5668 2.9186-4.5171 2.9186s-6.1084 0.90795-11.462 2.0177c-8.2789 1.716-10.43 1.857-14.388 0.94356-7.355-1.6977-14.189-5.3706-16.282-8.7503-6.5443-10.57-7.7074-16.282-4.2188-20.717 2.4258-3.0839 2.3674-3.8558-0.23438-3.1005-1.1602 0.33682-5.9062 0.77809-10.547 0.98059-4.6406 0.20251-12.023 0.61803-16.406 0.92337s-11.344 0.70531-15.469 0.88881c-13.05 0.58052-23.326 1.6262-25.051 2.5494-2.8137 1.5058-1.9746 5.2233 2.2015 9.7538 2.1282 2.3088 4.3916 4.1978 5.0298 4.1978s2.2331 0.84375 3.5441 1.875c1.311 1.0312 3.0554 1.875 3.8764 1.875 0.82101 0 1.4928 0.33092 1.4928 0.73536 0 0.40446 1.1602 1.4213 2.5781 2.2596 1.418 0.83834 3.0861 2.8735 3.707 4.5226 1.124 2.9856 1.0922 3.0362-7.4605 11.846l-8.5893 8.8476-5.1958-0.61741c-7.1567-0.85041-9.7485-2.2855-17.798-9.8549l-6.9777-6.5612 1.7016-3.0108c0.93588-1.6559 3.4455-4.6983 5.5768-6.7608 3.9511-3.8234 9.4808-10.746 9.4864-11.875 2e-3 -0.34375 0.31947-0.9414 0.70618-1.3281 0.38672-0.38672 0.70313-1.662 0.70313-2.834 0-1.7856-0.56961-2.178-3.5156-2.4219-1.9336-0.16004-5.2031 0.0641-7.2656 0.49809-2.0625 0.43397-7.7578 0.94447-12.656 1.1344-4.8984 0.18994-9.5391 0.40622-10.312 0.48058-2.324 0.22346-16.919 0.1242-23.438-0.1594-12.461-0.54214-44.301 0.41791-49.932 1.5055-2.1612 0.41745-3.9989 0.28851-4.7479-0.33312-1.8912-1.5696-19.379-2.1925-22.195-0.79057-3.9043 1.9439-3.5641 5.5063 0.9987 10.456 2.1602 2.3435 4.4498 4.261 5.088 4.261s2.2331 0.84375 3.5441 1.875c1.311 1.0312 3.0554 1.875 3.8764 1.875 0.82101 0 1.4928 0.33092 1.4928 0.73536 0 0.40446 1.1602 1.4213 2.5781 2.2596 1.418 0.83834 3.088 2.8784 3.7111 4.5335 1.1302 3.0019 1.1116 3.0312-7.5604 11.917l-8.6934 8.9077-6.7575-1.1398c-6.0403-1.0188-7.2776-1.613-11.658-5.5984-2.6955-2.4522-6.364-5.7857-8.1523-7.4077l-3.2514-2.9492 1.7433-3.0509c0.95879-1.678 3.6875-4.9947 6.0639-7.3704 5.4166-5.415 11.352-12.934 11.352-14.381 0-0.60377-0.55576-1.8578-1.235-2.7868-1.0359-1.4167-2.8876-1.7318-11.484-1.9545-5.6372-0.14604-12.261-0.7357-14.719-1.3104-2.4582-0.57464-6.2551-0.97814-8.4375-0.89667-2.1824 0.0815-6.0773-0.0858-8.6554-0.37158-2.5781-0.28586-8.8072-0.8216-13.842-1.1906-5.0352-0.36895-9.3885-1.0489-9.6742-1.5111s-0.8925-0.60959-1.3486-0.32768c-0.45613 0.2819-5.0906 0.55283-10.299 0.60206-10.915 0.10316-12.689 0.99108-11.646 5.8288 0.34752 1.612 1.2133 3.2683 1.924 3.6806s1.2922 1.1128 1.2922 1.5567c0 0.44383 1.6875 3.7849 3.75 7.4246s3.75 7.2421 3.75 8.0052c0 1.3735-5.4593 7.0948-6.7778 7.1032-0.37627 3e-3 -2.9075 1.69-5.625 3.7503s-5.4831 3.7478-6.1458 3.75c-0.66267 2e-3 -2.2455 0.68587-3.5174 1.5192-2.4299 1.5922-4.1152 1.4398-10.278-0.92898-2.0625-0.79279-5.9132-1.46-8.5571-1.4826-2.8978-0.0249-5.2334-0.55482-5.8804-1.3344-0.59033-0.71129-2.3361-1.5458-3.8795-1.8545-5.3982-1.0796-12.583-5.1766-14.495-8.2663-6.8517-11.066-7.712-16.028-3.718-21.442 1.3067-1.7711 3.2051-3.527 4.2188-3.9019 1.2864-0.47587 1.843-1.5547 1.843-3.5723 0-3.6585-3.1704-5.1382-13.673-6.3816-4.0813-0.48319-9.8932-1.5682-12.915-2.4112-4.0205-1.1214-6.3474-1.2972-8.6719-0.65543-1.9912 0.54981-4.3906 0.54208-6.4289-0.0207-1.7886-0.49386-4.4253-0.73288-5.8594-0.53116-2.3656 0.33274-2.5958 0.70281-2.4822 3.9913 0.0899 2.6045 0.71338 4.0284 2.2154 5.0599 3.8616 2.6518 7.5035 6.9937 7.4734 8.9099-0.0164 1.0452-0.58894 2.6369-1.2723 3.5371-1.9926 2.6247-8.2263 7.2855-9.0573 6.7719-0.41857-0.25869-1.0298-0.0355-1.3582 0.49584-0.32842 0.53141-2.1902 1.7789-4.1373 2.7722l-3.5402 1.8061-3.4518-2.8452c-1.8985-1.5649-4.0521-4.2821-4.7859-6.0382-0.99575-2.3832-1.9086-3.193-3.5993-3.193-2.7143 0-6.7926-3.0073-7.441-5.4869-0.59263-2.2662 4.1476-8.3443 10.374-13.302 2.5634-2.041 4.9036-4.3439 5.2005-5.1174 0.81003-2.1109-0.31865-4.2189-2.2589-4.2189-0.94566 0-1.9539-0.37948-2.2406-0.8433s-2.6332-1.35-5.2145-1.9692-4.9278-1.5054-5.2145-1.9692-1.5741-0.8433-2.861-0.8433c-3.5361 0-16.209-5.785-23.814-10.871-3.2976-2.2053-11.551-3.3287-13.88-1.8892-0.5802 0.35857-1.5058 2.3265-2.0569 4.3732-0.85547 3.177-0.70678 4.3711 1.0165 8.1635 3.0773 6.7722 3.7273 10.113 4.1478 21.317 0.42455 11.31-0.30371 15.462-3.5541 20.262-1.1827 1.7465-2.8464 4.9194-3.6972 7.0508-1.8616 4.6637-1.2462 5.7805 4.9131 8.9151 2.3203 1.1809 5.5629 3.0521 7.2058 4.1583s4.7015 2.2854 6.7969 2.6205 3.8098 0.94797 3.8098 1.362c0 0.41402 1.4766 1.4569 3.2812 2.3175 1.8047 0.86059 3.2812 1.9412 3.2812 2.4012 0 0.7586 4.1478 3.209 18.059 10.668 2.6342 1.4126 6.2932 2.814 8.1311 3.1143 1.8379 0.30033 4.1853 0.88139 5.2166 1.2912 4.292 1.7058 10.873 3.1131 19.93 4.2621 10.425 1.3225 20.343 2.9774 25.539 4.2615 1.8047 0.44603 10.654 1.5 19.665 2.3421 9.0111 0.84211 17.742 2.0988 19.403 2.7926s6.5222 1.5567 10.804 1.9174c4.2815 0.36078 8.3253 1.0873 8.9862 1.6145 0.80785 0.64443 2.344 0.6538 4.6875 0.0286 1.9172-0.51149 6.0171-0.85674 9.1109-0.76723 3.0938 0.0895 11.32 0.25927 18.281 0.37726 6.9609 0.11797 18.562 0.83035 25.781 1.583 7.2188 0.75271 18.574 1.5714 25.234 1.8194 6.6601 0.24798 12.349 0.69041 12.642 0.98316 0.29276 0.29275 4.7576 0.24246 9.9219-0.11178 5.1643-0.35423 16.772-0.75377 25.796-0.88784zm-40.272-11.247c-3.3291-0.75439-10.923-1.5822-16.875-1.8396-5.9522-0.25739-14.83-0.86394-19.728-1.3479s-16.104-0.72112-24.9-0.52703c-8.7967 0.19408-19.133-0.0792-22.969-0.60742-3.8361-0.52815-10.561-1.3288-14.943-1.7792-14.903-1.5316-27.649-3.4381-30.295-4.5314-1.4515-0.59969-3.8773-1.0903-5.3906-1.0903s-2.7515-0.42188-2.7515-0.9375c0-0.51563-1.06-0.9375-2.3556-0.9375s-5.4089-0.89456-9.1406-1.9879c-3.7318-1.0934-11.426-2.5441-17.098-3.2239-11.153-1.3367-16.74-2.5239-18.542-3.9404-0.62992-0.49508-2.7987-1.1547-4.8194-1.4658-2.0208-0.31109-3.9534-1.0174-4.2946-1.5696s-2.2738-1.2406-4.2946-1.5299c-5.9317-0.84921-11.736-3.5473-21.119-9.8171-2.7806-1.8581-6.7431-3.913-8.8056-4.5664s-4.1508-1.559-4.6406-2.0123c-0.48984-0.45334-2.6596-0.82425-4.8216-0.82425-2.7285 0-4.106-0.45605-4.503-1.4908-0.79169-2.0631-0.046-2.956 3.0335-3.6324 4.0536-0.89031 21.767 6.4338 26.569 10.986 1.7036 1.6149 11.158 5.3875 13.502 5.3875 1.0533 0 3.6615 0.84375 5.796 1.875s4.4285 1.8811 5.098 1.8886c0.66944 7e-3 3.0484 0.65144 5.2867 1.431 4.5926 1.5995 11.332 2.8063 24.993 4.4755 5.1562 0.63003 10.008 1.5454 10.781 2.0342 0.77344 0.48878 5.2031 1.4435 9.8438 2.1217 4.6406 0.67814 11.391 1.6702 15 2.2047 3.6094 0.53442 8.0391 1.1291 9.8438 1.3214 1.8047 0.19237 3.2812 0.42977 3.2812 0.52757 0 0.51582 39.145 5.399 45 5.6137 2.0625 0.0756 6.9557-0.12832 10.874-0.45315s11.09-0.13448 15.938 0.42301c4.8475 0.55748 14.287 1.2242 20.977 1.4817 6.6898 0.25745 12.385 0.82161 12.656 1.2537 0.40653 0.64774 18.008 2.5698 19.782 2.1602 0.2966-0.0684 3.2066-0.37365 6.4668-0.67822 3.2601-0.30455 6.2578-0.75784 6.6614-1.0073 0.86769-0.53625 9.7671-1.3369 19.614-1.7645 3.8672-0.16795 8.9297-0.55917 11.25-0.86939s9.0703-0.83684 15-1.1703 12.68-0.76772 15-0.96506c16.06-1.3659 26.033-1.3642 39.375 7e-3 10.968 1.1268 16.026 1.2605 20.625 0.54518 3.3516-0.52124 7.9922-1.1651 10.312-1.4307 2.3203-0.26565 4.8516-0.7091 5.625-0.98545 0.77344-0.27634 3.2431-0.68815 5.4881-0.91513s4.8263-0.81108 5.7361-1.298c0.90984-0.48692 1.8549-0.68473 2.1-0.43955 0.24517 0.24517 2.244-0.18867 4.4418-0.96412 2.1978-0.77544 4.3643-1.1823 4.8144-0.90415 0.45006 0.27815 1.7321 0.0167 2.8491-0.5811 2.046-1.095 3.746-1.3546 14.883-2.2725 11.056-0.91128 15.434-1.4823 18.281-2.3842 1.5469-0.49003 4.8476-1.5327 7.335-2.317s4.9126-1.185 5.3894-0.89031c0.47675 0.29465 3.4327-0.12163 6.5688-0.92506s7.9608-1.4608 10.722-1.4608c2.7607 0 6.2071-0.49859 7.6586-1.108 1.4515-0.60939 3.272-1.2153 4.0454-1.3465 2.1019-0.35646 9.3136-3.0123 13.818-5.0886 5.3712-2.476 7.118-2.4134 6.2806 0.22509-0.8617 2.715-3.9602 5.2021-7.4422 5.974-1.5469 0.34286-6.6094 1.8518-11.25 3.3532-8.2373 2.665-11.022 3.2267-20.625 4.1598-10.348 1.0055-11.637 1.2212-13.611 2.2776-1.1286 0.60403-4.4342 1.4626-7.3456 1.908-2.9115 0.4454-6.3483 1.0098-7.6373 1.2543-1.2891 0.24449-5.0859 0.72386-8.4375 1.0653-14.703 1.4978-21.856 2.6072-29.705 4.6076-3.1895 0.81281-8.4629 1.9038-11.719 2.4244-10.56 1.6887-11.496 1.8629-13.409 2.4967-3.4115 1.1306-11.068 1.0435-24.243-0.27596-7.1399-0.71505-13.281-1.1149-13.647-0.88864-0.87786 0.54255-10.775 1.4159-20.715 1.8278-4.3828 0.18165-9.0855 0.77945-10.45 1.3284-1.3649 0.54899-2.6643 0.81556-2.8875 0.59237-0.8603-0.8603-31.147-0.19247-39.631 0.87386-3.8899 0.48894-15.128 2.2418-19.219 2.9975-6.711 1.2399-18.727 1.2101-24.334-0.0605zm319.57-28.364c1.3747-1.1254 2.1794-3.1444 2.5624-6.429 0.50169-4.303 0.33284-4.9462-1.6659-6.3462-1.2233-0.85682-2.1692-1.8661-2.1021-2.2429 0.0671-0.37679-0.18332-1.5288-0.55655-2.5601-0.37325-1.0312-1.2263-4.6172-1.8956-7.9688s-1.5306-6.446-1.9138-6.8767c-1.0529-1.1828-6.1337 1.8016-8.3384 4.8979-1.3456 1.8898-1.9489 4.1808-1.9489 7.4012 0 4.8017 0.42346 5.3525 9.3077 12.107 0.22078 0.16784 0.30539 2.4097 0.18802 4.9819-0.20033 4.3904-0.0735 4.6767 2.0728 4.6767 1.2574 0 3.1881-0.73828 4.2903-1.6406zm-298.24-3.5963c4.0084-1.9975 8.628-6.3471 8.628-8.1237 0-1.5458-3.9336-4.4013-6.8053-4.9401-1.8922-0.35499-3.929-1.2341-4.5261-1.9536-0.59714-0.7195-2.3752-1.3082-3.9512-1.3082-5.105 0-8.7972 1.9641-10.975 5.8381-1.7873 3.1801-1.9018 4.0041-0.89441 6.4362 2.8045 6.7706 9.9364 8.3304 18.524 4.0512zm140.62-3.75c4.0084-1.9975 8.628-6.3471 8.628-8.1237 0-1.5458-3.9336-4.4013-6.8053-4.9401-1.8922-0.35499-3.929-1.2341-4.5261-1.9536s-2.3752-1.3082-3.9512-1.3082c-5.105 0-8.7972 1.9641-10.975 5.8381-1.7873 3.1801-1.9018 4.0041-0.89441 6.4362 2.8045 6.7706 9.9364 8.3304 18.524 4.0512zm-281.01-8.3831c1.5236-0.78786 5.8259-1.8162 9.5608-2.2852 5.5622-0.69841 7.1715-1.2954 8.8954-3.2995 4.2316-4.9196 3.8397-10.383-1.0031-13.981-2.2063-1.6393-3.9432-1.9621-10.327-1.9193-5.1771 0.0347-8.5851 0.54151-10.473 1.5574-1.539 0.82829-4.1891 2.0247-5.8892 2.6587-7.2981 2.7218-7.8142 13.688-0.80202 17.043 3.9466 1.8886 6.702 1.9505 10.038 0.22561zm362.81-8.4375c1.5236-0.78786 5.8259-1.8162 9.5608-2.2852 5.5622-0.69841 7.1715-1.2954 8.8954-3.2995 4.2316-4.9196 3.8397-10.383-1.0031-13.981-2.2063-1.6393-3.9432-1.9621-10.327-1.9193-5.1771 0.0347-8.5851 0.54151-10.473 1.5574-1.539 0.82829-4.1891 2.0247-5.8892 2.6587-7.2981 2.7218-7.8142 13.688-0.80202 17.043 3.9466 1.8886 6.702 1.9505 10.038 0.22561zm-431.89-6.9601c3.118-1.1855 4.6367-4.2459 3.9427-7.9453-0.4814-2.5661-1.3988-3.4136-6.1561-5.6874-6.7271-3.2153-9.4968-2.5429-11.236 2.7277-1.7603 5.3337-0.99895 7.3108 3.724 9.6705 4.6862 2.3414 6.2819 2.5439 9.7257 1.2346zm66.915-11.061c0.22886-0.68735-0.41734-1.1719-1.563-1.1719-1.1516 0-1.9531 0.60533-1.9531 1.475 0 1.723 2.9254 1.4708 3.5161-0.30312zm247.72-1.6768c4.3747-0.19386 10.07-0.59557 12.656-0.89269 2.5862-0.29711 7.4445-0.71722 10.796-0.93356 15.003-0.96842 21.404-1.5693 25.607-2.4036 2.482-0.49275 5.5037-0.6472 6.7149-0.34321s7.8561-0.1315 14.767-0.96777c6.9104-0.83626 15.761-1.611 19.667-1.7217 3.9066-0.11068 6.9406-0.47302 6.7422-0.80522-0.33651-0.56342 5.6625-1.9373 15.565-3.5646 2.3203-0.38131 5.2734-1.1339 6.5625-1.6724 4.8892-2.0425 12.153-3.1559 19.306-2.9591 4.0771 0.11215 8.2567-0.0652 9.288-0.3942 1.6093-0.51334 11.392-1.6629 25.312-2.9743 2.0625-0.19431 6.4922-0.46084 9.8438-0.59229l6.0938-0.23899 8.6056-8.6723c9.0367-9.1068 10.613-11.23 10.613-14.297 0-2.9818-2.7209-3.3229-11.719-1.4691-2.0625 0.42493-4.1719 0.80161-4.6875 0.83705-1.7006 0.11691-8.3591 2.5135-13.125 4.7242-4.2502 1.9714-11.041 3.9561-15.938 4.6581-1.0312 0.14783-5.25 1.1761-9.375 2.2851-7.1765 1.9293-10.813 2.533-20.156 3.3457-4.7113 0.40983-21.32 3.9833-22.818 4.9097-0.53066 0.32797-3.1019 0.72582-5.7138 0.88412-12.217 0.7404-23.746 1.9524-24.806 2.6078-0.64302 0.3974-4.1979 0.94075-7.8998 1.2074-3.7019 0.26669-7.8393 1.0513-9.1942 1.7436-3.3966 1.7354-9.9548 2.2518-34.588 2.7238-11.674 0.22365-22.308 0.81811-23.631 1.321-3.745 1.4239-8.155 1.5281-33.72 0.79698-10.156-0.29045-18.812-0.74217-19.236-1.0038-0.66899-0.41345-4.924 9e-3 -19.017 1.8902-2.9117 0.38855-16.217 0.9869-26.719 1.2015-2.0625 0.0422-6.0703-0.16779-8.9062-0.46652s-13.594-0.67989-23.906-0.84701c-10.312-0.16713-24.656-0.61871-31.875-1.0035-18.724-0.99808-26.487-0.89324-28.019 0.37837-1.721 1.4283-2.7972 5.7407-1.7052 6.8327 1.1813 1.1813 24.281 3.5708 40.037 4.1414 19.704 0.71367 51.228 1.2663 90.68 1.5897 19.452 0.15945 35.69 0.61237 36.084 1.0065 0.39413 0.39412 3.6742 0.44065 7.289 0.1034 3.6148-0.33727 10.152-0.77182 14.526-0.96568zm-204.19-5.5888c9.9352 0 10.016-0.0182 10.464-2.3438 0.67368-3.502-0.86158-4.612-6.2596-4.5255-2.6632 0.0427-8.428-0.62253-12.811-1.4782-4.3828-0.85569-15.773-2.38-25.312-3.3874-18.161-1.9178-25.842-3.609-32.718-7.2031-2.2682-1.1857-4.88-2.1558-5.804-2.1558-0.92403 0-1.9174-0.38401-2.2074-0.85336-0.80703-1.3058-13.351-3.1606-16.888-2.4971-1.7226 0.32316-3.6479 1.2092-4.2784 1.969-1.5484 1.8657-3.7294 1.7494-3.7294-0.19876 0-2.4524-3.8105-5.9198-6.5054-5.9198-1.3357 0-3.9471-0.8139-5.8032-1.8087-1.856-0.99477-4.9084-2.0964-6.783-2.4481-1.8746-0.35168-3.4084-1.0143-3.4084-1.4726s-1.1602-0.83577-2.5781-0.83895c-1.418-3e-3 -3.8438-0.68538-5.3906-1.516-4.1845-2.247-11.612-4.0795-16.585-4.0921-2.4188-7e-3 -4.6314-0.38908-4.9169-0.85103-0.51748-0.83731-5.9281 0.0102-7.9185 1.2403-1.174 0.72559-1.3901 5.1303-0.3306 6.7393 0.37882 0.57526 2.4817 1.9549 4.6731 3.0659s3.9844 2.4006 3.9844 2.8657 1.582 1.3553 3.5156 1.9781c1.9336 0.62281 3.9375 1.4408 4.4531 1.8177 1.4198 1.0379 14.087 4.6953 16.262 4.6953 1.0497 0 2.1692 0.42188 2.4879 0.9375 0.31868 0.51563 2.3803 0.9375 4.5814 0.9375 2.3642 0 7.4253 1.3478 12.367 3.2934 4.7487 1.8697 11.404 3.6654 15.396 4.1539 16.322 1.9975 23.131 3.0497 25.781 3.9839 1.5469 0.54531 4.1836 1.1957 5.8594 1.4452 1.6758 0.24957 3.0469 0.88434 3.0469 1.4106 0 0.57172 1.6097 0.77542 3.9992 0.50609 2.1996-0.24792 6.3128-0.0665 9.1406 0.40326 10.498 1.7437 25.897 3.0933 29.985 2.6278 2.3203-0.26422 8.7246-0.4804 14.232-0.4804zm319.28-1.1719c0.22886-0.68735-0.41734-1.1719-1.563-1.1719-1.1516 0-1.9531 0.60533-1.9531 1.475 0 1.723 2.9254 1.4708 3.5161-0.30312zm-96.797-13.036c6.1875-0.22794 17.789-0.57628 25.781-0.77409 11.667-0.28877 15.548-0.7357 19.688-2.2675 2.8359-1.0493 6.4247-1.9216 7.9749-1.9385 1.5503-0.0169 4.2925-0.4616 6.0938-0.98836 1.8013-0.52677 5.5954-1.1916 8.4313-1.4774 17.666-1.7804 21.275-2.619 25.089-5.8305 1.9279-1.6234 6.324-4.4727 9.7693-6.3317 8.1324-4.3882 16.705-13.19 16.705-17.153 0-1.5547 0.39421-3.0704 0.87601-3.3682 0.48181-0.29777 1.521-2.76 2.3093-5.4717 1.2699-4.3684 1.2769-5.6004 0.0615-10.81-1.5611-6.6919-3.7436-11.412-5.2766-11.412-0.57427 0-3.0039-1.2059-5.3992-2.6797-5.5328-3.4044-8.8706-3.0231-16.429 1.8769-3.0674 1.9884-6.0907 3.6153-6.7186 3.6153-0.62786 0-4.0953 3.2056-7.7054 7.1235-8.918 9.6784-9.9154 10.329-12.868 8.3947-2.7176-1.7806-2.3233-2.9724 3.2731-9.8932 9.3903-11.613 11.562-18.028 11.581-34.219 0.0192-15.777-0.92062-21.332-5.0864-30.06-1.3069-2.7382-2.6647-4.0755-4.8276-4.7551-6.1891-1.9445-17.97-0.23654-22.939 3.3257-1.9292 1.3829-4.8292 3.0527-6.4444 3.7105-1.6152 0.65783-4.1199 2.431-5.566 3.9404s-2.9902 2.7444-3.4314 2.7444c-0.44118 0-3.0457 1.6574-5.7878 3.6831-3.6185 2.6732-5.1479 4.4943-5.5773 6.6414-0.32541 1.627-1.4388 4.148-2.4743 5.6022s-1.8827 3.1062-1.8827 3.6711c0 0.56493-0.35781 1.0272-0.79512 1.0272s-1.5493 1.793-2.4711 3.9844c-0.92179 2.1914-2.2515 5.3138-2.9549 6.9386s-1.2932 3.3123-1.3107 3.75-0.84693 2.4833-1.8432 4.5458-1.8257 4.8853-1.8432 6.2728-0.45368 2.7835-0.96931 3.1022c-0.51562 0.31867-0.9375 2.2477-0.9375 4.2868s-0.36639 4.44-0.81421 5.3353c-0.44781 0.89535-1.397 3.5263-2.1094 5.8466-1.6325 5.3176-4.3802 6.0814-7.818 2.1733-1.2783-1.4531-2.3374-3.0996-2.3537-3.6589-0.0747-2.5662-9.6615-8.8223-13.533-8.8315-4.6349-0.011-18.575 5.6814-20.47 8.3588-0.65053 0.91908-2.7749 2.1936-4.7208 2.8323-5.2714 1.7302-9.5998 8.9999-11.629 19.531-1.8987 9.8548-1.8412 15.318 0.19742 18.769 1.6672 2.8223 11.912 8.7069 15.085 8.6647 1.0946-0.0145 4.0477 0.88772 6.5625 2.0051 6.1406 2.7284 14.662 3.5258 20.041 1.8754 2.3203-0.7119 9.2812-1.4809 15.469-1.7088zm22.565-19.002c-1.3742-1.5185-1.7759-3.8061-2.0244-11.53-0.34484-10.717 0.96768-16.902 4.6092-21.719 1.2125-1.6041 2.4768-4.307 2.8095-6.0065s1.6663-4.4815 2.9635-6.1822 2.3586-3.5046 2.3586-4.0086 1.2539-2.5736 2.7864-4.599 2.7982-4.0477 2.8125-4.494c0.0143-0.44624 2.3304-5.5087 5.1468-11.25 3.6431-7.4266 6.3456-11.588 9.3655-14.423 2.3347-2.1914 4.46-3.9844 4.7231-3.9844 1.2894 0 0.2587 3.8015-1.2496 4.6087-3.3367 1.7858-9.3057 11.003-12.818 19.794-1.9512 4.8834-4.0756 9.5116-4.721 10.285-1.9275 2.31-6.9831 13.631-6.9831 15.638 0 1.0243-0.31166 2.174-0.69258 2.5549-0.74926 0.74926-0.91559 3.5089-1.4179 23.526l-0.32939 13.125-2.8123 0.27986c-1.891 0.18819-3.374-0.3407-4.5267-1.6145zm-154.52 20.319c0.50957-0.64453 1.1355-2.332 1.391-3.75 0.41545-2.3056 0.18907-2.5781-2.1413-2.5781-3.8896 0-5.5717 0.9189-5.5717 3.0438 0 3.325 4.4585 5.6412 6.3219 3.2843zm-64.483-1.5088c1.785-0.3683 6.2147-0.37909 9.8438-0.024 3.6291 0.3551 11.307 0.86666 17.061 1.1368 12.475 0.58562 14.501-0.17733 12.608-4.7473-0.64166-1.5491-2.1812-3.2788-3.4212-3.8438-2.5073-1.1424-3.2739-3.4765-2.9755-9.0598 0.17031-3.1858-0.0992-3.7928-1.7912-4.0342-1.4882-0.21232-2.4515 0.60204-3.811 3.2216-2.2469 4.3297-12.268 10.21-15.863 9.308-4.652-1.1676-1.8138-6.4573 4.5832-8.5421 5.8678-1.9123 9.5232-14.898 7.1123-25.266-1.7683-7.6046-4.6655-15.276-6.3104-16.709-0.84272-0.73421-3.2197-1.8651-5.2822-2.5131-2.0625-0.64801-4.1719-1.4872-4.6875-1.8648-1.844-1.3505-12.281-1.7399-17.391-0.64882-5.0839 1.0855-14.819 7.3263-14.913 9.5601-0.0823 1.9561-8.7584 14.52-10.027 14.52-2.3957 0-2.3706-2.5692 0.0756-7.7398 1.3263-2.8036 2.4114-5.5897 2.4114-6.1915 0-0.60177 0.52427-1.9336 1.165-2.9596 1.6789-2.6884-0.11634-5.0127-4.4116-5.7117-1.9312-0.31427-3.8827-1.158-4.3367-1.875-1.1115-1.7552-1.0685-6.0595 0.0832-8.3476 0.51562-1.0243 1.3592-2.7 1.8745-3.7238 1.04-2.066 1.5808-13.215 0.7095-14.625-0.30496-0.49343-0.83417-2.7724-1.176-5.0645s-1.0094-4.8921-1.4835-5.7779c-0.4741-0.88586-0.86199-2.2993-0.86199-3.1411s-1.0072-2.8734-2.2382-4.5148-3.3127-5.3046-4.6261-8.1406c-1.7419-3.7612-4.0532-6.5441-8.5431-10.286-3.3854-2.8214-6.1552-5.7152-6.1552-6.4306 0-1.0268-1.5017-1.2248-7.1325-0.94051-6.5769 0.33212-7.3093 0.57742-9.402 3.1493-1.2483 1.534-3.734 4.4304-5.5238 6.4364s-3.2542 4.4069-3.2542 5.3353c0 0.92841-0.42187 1.9488-0.9375 2.2674-0.51562 0.31868-0.9375 1.2077-0.9375 1.9756 0 0.76792-0.84375 3.1426-1.875 5.277s-1.875 5.0024-1.875 6.3732-0.66833 3.8321-1.4852 5.4695c-1.0754 2.1556-1.2952 4.0709-0.79651 6.9409 0.37877 2.1801 0.63632 6.2696 0.57234 9.0879-0.0708 3.1166 0.42493 5.9501 1.2653 7.2326 0.75987 1.1597 1.3816 2.9155 1.3816 3.9018 0 0.98626 0.63281 2.3184 1.4062 2.9603s1.4062 2.2555 1.4062 3.5858c0 1.4456 1.1938 3.6503 2.9673 5.4802 2.4744 2.553 2.7153 3.1582 1.4497 3.6439-0.83469 0.3203-2.4631-0.08-3.6188-0.88936-1.4388-1.0078-3.1886-1.2979-5.5507-0.92013-2.0919 0.3345-3.7022 0.14287-4.0914-0.48689-0.35301-0.57117-1.3552-1.0405-2.2271-1.043-0.87191-3e-3 -3.1908-1.479-5.1531-3.2812s-3.9534-3.2768-4.4246-3.2768c-0.47126 0-2.359-0.84375-4.1951-1.875-3.5318-1.9837-9.3396-2.5117-10.312-0.9375-0.31868 0.51562-1.3054 0.9375-2.1928 0.9375-0.88737 0-3.0173 1.4884-4.7331 3.3075-2.8833 3.0568-3.1465 3.8562-3.4728 10.547-0.30908 6.337-0.0732 7.7068 1.8923 10.989 1.235 2.0625 3.18 5.5752 4.3223 7.8059 1.3998 2.7335 3.1846 4.5675 5.4743 5.625 1.8685 0.86298 3.6083 1.78 3.8661 2.0378s2.1531 1.3125 4.2117 2.3438c2.4195 1.212 4.4179 3.1765 5.652 5.5559 1.2738 2.4561 2.8359 3.9606 4.6946 4.5217 1.532 0.46244 3.6292 1.1958 4.6605 1.6297 1.0312 0.43392 3.5625 1.2088 5.625 1.722s6.0097 1.7949 8.7716 2.8481 8.2462 2.3846 12.188 2.9586c3.9413 0.57396 10.617 1.6486 14.834 2.3881 4.2176 0.73952 9.0903 1.3446 10.828 1.3446s3.6023 0.44259 4.1433 0.98353c0.54095 0.54095 4.9138 1.0022 9.7175 1.025s9.6134 0.368 10.688 0.76706c2.1789 0.8089 18.906 0.27196 23.95-0.76881zm-51.624-29.897c-0.67814-2.0205-1.0957-7.1098-0.98193-11.967 0.1812-7.734-4e-3 -8.7243-2.174-11.667-1.3046-1.7683-2.3738-3.8714-2.376-4.6736-2e-3 -0.80217-1.266-3.3569-2.8085-5.6772s-2.8063-4.6867-2.8085-5.2587c-2e-3 -0.57197-1.4765-2.8923-3.2762-5.1562-1.7997-2.264-3.2762-4.8029-3.2812-5.6422-0.0112-1.8891-1.5992-3.1922-4.8276-3.9618-3.0965-0.73815-4.0032-2.9006-2.0395-4.8642 1.3748-1.3748 1.9565-1.045 6.9767 3.9572 3.0123 3.0014 5.4835 5.7437 5.4915 6.094 8e-3 0.35025 1.746 3.2434 3.8621 6.4293s4.6424 7.5897 5.6141 9.7862c0.97163 2.1965 2.3392 4.4689 3.039 5.0496 3.1599 2.6225 6.3473 14.55 5.7589 21.55-0.38482 4.5777-2.5812 9.517-4.232 9.517-0.41633 0-1.288-1.582-1.9369-3.5156zm-80.551 8.2154c2.3483-1.2568 1.3868-4.5866-1.4953-5.1788-1.2274-0.25217-3.2577-0.67026-4.5117-0.9291-1.7213-0.35529-2.4312 6e-3 -2.897 1.4734-1.2814 4.0374 4.4478 7.0194 8.9041 4.6344zm483.3-1.2935c1.0312-0.16103 3.2251-0.9933 4.8753-1.8495 1.6502-0.85621 3.4959-1.5567 4.1015-1.5567 0.60567 0 3.587-1.1156 6.6252-2.479 4.2061-1.8876 5.6628-3.0618 6.1059-4.9219 0.32007-1.3436 0.88747-2.8648 1.2609-3.3804 0.37342-0.51563 0.97422-2.1698 1.3351-3.676s1.4737-3.7779 2.473-5.0483c0.99929-1.2704 1.8169-2.9711 1.8169-3.7794 0-0.80827 1.2131-2.7553 2.6959-4.3267 1.4827-1.5714 4.4709-6.2321 6.6404-10.357 3.6032-6.851 7.7711-11.705 16.997-19.795 1.2433-1.0902 3.2541-3.0942 4.4684-4.4531 2.82-3.156 10.114-8.0959 11.955-8.0959 2.8753 0 6.6866-5.6197 7.8539-11.58 0.62074-3.1698 1.9188-8.0836 2.8846-10.92 1.6502-4.8457 3.9559-22.235 3.1276-23.588-0.20849-0.34056-0.44943-2.4146-0.53541-4.6089-0.086-2.1943-1.0616-5.9235-2.1681-8.287-1.1064-2.3635-2.4817-5.9848-3.0562-8.0474-3.3897-12.171-4.5233-15.552-6.9148-20.625-1.5193-3.2227-4.1994-6.9284-6.2755-8.677-4.8754-4.1063-11.914-10.591-17.047-15.706-2.3203-2.312-6.1172-5.4819-8.4375-7.0442-18.825-12.675-20.625-14.037-20.625-15.603 0-0.71398-1.0137-1.6836-2.2527-2.1546-1.239-0.47105-2.5338-1.3112-2.8773-1.8671-0.34353-0.55584-1.0166-0.76835-1.4957-0.47226-0.4791 0.2961-1.8094-0.11889-2.9563-0.92221-1.1469-0.80331-2.8594-1.4606-3.8056-1.4606s-3.489-0.98633-5.6508-2.1918c-5.9168-3.2996-15.458-6.3757-21.535-6.9428-2.9795-0.27808-5.6411-0.86779-5.9147-1.3105-0.27359-0.44268-2.0708-0.80488-3.9939-0.80488-1.923 0-5.1058-0.82048-7.0727-1.8233-1.967-1.0028-6.5913-2.5448-10.276-3.4266-3.685-0.88182-7.9657-2.1209-9.5126-2.7535-5.8032-2.3733-9.5604-3.103-15.938-3.0956-3.6094 0.0042-7.7501-0.44993-9.2017-1.0092-1.4515-0.55925-4.4852-1.0168-6.7415-1.0168s-4.3631-0.42188-4.6818-0.9375-2.2171-0.9375-4.2188-0.9375-3.9153-0.44657-4.2527-0.99239c-0.33733-0.54581-1.7333-0.76019-3.1022-0.47638-1.3689 0.2838-10.504 0.72834-20.301 0.98787-9.7969 0.25953-21.609 0.85212-26.25 1.3169-13.159 1.3179-41.564 0.47445-48.041-1.4265-4.0056-1.1757-9.5056-1.6246-21.334-1.7413-8.8669-0.08747-17.002-0.60439-18.337-1.1652-9.9815-4.1937-44.845-9.2109-56.663-8.1546-11.338 1.0134-20.354 2.0732-24.113 2.8344-1.4027 0.28408-5.6214 0.07262-9.375-0.46992-11.769-1.701-33.092-1.8828-48.075-0.40982-7.7344 0.76038-16.663 1.5225-19.84 1.6936-8.0879 0.43543-13.227 1.3719-18.128 3.3036-2.3203 0.91441-6.5391 2.3565-9.375 3.2045-13.437 4.0183-20.095 6.2917-21.261 7.2591-0.70001 0.58095-2.0034 1.1159-2.8965 1.1888-0.89305 0.07291-3.3112 1.0042-5.3737 2.0694s-6.7031 2.9319-10.312 4.1481c-3.6094 1.2162-7.6172 2.9088-8.9062 3.7615-1.2891 0.85266-4.4531 2.7105-7.0312 4.1285s-7.5408 4.7479-11.028 7.3997c-3.4874 2.6518-6.6839 4.8214-7.1034 4.8214-0.41943 0-2.0715 1.3089-3.6713 2.9087s-4.5205 3.6592-6.4904 4.5764c-6.5118 3.0319-14.271 8.1731-15.756 10.439-0.80427 1.2275-1.933 2.2318-2.5082 2.2318-1.1307 0-11.874 8.552-18.06 14.377-2.1006 1.9778-4.6629 4.2999-5.6942 5.1603-1.0312 0.86038-3.5533 3.6719-5.6046 6.2478s-5.4263 6.5029-7.5 8.7266-4.1513 4.8604-4.6168 5.8594c-0.46552 0.99895-1.1526 1.8163-1.5269 1.8163-0.37428 0-1.2048 1.2656-1.8455 2.8125-0.64073 1.5469-1.5164 2.8125-1.946 2.8125-0.42959 0-2.2768 3.1521-4.105 7.0046-2.8782 6.0653-3.324 7.9367-3.324 13.955 0 4.3423-0.52556 7.9585-1.4005 9.636-0.77026 1.4769-1.4031 3.607-1.4062 4.7336-0.0028 1.1266-0.46331 3.236-1.0225 4.6875-1.3525 3.5106-1.2687 14.68 0.15365 20.481 3.4257 13.972 11.954 20.927 18.931 15.439 1.311-1.0312 2.6832-1.875 3.0492-1.875s2.353-1.6875 4.4155-3.75 4.3812-3.75 5.1527-3.75c2.618 0 8.2784-3.8556 9.3762-6.3867 3.4254-7.8971 5.2683-15.991 5.0128-22.016-0.10772-2.54 3.6802-11.322 7.3609-17.066 0.99125-1.5469 1.8331-3.5206 1.8708-4.3862 0.0377-0.86552 0.59586-2.1311 1.2404-2.8125 0.64453-0.68137 1.9277-2.7154 2.8515-4.5201 2.4197-4.727 8.0759-12.319 12.148-16.307 5.8907-5.7682 3.8664-8.9856-3.2118-5.1046-5.6818 3.1154-7.0838 4.2553-13.65 11.1-3.2156 3.3516-7.4687 7.7812-9.4514 9.8438-1.9826 2.0625-6.1017 7.6192-9.1534 12.348-3.0517 4.729-6.7138 9.291-8.1379 10.138-3.1728 1.8865-6.3169 1.092-6.3169-1.5963 0-3.7681 4.897-11.905 10.417-17.308 3.0656-3.0009 6.6227-6.9644 7.9047-8.8078 2.9579-4.2531 17.67-19.614 18.799-19.627 0.46652-6e-3 2.9576-1.9836 5.5357-4.3959 2.5781-2.4122 7.2049-6.5072 10.282-9.0999 3.0769-2.5927 6.3464-5.4661 7.2656-6.3854s2.1986-1.6717 2.8432-1.6721c0.64453-4.6e-4 2.8085-1.688 4.8089-3.75s4.3938-3.7492 5.3187-3.7492c0.92492 0 2.8742-0.96386 4.3317-2.1419 5.1704-4.179 25.538-13.199 34.525-15.29 6.9246-1.611 13.772-3.6516 21.094-6.2858 4.8984-1.7624 10.805-3.7342 13.125-4.3818s6.5918-2.1838 9.4922-3.4138 5.769-2.2365 6.3747-2.2365c0.60565 0 2.3871-0.66498 3.9588-1.4777 1.5717-0.81276 3.7179-1.6434 4.7694-1.8459 1.0514-0.20249 2.5922-0.94334 3.424-1.6463 2.0579-1.7394 7.4121-4.0675 11.185-4.8632 3.6633-0.7727 6.7339 1.3738 6.7339 4.7074 0 4.9586 5.9935 4.9879 12.453 0.06084 1.7559-1.3393 4.0495-2.4351 5.0968-2.4351 1.8075 0 8.0642-2.664 15.263-6.4985 12.19-6.4935 23.256-10.485 37.111-13.386 4.3914-0.9194 4.9619-0.82835 7.244 1.1559l2.4773 2.1539-3.0253 2.2744c-3.5569 2.674-6.3744 3.8753-10.406 4.4368-1.6126 0.2246-6.5935 1.8626-11.069 3.64-4.475 1.7774-8.3518 3.0163-8.6149 2.7532-0.80704-0.80704-17.093 5.6644-23.092 9.1762-0.77344 0.45272-3.7266 1.9678-6.5625 3.367-2.8359 1.3991-6 3.2795-7.0312 4.1786s-2.0859 1.5882-2.3438 1.5312c-1.2607-0.27873-14.757 6.7715-16.317 8.5237-0.98225 1.1033-2.2024 2.006-2.7114 2.006-1.6339 0-22.029 17.695-32.012 27.774-8.5726 8.655-12.549 13.292-14.322 16.702-0.78828 1.516-2.1788 3.4144-3.09 4.2188-0.91121 0.80432-2.7861 4.8374-4.1664 8.9624s-3.1137 8.4344-3.852 9.5764c-0.73831 1.142-1.3424 3.5429-1.3424 5.3353s-0.37514 3.4908-0.83364 3.7741c-0.45851 0.28338-1.0949 1.556-1.4141 2.828-0.73987 2.9478-4.235 6.7417-6.6609 7.2301-1.3657 0.27499-1.7981 1.0035-1.5973 2.6915 0.66204 5.5662 0.60474 6.9929-0.27529 6.8544-0.51563-0.0812-1.7253-0.29213-2.6882-0.46875-2.6821-0.49198-4.0577 2.3338-2.5277 5.1925 1.1705 2.187 1.7212 2.3459 7.7475 2.2341 6.2768-0.1164 6.5707-0.22887 9.0544-3.4653 1.4119-1.8397 3.3542-4.6106 4.3163-6.1575 0.96209-1.5469 3.262-4.315 5.111-6.1513l3.3617-3.3388 9.4732 0.66296c7.8962 0.5526 10.117 1.0694 13.341 3.1044 2.1271 1.3428 4.2518 2.4415 4.7215 2.4415 0.46971 0 4.3804 3.7888 8.6905 8.4196 7.9705 8.5636 13.761 17.495 13.87 21.395 0.0422 1.5092 0.87456 2.442 2.7682 3.1021 2.6006 0.90659 2.6673 1.0759 1.6846 4.2777-0.88434 2.8814-0.7878 3.5059 0.71156 4.6022 0.9541 0.69766 2.062 1.0662 2.462 0.819 1.2705-0.78522 2.0457-6.1913 1.033-7.204-0.66257-0.66256-0.27561-2.0312 1.2328-4.3605 2.4287-3.7504 4.6343-11.646 5.6618-20.27 0.36864-3.0938 1.1856-6.8906 1.8154-8.4375 2.4136-5.9277 3.5283-12.573 2.57-15.322-0.83859-2.4056-0.66101-2.8315 1.7822-4.2748 1.4925-0.88163 2.7136-2.366 2.7136-3.2985 0-0.93256 0.84375-2.7682 1.875-4.0792 1.0312-1.311 1.875-2.8502 1.875-3.4204 0-1.2282 1.7809-4.5357 3.75-6.9647 0.77344-0.95404 2.25-3.335 3.2812-5.2911 1.0312-1.956 2.6731-5.0394 3.6486-6.852 0.97898-1.8191 1.4997-4.0093 1.1623-4.8886-0.57193-1.4904-0.77675-1.4858-3.1799 0.0717-3.4255 2.2202-6.3794 5.6986-8.7105 10.257-1.0547 2.0625-3.7937 6.4922-6.0868 9.8438-3.9535 5.7785-4.9828 9.4108-4.2192 14.889 0.0993 0.71256-1.2776 2.8219-3.0599 4.6875-2.0159 2.1102-3.4835 4.764-3.8836 7.023-0.35375 1.9971-0.98943 4.3174-1.4126 5.1562-0.42319 0.83887-1.5545 3.1441-2.514 5.1226-2.7633 5.6983-9.7133 7.5339-9.7133 2.5655 0-0.86696 1.4766-3.0074 3.2812-4.7566s3.2812-3.6412 3.2812-4.2044 0.84375-2.6791 1.875-4.7018 1.875-4.369 1.875-5.2138c0-0.84487 1.1893-3.1814 2.6429-5.1924 2.3818-3.2951 3.2663-5.6049 5.708-14.906 0.40607-1.5469 1.7794-4.3386 3.0518-6.2039s3.853-6.5059 5.7346-10.312c1.9829-4.0116 5.7012-9.341 8.845-12.678 2.9832-3.166 6.9005-8.1748 8.7052-11.131 3.3242-5.4444 14.006-15.1 20.597-18.618 3.2025-1.7094 9.9592-7.2315 17.063-13.945 4.8996-4.6305 17.01-12.715 20.15-13.451 1.462-0.34274 4.1254-0.67394 5.9186-0.73599 3.1651-0.10953 3.3148 0.04742 5.1204 5.3682 1.8287 5.389 1.9114 5.4727 4.9163 4.9851 1.6809-0.27278 4.8611-1.7277 7.0671-3.2332s5.0655-2.9678 6.3546-3.2495 3.6798-1.0561 5.3127-1.7208c2.7425-1.1164 3.2788-0.99856 7.0312 1.5456 3.6515 2.4758 4.7823 2.7462 11.183 2.6746 5.0225-0.05616 7.7773-0.53959 9.3492-1.6406 4.6984-3.2909 13.061-0.58418 13.061 4.2274 0 0.94137 0.32785 1.7116 0.72857 1.7116 1.0678 0 20.293 17.269 27.136 24.375 2.8496 2.959 9.575 11.651 13.061 16.88 1.4672 2.2007 4.2409 6.3693 6.164 9.2637 3.0368 4.5708 7.8174 13.538 9.553 17.919 0.30641 0.77344 1.5461 3.0572 2.7549 5.075 1.7004 2.8384 2.2276 5.1724 2.3296 10.312 0.0725 3.6541 0.54509 8.0754 1.0502 9.8252 0.6413 2.2216 0.49057 7.2543-0.49962 16.681-1.4393 13.703-2.4334 18.106-4.0876 18.106-0.50502 0-1.1705 1.582-1.4788 3.5156-1.3805 8.6573-2.6236 11.844-6.7698 17.355-5.2823 7.0204-5.5422 7.2221-9.3282 7.2404-3.3845 0.0163-5.7058-1.8743-6.3937-5.2075-0.25858-1.253-0.68913-3.3329-0.95677-4.6219-0.41793-2.0129-0.99925-2.3438-4.1184-2.3438-2.0608 0-3.81 0.50691-4.0436 1.1719-0.77626 2.209 0.75417 5.8481 2.5961 6.173 3.7722 0.66545 6.2266 6.7176 2.7242 6.7176-1.719 0-4.1716 3.7054-4.1716 6.3024 0 1.87 0.47097 2.1352 3.7925 2.1352h3.7925l-0.5931 3.5156c-0.3262 1.9336-0.80045 4.2691-1.0539 5.19-0.67605 2.4566 7.7795 10.021 11.216 10.034 3.5193 0.0134 6.5474-3.433 8.0016-9.1068 0.64554-2.5187 1.7425-5.6758 2.4376-7.0157 0.69516-1.3399 1.7968-4.059 2.448-6.0425s2.0685-5.0828 3.1495-6.8875 2.6426-4.7578 3.4703-6.5625c7.491-16.334 13.992-25.695 18.538-26.694 1.4881-0.32684 4.3371-1.9578 6.3312-3.6243 7.0134-5.8613 14.281-9.1692 24.058-10.951 2.4723-0.45044 5.2988-1.0741 6.2813-1.3859 2.3264-0.73839 6.3129 1.3964 9.9142 5.3091 4.0096 4.3563 5.6509 7.2221 7.8148 13.646 1.6534 4.9081 1.8373 7.5333 1.5665 22.365-0.1743 9.5456 0.0809 17.548 0.59085 18.527 1.0657 2.0454 5.1854 1.4535 7.0718-1.0159 1.3903-1.82 1.5278-6.6802 0.28166-9.9576-1.1748-3.0899 0.10256-7.3347 3.1983-10.628 3.4566-3.6776 8.0044-13.526 8.0044-17.333 0-1.7568 0.42893-3.623 0.95317-4.1473 0.52425-0.52424 1.0146-5.5656 1.0896-11.203 0.14251-10.709-1.0586-16.693-4.7462-23.645-1.0152-1.914-2.6-6.0112-3.5218-9.105-2.3026-7.7279-7.7556-17.296-10.985-19.274-1.4735-0.90257-4.101-3.6411-5.839-6.0857-3.6-5.0634-4.9027-6.5738-10.466-12.135-2.1914-2.1903-3.9844-4.4264-3.9844-4.9691 0-1.6674-4.6497-6.619-6.838-7.282-1.1375-0.34463-2.912-1.3438-3.9432-2.2204-1.0312-0.87657-3.7734-2.3838-6.0938-3.3494s-4.8848-2.3093-5.6988-2.986c-0.81404-0.67667-1.8122-1.2303-2.2181-1.2303-0.40595 0-2.7496-1.4766-5.208-3.2812s-4.7663-3.2812-5.1286-3.2812-2.4151-1.1853-4.5619-2.6339c-10.453-7.0537-12.626-8.3685-15.46-9.3567-1.6814-0.58615-4.3303-1.9723-5.8864-3.0804-2.6927-1.9174-2.7439-2.0744-1.0612-3.253 1.3539-0.94834 2.74-1.0146 5.9176-0.28294 3.7874 0.87208 7.6833 0.68132 16.806-0.82291 1.8047-0.29757 4.125-0.47155 5.1562-0.38661s5.5079 0.31207 9.9481 0.50475c4.604 0.19978 9.4382 0.97911 11.25 1.8136 5.5279 2.5461 14.731 5.3106 17.679 5.3106 1.5631 0 2.8421 0.3707 2.8421 0.82376 0 0.45307 1.3711 1.3351 3.0469 1.96 1.6758 0.62494 4.7806 1.9418 6.8996 2.9262 2.119 0.98448 4.6767 1.79 5.6839 1.79 2.1845 0 11.139 4.1901 12.028 5.6281 0.34345 0.55571 2.382 2.1108 4.53 3.4557 2.1481 1.345 4.7493 3.2274 5.7806 4.1831 6.3855 5.9181 11.035 9.3597 16.379 12.125 3.3367 1.7264 8.1252 4.5242 10.641 6.2172 2.5159 1.6931 5.4972 3.0784 6.625 3.0784 2.5089 0 6.3689 3.3645 12.369 10.781 2.5028 3.0938 6.1508 7.3125 8.1067 9.375 3.0576 3.2242 9.738 15.204 8.9294 16.012-0.15249 0.15249-2.7619-2.0168-5.7986-4.8206-6.7509-6.2331-9.572-6.6706-12.15-1.8841-1.8218 3.3829-7.2806 8.2713-10.428 9.3383-4.8978 1.6604-7.5644 5.6487-7.1214 10.651 0.14414 1.6277 3.3771 1.4696 4.7913-0.23438 0.6419-0.77344 1.5373-1.4062 1.9898-1.4062s1.561-0.64822 2.4633-1.4405c6.6847-5.8692 13.472-9.134 15.264-7.3419 1.7639 1.7639 0.0145 3.5744-8.254 8.5422-4.5003 2.7038-9.1259 5.72-10.279 6.7025-2.0751 1.768-3.997 5.6271-3.997 8.0256 0 1.7575 5.5024 2.5713 9.3819 1.3875 1.8009-0.54953 4.5351-1.2234 6.076-1.4976 3.8773-0.68978 7.1336-2.5128 9.614-5.3823 2.6543-3.0706 3.9906-3.0938 3.9906-0.0693 0 1.5917-0.74207 2.702-2.2716 3.3989-2.6254 1.1962-3.8206 4.7374-2.4582 7.2831 0.79451 1.4846 2.0963 1.7649 8.3862 1.8062l7.4456 0.0488 0.54893-3.466c1.3634-8.609-0.19743-16.884-4.3062-22.83-2.0987-3.037-2.2769-5.6353-0.33536-4.8902 1.647 0.63203 6.9146 7.9144 9.067 12.535 4.6743 10.035 4.5786 9.3602 3.24 22.823-0.68739 6.9135-1.5153 13-1.8397 13.525-0.32446 0.52497-0.78592 3.9246-1.0255 7.5548-0.23954 3.6301-1.1168 8.8427-1.9493 11.583-1.9224 6.3281-6.1874 15.764-7.1251 15.764-0.94273 0-9.2517 15.268-9.2517 17 0 0.73782-2.3767 3.6482-5.2815 6.4674s-6.3299 6.497-7.6113 8.1728-2.6896 3.0469-3.1295 3.0469c-0.43984 0-2.1827 1.5041-3.8731 3.3424s-4.4445 4.6581-6.1203 6.2662c-2.1736 2.0858-3.0469 3.7701-3.0469 5.8764 0 3.9428 0.73206 4.4817 5.1562 3.7956 2.0625-0.31987 4.5938-0.71332 5.625-0.87434zm-551.32-4.3637c0.55314-0.55008 1.4634-2.3526 2.0227-4.0057 1.0131-2.9939 3.0181-4.4296 8.352-5.9805 1.5833-0.46035 3.6264-2.129 4.6875-3.8284 1.1983-1.9192 3.1608-3.4128 5.4077-4.1156 1.9397-0.60678 3.9966-1.6694 4.5709-2.3613 1.3066-1.5744 1.8794-15.849 0.80689-20.109-3.3254-13.212-2.7618-12.292-8.8501-14.445-3.0638-1.0832-6.8438-3.136-8.3999-4.5618-4.5365-4.1566-5.9991-4.6606-8.5924-2.9615-1.2545 0.82197-2.2809 1.2948-2.2809 1.0506 0-0.24414-1.4766 1.0765-3.2812 2.9347-1.8047 1.8582-3.2812 3.7034-3.2812 4.1004 0 0.39696-1.0272 1.9425-2.2827 3.4346-1.2555 1.492-3.0194 4.583-3.9198 6.8688-2.7911 7.0854-5.7859 7.541-8.7078 1.325-1.1514-2.4496-3.5225-5.3172-5.62-6.7969-1.9955-1.4078-4.4565-3.8252-5.4687-5.3721-6.3478-9.7002-7.751-12.269-7.751-14.19 0-2.2096-2.4012-4.091-5.2215-4.091-1.838 0-6.0285-4.1866-6.0285-6.0229 0-4.4843-6.5988-13.705-14.315-20.003-2.6425-2.1567-13.717-7.7244-15.365-7.7244-0.49775 0-2.5663-0.79512-4.5967-1.7669-5.4403-2.6038-10.745-3.1951-17.225-1.9201-6.1138 1.2028-8.1693 3.1038-7.077 6.5452 0.32292 1.0174 1.7604 2.4566 3.1943 3.1981 1.434 0.74152 5.2047 4.278 8.3793 7.8589 3.1747 3.5809 6.7878 6.7656 8.0292 7.0772 3.6249 0.9098 16.476 12.771 16.476 15.206 0 0.62971 0.41949 1.2856 0.93221 1.4574 2.7068 0.90738 30.005 27.391 30.005 29.109 0 0.75914 1.0599 2.606 2.3553 4.1042s2.7379 3.9896 3.2056 5.5364c0.46766 1.5469 1.2942 4.0781 1.8368 5.625 0.54255 1.5469 1.2021 3.9117 1.4658 5.2552 0.52947 2.6983 5.1817 8.0962 9.1835 10.655 1.418 0.90684 2.5781 2.1757 2.5781 2.8197 0 1.2721 5.6087 5.442 9.375 6.9701 2.8411 1.1526 13.999 0.51754 15.401-0.87663zm595.89-3.3072c1.2348-1.3144 4.3669-3.8118 6.9603-5.5499s7.0212-5.5143 9.8395-8.3915 5.5898-5.2314 6.1589-5.2314 3.5326-2.3621 6.5857-5.2492c3.1328-2.9625 8.0168-6.3672 11.211-7.8156 3.113-1.4115 6.3407-3.6053 7.1727-4.875 0.832-1.2698 3.2126-3.0752 5.2902-4.0121 2.4002-1.0823 3.9789-2.506 4.3299-3.9047 0.39248-1.5638 1.5796-2.4778 4.099-3.1562 3.8621-1.04 7.6847-4.0642 7.6847-6.0797 0-1.4352 2.5403-2.6864 3.8327-1.8877 1.1857 0.73279 5.9893-2.0836 12.284-7.202 2.9956-2.4359 6.7811-4.6096 8.6323-4.9569 1.8133-0.34018 4.4447-1.214 5.8475-1.9417 1.4028-0.72777 2.8827-1.1179 3.2887-0.86699 0.40601 0.25092 2.4234-0.40348 4.483-1.4542 2.0596-1.0508 4.6269-1.9105 5.7049-1.9105 1.0781 0 3.3097-1.4254 4.9592-3.1676 1.7554-1.854 4.3131-3.4095 6.1677-3.7509 1.7427-0.32085 4.9068-2.0807 7.0312-3.9108s4.39-3.7447 5.0345-4.2548c0.64454-0.51007 1.1719-2.1252 1.1719-3.5892 0-3.61-3.7108-5.2038-9.2288-3.964-2.1698 0.48752-4.7956 0.66398-5.8351 0.39214-1.9907-0.52058-17.174 2.0019-21.967 3.6497-1.5469 0.53171-4.2891 1.308-6.0938 1.7251-1.8047 0.41712-4.6601 1.1923-6.3455 1.7226-1.6853 0.53033-3.3005 0.92495-3.5893 0.87695-1.2774-0.2123-9.725 4.5315-9.7382 5.4686-0.0138 0.98437-4.8418 3.6762-10.575 5.896-1.4256 0.55196-3.0881 2.1699-3.6945 3.5955-1.7542 4.1237-4.413 6.6565-6.4331 6.1282-0.99459-0.26009-2.7583 0.14441-3.9194 0.89888s-4.8471 1.6162-8.1912 1.915c-5.2016 0.46477-6.3831 0.92306-8.176 3.1717-1.1527 1.4456-2.3461 3.7678-2.6519 5.1603-0.30586 1.3926-1.1618 3.0346-1.9021 3.649-0.7403 0.61439-1.346 1.598-1.346 2.1859 0 1.3653-8.0403 13.05-12.251 17.804-10.717 12.1-13.723 13.934-18.658 11.382-3.1294-1.6182-5.6539-0.76636-5.6539 1.9079 0 0.67347-0.61712 1.8416-1.3714 2.5959-0.75425 0.75426-2.2133 3.5871-3.2423 6.2952-2.0791 5.4716-1.5451 7.8176 2.0345 8.9391 1.1607 0.36366 3.1165 1.4469 4.3462 2.4072 2.9576 2.3097 4.0362 2.2063 6.7136-0.64369zm53.963-54.406c-0.97754-2.5474-0.66269-3.0282 2.7122-4.1421 1.8047-0.5956 3.2812-1.497 3.2812-2.003s0.42187-0.6594 0.9375-0.34072c2.039 1.2602 0.9673 5.0927-1.8284 6.5384-3.492 1.8058-4.3929 1.7965-5.1025-0.0526zm-604.37 53.122c1.7764-2.4948 1.8175-2.8669 0.46562-4.2188-1.8866-1.8865-3.1163-1.8704-5.2593 0.0689-2.1675 1.9616-2.2011 4.6343-0.0738 5.8734 2.4002 1.398 2.7272 1.2822 4.8675-1.7235zm191.41-0.36322c0.68644-2.587-0.43041-7.4882-2.2312-9.7913-0.99202-1.2688-4.3612-1.6154-4.5563-0.46875-0.0658 0.38671-0.21445 1.5469-0.33031 2.5781-0.11587 1.0312-0.51888 2.8449-0.89561 4.0303-1.0243 3.2232 1.7256 6.9441 4.858 6.5732 1.786-0.21147 2.6482-1.0098 3.1555-2.9216zm-202.67-2.8647c0.96324-1.7998 0.95069-2.589-0.0671-4.2188-2.2678-3.6313-8.6432-1.7852-9.2649 2.6828-0.4536 3.2596 0.0808 3.75 4.0868 3.75 3.3081 0 4.2799-0.41018 5.2452-2.214zm321.63-23.822c0-2.0709-2.9794-2.5361-4.3384-0.67743-1.7976 2.4583 7e-3 4.5927 2.5434 3.0086 0.98728-0.61656 1.795-1.6656 1.795-2.3312zm249.71-5.1357c3.3769-2.707 6.1586-5.4583 6.1816-6.1138 0.023-0.65559 1.1457-2.86 2.4948-4.8987s2.2061-4.3499 1.9044-5.1362c-2.2872-5.9603-20.413 8.5851-21.28 17.077-0.58016 5.6815 2.8222 5.3864 10.699-0.92796zm-503.78-2.4633c0-0.96811-0.63281-2.2854-1.4062-2.9273s-1.4062-2.3562-1.4062-3.8095c0-3.3263-1.0852-4.0102-4.1485-2.6145-3.0603 1.3944-3.0902 3.8902-0.0702 5.869 1.2891 0.84463 2.3438 2.1236 2.3438 2.8422 0 1.3103 1.3265 2.188 3.5156 2.3262 0.64453 0.0407 1.1719-0.71807 1.1719-1.6862zm70.639-2.6929c0.24921-0.90234 0.72594-3.6483 1.0594-6.1022 0.5532-4.071 0.41647-4.5342-1.5618-5.2905-1.8283-0.69895-2.3452-0.44046-3.2977 1.6491-1.2202 2.6768-1.6071 9.7413-0.58916 10.759 1.226 1.226 3.9438 0.59713 4.3893-1.0156zm18.369-1.5756c1.968-2.3713 1.3846-6.6953-1.4786-10.959-4.9754-7.4082-8.7652-5.8763-8.6058 3.4785 0.11111 6.5202 0.71473 7.5052 4.982 8.1291 1.5469 0.22618 3.0772 0.47445 3.4008 0.5517 0.32358 0.0772 1.0892-0.46309 1.7015-1.2008zm207.03-28.967c2.8616-4.24 6.769-15.614 6.769-19.704 0-1.3075 0.38255-2.6137 0.85011-2.9027 0.95897-0.59267 2.3151-15.804 2.1926-24.594-0.1125-8.0732-2.0234-19.92-3.7538-23.273-0.79836-1.5469-3.7044-6.103-6.4578-10.125-2.7534-4.0218-5.2767-8.3897-5.6072-9.7065-0.7307-2.9114-10.684-15.62-13.867-17.706-1.7851-1.1697-2.7225-1.2728-4.231-0.46543-2.6225 1.4035-2.4473 2.3792 0.97266 5.417 2.8488 2.5305 7.7408 10.84 6.8854 11.696-0.23785 0.23783 0.4139 1.1984 1.4483 2.1345s1.8808 2.1308 1.8808 2.6548c0 0.52401 0.56866 1.6188 1.2637 2.4328 1.171 1.3714 2.9315 6.8629 3.8932 12.144 0.22297 1.2243 0.97173 3.1228 1.6639 4.2188 2.4224 3.8355 4.6507 11.11 5.015 16.372 0.2021 2.9193 0.56321 7.3531 0.80245 9.853 0.27143 2.8362-0.0895 5.8004-0.95989 7.8836-0.83443 1.9971-1.1669 4.5537-0.82743 6.3631 0.33388 1.7797 0.14691 3.2846-0.45425 3.6562-0.56194 0.34729-1.0217 1.797-1.0217 3.2216s-0.67787 4.5796-1.5064 7.0112-1.29 5.2485-1.0255 6.2598c0.26448 1.0114 0.0607 2.0985-0.45281 2.4159-1.1806 0.72963-0.0457 7.1411 1.4301 8.0802 1.818 1.1568 2.2591 0.86798 5.0981-3.3386zm-297.9-3.0341c2.2067-5.8041 0.51807-10.651-3.2121-9.2197-2.0689 0.79391-3.4753 9.3353-1.8111 10.999 1.4474 1.4474 4.1619 0.48565 5.0232-1.7798zm548.98 3e-3c1.2335 0.30959 2.2428 0.16749 2.2428-0.31579s0.22025-1.4526 0.48944-2.1541c0.26919-0.70149-0.0968-2.0772-0.81336-3.0571-1.2417-1.698-1.5067-1.5906-5.6457 2.2888-5.0326 4.7169-5.5841 6.3304-1.4294 4.182 1.6715-0.86438 3.8695-1.2667 5.1562-0.94371zm-278.88-5.0313c3.1041-2.5364 1.3104-4.005-4.4444-3.6389-3.601 0.2291-4.6468 0.66648-4.9105 2.0538-0.68166 3.5862 5.6028 4.651 9.355 1.5851zm212.56-10.225c0.98974-3.1284 1.0402-4.6036 0.21919-6.4056l-1.0667-2.3411-3.0317 1.7639c-2.4395 1.4194-3.0893 2.4544-3.3266 5.2991-0.60762 7.2849 5.0178 8.5994 7.2058 1.6837zm-206.24-5.691c0.92539-0.5861 1.1135-1.7906 0.65838-4.2164-0.44908-2.3938-0.20891-4.0072 0.81391-5.4675 2.6178-3.7374 1.6108-9.1636-1.6962-9.14-3.8177 0.0273-4.8143 1.4668-4.6687 6.7434 0.0754 2.7286 0.16285 6.3491 0.19449 8.0458 0.0884 4.7432 1.5702 6.0158 4.6981 4.0348zm-18.833-11.136c3.8084-2.4954 6.3251-10.957 3.5729-12.013-2.2873-0.87772-9.1312 1.5384-11.453 4.0431-2.0404 2.2016-3.18 8.3896-1.7994 9.7702 0.84624 0.84623 7.54-0.39891 9.679-1.8004zm20.212-17.78c6.0278-6.1945 9.3364-13.567 8.6827-19.347-0.80187-7.0898-5.4569-10.897-6.7967-5.5592-0.67315 2.682-2.9106 6.2584-7.6933 12.297-3.1006 3.9148-3.7135 7.4618-2.0468 11.845 1.104 2.9036 5.3685 3.3186 7.8541 0.76415zm-46.434-5.2683c0.21803-1.0995-0.38239-1.5286-2.1388-1.5286-2.6153 0-3.8842 1.8665-2.9406 4.3254 0.51883 1.352 0.80367 1.3651 2.6784 0.12236 1.1538-0.76482 2.2343-2.0785 2.401-2.9192zm60.634 2.3776c0-1.6956-1.835-1.3861-2.1989 0.37095-0.20249 0.97754 0.14895 1.4061 0.9375 1.1433 0.69377-0.23126 1.2614-0.91266 1.2614-1.5142zm145.31-3.4339c2.5781-2.1712 6.6571-5.0842 9.0644-6.4732 3.8621-2.2284 6.4044-5.7993 6.4044-8.9956 0-1.1402-3.4566-4.691-4.5665-4.691-1.6356 0-6.5944 2.8853-12.503 7.2749-2.9428 2.1863-5.6893 3.9751-6.1033 3.9751-1.863 0-5.863 4.9972-6.4332 8.037-0.70169 3.7403-0.0733 4.7398 3.3559 5.3381 3.6666 0.6397 5.7385-0.21841 10.781-4.4653zm-293.29 1.5243c1.867-1.5594 2.5748-3.5336 2.3021-6.4212-0.0656-0.69547-1.4375-1.0933-3.5023-1.0157-2.9029 0.10912-3.5816 0.57567-4.6875 3.2226-1.7453 4.177-1.6445 4.8321 0.8162 5.3061 1.1602 0.22345 2.3203 0.4497 2.5781 0.50276 0.25781 0.0531 1.3798-0.66448 2.4933-1.5946zm-26.935-1.389c5.8821-1.373 7.4913-3.1267 5.9577-6.4926-1.3267-2.9118-7.1593-4.103-10.232-2.0897-2.5166 1.649-3.7843 6.5601-2.1894 8.4818 0.62437 0.75232 1.189 1.35 1.2548 1.3281s2.4098-0.5743 5.2089-1.2277zm-112.01-1.19c2.4987-0.95883 4.4895-5.676 3.3187-7.8636-2.2216-4.1511-8.433-0.79949-8.433 4.5504 0 3.8028 1.4279 4.7278 5.1142 3.3132zm411.18-4.6638c3.5828-1.8541 6.776-3.7947 7.0959-4.3123 0.31994-0.51767 2.979-2.4906 5.9089-4.3844 8.0847-5.2254 10.228-7.1261 10.809-9.5876 1.4844-6.2867-6.0632-6.1751-13.68 0.20236-2.653 2.2212-5.4334 4.128-6.1787 4.2374-0.74529 0.10938-2.0896 0.86359-2.9873 1.676-0.89772 0.81242-2.0209 1.4791-2.4959 1.4815-0.47502 3e-3 -2.1657 1.2248-3.7571 2.7166-4.9443 4.6347-6.5483 11.342-2.7125 11.342 0.81629 0 4.4156-1.517 7.9984-3.3711zm-249.42-5.0106c1.7122-1.216 2.3438-2.5214 2.3438-4.8446 0-2.7782-0.32828-3.2178-2.598-3.4786-1.4831-0.17042-3.9976 0.56646-5.8594 1.7171-2.6718 1.6513-3.2614 2.5826-3.2614 5.1517 0 4.5333 4.1363 5.175 9.375 1.4545zm62.334-5.6004c-1.0669-1.0865-1.5642-1.108-2.7552-0.11958-1.9357 1.6065-1.8434 3.5714 0.18732 3.9888 2.4467 0.50293 4.2271-2.1797 2.5679-3.8692zm-102.55-0.3499c5.6051-3.7732 6.9057-9.6763 2.6355-11.962-2.6488-1.4176-7.1547 1.5038-9.3762 6.079-2.2155 4.5627-2.2422 5.797-0.15192 7.0144 2.4054 1.401 3.3639 1.2436 6.8926-1.1318zm89.18-3.4565c1.4248-2.136 3.3498-3.5881 5.5927-4.2188 4.0535-1.1397 8.2564-4.8144 8.2564-7.2188 0-1.1561 0.69295-1.7116 2.1352-1.7116 1.1743 0 3.1782-0.73694 4.4531-1.6376 1.2749-0.90071 3.5117-2.2833 4.9707-3.0725 3.3586-1.8166 6.1069-6.124 4.7642-7.4667-0.53006-0.53006-6.2126-1.3788-12.628-1.886-6.4152-0.50723-12.616-1.1865-13.78-1.5095-2.0766-0.57635-7.7279 1.1437-7.7279 2.3521 0 0.33815-1.1602 1.9654-2.5781 3.616-4.3607 5.0763-6.7969 8.4519-6.7969 9.4177 0 3.7464 11.39 0.14205 18.526-5.8625 3.7475-3.1534 4.7443-3.0183 6.3658 0.86258 1.7326 4.1468 1.7207 4.2489-0.49762 4.2489-3.5976 0-9.4598 3.033-10.774 5.5741-0.85033 1.6444-2.6028 2.9172-5.009 3.6381-4.3304 1.2974-5.5771 2.5712-6.3632 6.5017-0.50066 2.5033-0.28726 2.9268 1.6351 3.2454 3.4373 0.56963 7.0762-1.3056 9.4555-4.8728zm-204.42 3.4915c3.2193-2.5738 2.45-8.2031-1.121-8.2031-3.1378 0-4.9948 5.8666-2.6114 8.25 1.4144 1.4144 1.9125 1.4081 3.7324-0.0469zm395.92-0.70312c0.93327-1.0312 2.203-1.875 2.8217-1.875 1.3529 0 14.781-6.7074 16.826-8.4047 1.5771-1.3089 1.9593-5.2297 0.59218-6.0747-1.998-1.2348-8.5715-0.76595-10.224 0.72923-0.94597 0.85608-2.9539 1.6369-4.462 1.7351s-3.7968 0.88798-5.0858 1.7551-3.2017 1.8423-4.2503 2.1671c-2.1209 0.65693-5.1247 5.15-5.1247 7.6655 0 3.8776 6.0624 5.4449 8.9062 2.3024zm-142.36-2.6232c1.6241-0.87758 4.5033-2.397 6.3983-3.3764 6.4682-3.343 7.5376-8.2718 2.972-13.698-1.3637-1.6207-2.4795-3.2315-2.4795-3.5795 0-1.2726-8.066-4.8089-11.437-5.014-4.0654-0.24748-7.3132 2.1552-7.3132 5.4102 0 1.1778-1.6875 4.0912-3.75 6.4742s-3.75 4.7422-3.75 5.2427c0 2.0098 3.3062 2.0149 6.7889 0.0105 3.4521-1.9868 3.7828-2.0178 6.0032-0.56296 2.0654 1.3533 2.2752 1.9811 1.7335 5.1872-0.59405 3.5162-0.12184 5.6405 1.2329 5.5463 0.35628-0.0247 1.9766-0.76305 3.6007-1.6406zm-267.98-0.89248c-0.17378-0.90234-0.93721-1.6406-1.6965-1.6406s-1.5228 0.73828-1.6965 1.6406c-0.22168 1.1511 0.28451 1.6406 1.6965 1.6406s1.9182-0.48952 1.6965-1.6406zm193.81-2.5355c2.7452-2.7452 2.9066-4.3697 0.5787-5.8235-2.7485-1.7164-7.6526 1.0619-7.6526 4.3355 0 1.3965 0.28125 2.8204 0.625 3.1642 1.3022 1.3022 4.232 0.54069 6.4489-1.6761zm-46.671-2.309c0.89535-0.47306 3.8501-1.9575 6.5662-3.2988 2.716-1.3413 7.2625-4.2238 10.103-6.4055 4.1302-3.172 5.113-4.4364 4.9055-6.3105-0.30142-2.7217-3.6913-3.6953-6.0502-1.7376-1.5658 1.2995-8.5211 5.1424-15.069 8.3257-2.1914 1.0654-3.9844 2.4985-3.9844 3.1847 0 0.68617-0.63281 1.7728-1.4062 2.4147-2.0467 1.6986-1.7218 3.5588 0.70312 4.0259 1.1602 0.22345 2.2206 0.46373 2.3565 0.53395 0.1359 0.0702 0.97965-0.25938 1.875-0.73243zm-155.34-2.53c2.8006-0.83334 6.746-1.6757 8.7675-1.8719 2.0215-0.19622 4.6262-0.97973 5.7883-1.7411 2.1998-1.4414 3.8043-4.885 2.7619-5.9274-0.95213-0.95212-17.495-1.0336-21.219-0.10446-4.4079 1.0998-7.4132 3.7874-7.4132 6.6294 0 4.7232 2.941 5.507 11.314 3.0155zm184.96-3.6411c0.96143-2.5055-0.41836-4.3388-3.0369-4.0351-1.8974 0.22004-2.526 0.87338-2.755 2.8632-0.26448 2.2986 4e-3 2.5781 2.4778 2.5781 1.6014 0 3.0026-0.59459 3.3141-1.4062zm-153.02-1.1624c1.5188-0.89715 3.0206-2.6901 3.3373-3.9844 0.31678-1.2943 1.565-3.2823 2.7739-4.4178s2.1979-2.5199 2.1979-3.0763c0-1.6122-2.7556-2.2309-4.9851-1.1194-1.1254 0.56102-3.6419 1.656-5.5922 2.4332-3.6557 1.4569-6.6223 6.1089-5.598 8.7784 0.39931 1.0406 2.9582 2.624 4.7807 2.9581 0.17826 0.0327 1.5667-0.6746 3.0855-1.5718zm173.11-5.7648c2.3494-1.2574 5.8194-5.9578 5.8194-7.8828 0-1.9403-2.4526-2.6829-6.454-1.954-4.5466 0.82822-8.1972 3.5276-8.978 6.6387-1.1248 4.4814 4.0177 6.1923 9.6125 3.1981zm196.13-4.4452c2.3203-0.23728 9.4922-0.52481 15.938-0.63895 6.4453-0.11415 12.246-0.54179 12.891-0.9503 0.64454-0.40853 1.1719-1.9782 1.1719-3.4882 0-2.1888-0.76931-3.2311-3.7948-5.141-2.0871-1.3175-4.0159-2.9717-4.2861-3.6759-0.27023-0.70422-1.7266-1.7921-3.2365-2.4175-1.5098-0.6254-2.7451-1.4597-2.7451-1.854 0-0.39431-1.582-1.4438-3.5156-2.3323-1.9336-0.88842-4.6059-2.1349-5.9384-2.77-1.3325-0.63507-4.3911-1.7359-6.7969-2.4462-2.4057-0.71034-4.3741-1.6213-4.3741-2.0244 0-0.40305-1.1602-0.74777-2.5781-0.76605-1.418-0.0183-3.6328-0.63613-4.9219-1.373s-4.3534-1.3548-6.8096-1.373c-2.4562-0.0183-5.1984-0.42138-6.0938-0.8958-6.6705-3.5345-12.944-5.0288-21.297-5.0724-9.4316-0.0492-11.738 0.8286-11.738 4.4681 0 2.6647 4.1625 6.3824 8.9062 7.9546 2.0625 0.68354 4.3828 1.7704 5.1562 2.4152 0.77344 0.64484 2.9883 1.6804 4.9219 2.3012s3.5156 1.4502 3.5156 1.843c0 0.39286 1.0414 1.1888 2.3142 1.7687 3.4711 1.5816 7.7052 5.6505 8.9123 8.5648 0.94788 2.2884 2.7063 3.6509 10.659 8.2589 1.2255 0.71009 3.4967 0.95539 5.7708 0.62326 2.0625-0.30122 5.6484-0.74181 7.9688-0.97909zm-401.02-4.2478c3.5106-4.1325 1.4904-6.2002-4.4363-4.5408-3.2349 0.90572-4.1495 1.6353-4.5272 3.6114-0.26036 1.362-0.25293 2.8331 0.0165 3.269 0.83969 1.3586 7.2234-0.31073 8.947-2.3397zm50.617-4.6572c3.2038-1.7146 12.346-11.056 11.575-11.827-1.305-1.3043-8.9386-0.57493-10.704 1.0228-0.94243 0.85289-2.345 1.5507-3.1169 1.5507-2.9255 0-7.6097 7.8706-5.7756 9.7046 0.97581 0.97581 5.8701 0.70082 8.0218-0.45072zm213.34-14.129c2.4283-2.4283 1.2645-5.3903-3.2402-8.2471-2.4009-1.5226-5.51-4.1396-6.9092-5.8157l-2.544-3.0473-6.2624 1.0727c-7.7311 1.3243-9.3356 2.5019-8.5771 6.2948 0.6276 3.138 4.8346 8.0552 6.8918 8.0552 0.72632 0 2.5182-0.70743 3.9819-1.5721 2.3173-1.3689 2.8675-1.3992 4.2566-0.23437 1.6721 1.4021 8.6021 4.4766 10.293 4.5666 0.54141 0.0288 1.4906-0.45387 2.1094-1.0726zm-45.693-5.4943c1.2216-1.2216 1.8247-2.8588 1.6406-4.4531-0.25622-2.2187-0.74743-2.5548-4.092-2.8006-2.757-0.2026-4.4949 0.26667-6.3281 1.7087-3.3406 2.6277-3.1895 4.3694 0.51957 5.9915 4.2759 1.87 6.0389 1.7747 8.2599-0.44638zm-29.119-8.4445c0-1.3655-0.65633-1.8112-2.6672-1.8112-4.3332 0-8.4567 6.1469-4.5466 6.7776 2.704 0.43615 7.2138-2.6687 7.2138-4.9664zm102.08-34.859c7.1001-3.0332 7.1481-3.0776 8.8727-8.2042 1.5109-4.4914 1.5851-5.7576 0.57649-9.842-2.0668-8.3697-8.5027-19.245-13.331-22.525-1.9312-1.3123-3.5112-2.7513-3.5112-3.1979s-1.3437-1.2804-2.986-1.8529-3.6462-1.5957-4.4531-2.2737c-0.80691-0.67804-3.23-1.7354-5.3847-2.3496-2.1546-0.61427-6.5843-2.7347-9.8438-4.7122-7.1436-4.3339-9.2272-4.8019-23.955-5.38-7.9259-0.31115-12.116-0.10218-13.572 0.67683-1.1582 0.61982-3.3813 1.4442-4.9403 1.8319-1.559 0.38773-6.4205 2.0239-10.803 3.636-4.3828 1.6121-8.7648 3.1142-9.7378 3.3381-0.97296 0.22388-2.4827 1.053-3.3551 1.8424-0.87233 0.78944-1.9761 1.4354-2.4528 1.4354-1.1056 0-6.0169 5.1703-6.0169 6.3343 0 0.48272-0.64996 2.1805-1.4444 3.7729-2.5472 5.1061-0.46239 15.657 4.0234 20.362 0.98331 1.0312 4.0245 2.7188 6.7582 3.75 2.9186 1.101 5.5717 2.8425 6.4271 4.2188 2.9588 4.7602 5.0873 6.5413 7.1873 6.0143 1.1193-0.28092 5.7998 0.22028 10.401 1.1138 10.418 2.0229 12.086 2.1881 27.116 2.6844 6.7031 0.22136 13.664 0.68888 15.469 1.0389s4.7074 0.77865 6.4505 0.95245 3.4306 0.58657 3.75 0.91726c1.2916 1.3373 12.051-0.71712 18.754-3.5811zm-27.319-8.7543c-0.19131-0.19132-4.1181-0.52702-8.7262-0.74601-4.6081-0.21898-9.0111-0.63145-9.7846-0.91658-0.77344-0.28513-3.5156-0.92536-6.0938-1.4227-13.912-2.6838-22.969-6.4798-22.969-9.6268 0-1.7957 0.35887-1.9184 3.9379-1.3461 2.1658 0.34633 4.3945 1.0087 4.9527 1.4719 1.3847 1.1492 24.699 0.49142 27.906-0.78729 3.9374-1.5702 6.5224-6.3756 5.8735-10.918-1.2936-9.0555-1.2293-9.3482 2.1225-9.6708 3.908-0.37606 9.3494 3.4757 14.393 10.188 4.0628 5.4071 4.3187 6.8743 2.0342 11.665-2.8598 5.997-11.814 13.942-13.647 12.109z"/>
</svg>
