<?xml version="1.0" ?>
<!-- Uploaded to: SVG Repo, www.svgrepo.com, Generator: SVG Repo Mixer Tools -->
<svg width="800px" height="800px" viewBox="0 0 512 512" version="1.1" xml:space="preserve" xmlns="http://www.w3.org/2000/svg" xmlns:xlink="http://www.w3.org/1999/xlink">
<style type="text/css">
	.st0{display:none;}
	.st1{fill:#FFE2D2;}
	.st2{fill:#FFDE83;}
	.st3{fill:#F57070;}
	.st4{fill:#DBDBEF;}
	.st5{fill:#BCE2FF;}
	.st6{fill:#48446D;}
	.st7{fill:#6E78FF;}
	.st8{fill:#FFBE83;}
	.st9{fill:#F5949E;}
	.st10{fill:#D0FF67;}
	.st11{fill:#C69C6D;}
	.st12{fill:#C5BDD3;}
	.st13{fill:#FFE2B8;}
	.st14{fill:#F54670;}
</style>
<g class="st0" id="Layer_1"/>
<g id="Layer_2">
<g>
<path class="st7" d="M453.72,150.08c-0.87,1.72-2.35,2.99-4.19,3.6c-1.83,0.59-3.78,0.45-5.5-0.42c-1.71-0.87-2.99-2.36-3.59-4.18    l-5.89-17.99c-0.88-2.69-3.3-4.58-6.12-4.8c-2.83-0.21-5.5,1.29-6.78,3.82l-42.96,84.85c-1.6,3.16-0.59,7.02,2.37,8.99    c32.09,21.32,51.27,57.02,51.32,95.49c0.03,23.81-7.26,46.71-21.1,66.23c-2.23,3.15-1.49,7.52,1.67,9.75    c0.05,0.04,0.11,0.07,0.17,0.11c0.14,0.09,0.28,0.18,0.42,0.27c0.15,0.09,0.3,0.15,0.45,0.22c-0.01,0.02-0.03,0.05-0.04,0.07    c-1.55,2.16-3.3,4.33-5.22,6.45c-0.02,0.03-0.05,0.06-0.08,0.09c-0.02-0.04-0.04-0.08-0.06-0.11c-0.07-0.11-0.15-0.21-0.23-0.31    c-0.1-0.14-0.22-0.26-0.33-0.38c-0.1-0.13-0.2-0.26-0.31-0.37c-0.33-0.32-0.68-0.61-1.07-0.87c-0.38-0.25-0.78-0.47-1.21-0.64    c-0.42-0.18-0.86-0.31-1.31-0.4c-0.9-0.18-1.83-0.18-2.73,0c-0.45,0.09-0.89,0.22-1.31,0.4c-0.42,0.17-0.83,0.39-1.21,0.64    c-0.38,0.26-0.74,0.55-1.06,0.87c-0.33,0.32-0.62,0.68-0.87,1.06c-0.26,0.38-0.47,0.79-0.65,1.21c-0.17,0.43-0.31,0.87-0.4,1.31    c-0.09,0.45-0.13,0.91-0.13,1.37c0,0.46,0.04,0.92,0.13,1.37c0.09,0.45,0.23,0.89,0.4,1.31c0.18,0.42,0.39,0.83,0.65,1.21    c0.24,0.37,0.53,0.72,0.85,1.04c0.01,0,0.01,0.01,0.02,0.02c0.11,0.11,0.23,0.22,0.35,0.32c0.13,0.11,0.27,0.21,0.41,0.31    c-0.04,0.03-0.07,0.06-0.1,0.08c-2.55,2.01-5.21,3.88-7.91,5.55c-0.06-0.11-0.12-0.21-0.19-0.32c-0.02-0.03-0.05-0.07-0.07-0.1    c-0.1-0.14-0.2-0.27-0.3-0.4c-2.23-2.8-6.27-3.49-9.33-1.46c-18.22,12.08-39.38,18.65-61.17,19c-22.5,0.38-44.08-5.65-62.84-17.48    c0.01-0.01,0.01-0.02,0.02-0.02c0.03-0.03,0.05-0.05,0.08-0.07c1.07-0.93,2.12-1.88,3.15-2.84c0.33-0.31,0.65-0.61,0.97-0.92    c0.77-0.73,1.53-1.46,2.27-2.21c0.32-0.31,0.64-0.63,0.95-0.94c0.99-1.01,1.98-2.04,2.93-3.08c0.07-0.07,0.13-0.14,0.2-0.21    c0.92-1.01,1.83-2.04,2.72-3.09c0.3-0.34,0.59-0.69,0.89-1.04c0.67-0.8,1.33-1.61,1.99-2.43c0.27-0.35,0.55-0.7,0.83-1.05    c0.84-1.08,1.67-2.17,2.49-3.28c2.67,1.99,6.32,4.24,10.91,6.03c-0.18,3.19,1.86,6.21,5.06,7.12c0.6,0.17,1.2,0.32,1.79,0.48    c0.09,0.03,0.18,0.06,0.28,0.08c0.18,0.05,0.38,0.1,0.57,0.14c0.42,0.11,0.84,0.21,1.26,0.31c0.59,0.14,1.17,0.28,1.76,0.4    c0.43,0.1,0.86,0.19,1.29,0.27c0.58,0.12,1.16,0.24,1.75,0.34c0.44,0.08,0.88,0.16,1.31,0.23c0.59,0.1,1.17,0.19,1.75,0.28    c0.45,0.06,0.89,0.13,1.33,0.19c0.59,0.08,1.18,0.15,1.77,0.21c0.44,0.05,0.88,0.11,1.32,0.15c0.61,0.06,1.21,0.11,1.82,0.16    c0.43,0.03,0.85,0.07,1.28,0.1c0.66,0.04,1.32,0.07,1.97,0.1c0.38,0.02,0.76,0.04,1.13,0.06c0.99,0.03,1.98,0.05,2.97,0.05h0.13    c0.01,0,0.01,0,0.01,0s0,0,0.01,0c0.62,0,1.25-0.01,1.88-0.02c0.05,0,0.11-0.01,0.17-0.01c1.34-0.03,2.68-0.09,4.01-0.18    c0.21-0.01,0.43-0.02,0.64-0.04c1.28-0.09,2.55-0.21,3.81-0.35c0.27-0.03,0.53-0.06,0.8-0.09c1.2-0.15,2.4-0.32,3.58-0.51    c0.33-0.06,0.66-0.11,0.99-0.17c1.12-0.19,2.23-0.41,3.34-0.64c0.39-0.08,0.78-0.17,1.17-0.26c1.04-0.23,2.06-0.48,3.08-0.75    c0.47-0.12,0.93-0.24,1.39-0.37c0.94-0.26,1.87-0.54,2.8-0.83c0.54-0.16,1.07-0.34,1.61-0.52c0.7-0.23,1.4-0.48,2.09-0.73    c0.76-0.27,1.51-0.55,2.26-0.84c0.41-0.16,0.82-0.33,1.23-0.5c1.03-0.41,2.05-0.85,3.06-1.3c0.21-0.1,0.41-0.19,0.61-0.28    c1.23-0.56,2.43-1.15,3.62-1.76c0.04-0.01,0.07-0.03,0.11-0.05c20.59-10.56,36.72-28.58,44.81-50.53    c0.04-0.12,0.09-0.24,0.13-0.36c0.42-1.16,0.83-2.34,1.2-3.53c0.11-0.34,0.22-0.68,0.32-1.02c0.29-0.93,0.56-1.86,0.81-2.8    c0.16-0.59,0.32-1.19,0.47-1.79c0.15-0.61,0.31-1.23,0.45-1.84c0.21-0.92,0.4-1.85,0.58-2.78c0.09-0.45,0.18-0.9,0.26-1.35    c0.2-1.1,0.38-2.2,0.53-3.3c0.06-0.36,0.11-0.71,0.15-1.07c0.16-1.19,0.29-2.4,0.41-3.6c0.02-0.28,0.05-0.56,0.07-0.83    c0.11-1.28,0.19-2.57,0.24-3.86c0.01-0.11,0.02-0.22,0.02-0.33c0.01-0.17,0.01-0.34,0.01-0.51c0.02-0.6,0.04-1.21,0.04-1.81    c0.01-0.28,0.01-0.55,0.01-0.82c0-0.15,0.01-0.3,0.01-0.46c0-0.47-0.01-0.95-0.02-1.43c-0.01-0.31-0.01-0.61-0.02-0.92    c-0.01-0.66-0.04-1.32-0.07-1.98c-0.02-0.28-0.03-0.56-0.04-0.84c-0.04-0.61-0.08-1.21-0.13-1.82c-0.02-0.34-0.05-0.69-0.08-1.03    c-0.03-0.43-0.08-0.87-0.13-1.3c-0.05-0.52-0.1-1.05-0.16-1.57c-0.01-0.08-0.02-0.15-0.03-0.23    c-2.83-23.38-14.45-44.93-32.7-60.15c-0.21-0.17-0.42-0.34-0.63-0.51c-0.5-0.41-0.99-0.81-1.5-1.21    c-0.73-0.57-1.47-1.14-2.21-1.69c-8.32-6.16-17.55-10.85-27.43-13.93c-8.92-2.77-18.22-4.18-27.64-4.18    c-2.26,0-4.52,0.08-6.77,0.24c-14.59,1.06-28.66,5.53-41.17,13.11c-0.96,0.58-1.92,1.18-2.86,1.8c-0.01,0.01-0.01,0.01-0.02,0.02    c-9.15,5.99-17.09,13.46-23.61,22.23c-1.49,2-2.89,4.04-4.16,6.05c0,0.01-0.01,0.01-0.01,0.01    c-9.28,14.78-14.18,31.83-14.18,49.33c0,1.05,0.02,2.1,0.05,3.15c0.01,0.34,0.04,0.68,0.05,1.02c0.03,0.71,0.07,1.41,0.11,2.11    c0.03,0.4,0.07,0.81,0.1,1.22c0.05,0.63,0.1,1.26,0.17,1.9c0.04,0.43,0.09,0.86,0.14,1.29c0.07,0.6,0.14,1.21,0.23,1.81    c0.06,0.44,0.12,0.88,0.19,1.32c0.09,0.59,0.18,1.18,0.28,1.77c0.07,0.44,0.15,0.88,0.23,1.32c0.11,0.59,0.23,1.17,0.35,1.76    c0.08,0.43,0.18,0.87,0.27,1.3c0.13,0.59,0.27,1.18,0.41,1.77c0.1,0.42,0.2,0.84,0.31,1.26c0.15,0.61,0.32,1.21,0.49,1.81    c0.1,0.4,0.21,0.79,0.33,1.19c0.18,0.65,0.39,1.29,0.59,1.93c0.11,0.35,0.21,0.69,0.32,1.03c0.27,0.8,0.54,1.6,0.83,2.39    c0.06,0.18,0.12,0.37,0.19,0.55c0.36,0.97,0.73,1.94,1.12,2.91c0.1,0.23,0.2,0.46,0.3,0.7c0.3,0.72,0.6,1.44,0.92,2.16    c0.15,0.34,0.31,0.67,0.46,1c0.28,0.61,0.56,1.22,0.86,1.82c0.17,0.37,0.36,0.73,0.54,1.09c0.29,0.57,0.57,1.14,0.87,1.7    c0.2,0.38,0.4,0.74,0.6,1.11c0.18,0.33,0.36,0.67,0.54,1c-0.01,0.02-0.02,0.03-0.03,0.04c-0.72,1.01-1.47,2-2.23,2.98    c-0.2,0.26-0.4,0.51-0.61,0.77c-0.75,0.93-1.52,1.86-2.31,2.77c-0.04,0.04-0.08,0.08-0.12,0.13c-0.83,0.94-1.69,1.85-2.56,2.76    c-0.22,0.23-0.45,0.45-0.67,0.68c-0.83,0.83-1.67,1.65-2.53,2.44c-0.07,0.06-0.14,0.14-0.21,0.2c-0.93,0.85-1.88,1.67-2.85,2.47    c-0.24,0.2-0.48,0.4-0.72,0.59c-0.29,0.24-0.58,0.46-0.87,0.69c-0.1-0.15-0.19-0.29-0.28-0.43c-0.51-0.8-1-1.61-1.49-2.42    c-0.12-0.2-0.24-0.39-0.36-0.59c-0.59-1-1.17-2.01-1.73-3.02l-0.39-0.72c-0.44-0.82-0.88-1.64-1.3-2.47    c-0.14-0.27-0.29-0.55-0.43-0.83c-0.52-1.05-1.04-2.1-1.53-3.16c-7.05-15.18-10.62-31.42-10.62-48.27    c0-16.85,3.57-33.1,10.62-48.28c0.4-0.84,0.8-1.69,1.22-2.53c0.43-0.88,0.88-1.75,1.34-2.62c2.6-4.94,5.58-9.71,8.89-14.24    c2.52-3.47,5.28-6.83,8.2-10c1.22-1.32,2.47-2.62,3.76-3.89c0.04-0.04,0.09-0.09,0.14-0.13c3.8-3.75,7.86-7.24,12.13-10.41    c19.89-14.83,43.57-22.67,68.47-22.67c13.62,0,26.93,2.35,39.57,7c3.63,1.33,7.65-0.53,8.98-4.16c1.27-3.44-0.34-7.23-3.61-8.76    c-0.15-0.07-0.3-0.14-0.46-0.2c-0.03-0.01-0.05-0.02-0.08-0.03c-0.13-0.05-0.27-0.09-0.4-0.14l7.81-15.75    c0.14,0.1,0.27,0.2,0.41,0.3c0.14,0.1,0.29,0.18,0.43,0.26c0.11,0.07,0.21,0.14,0.33,0.2c3.45,1.74,7.66,0.36,9.41-3.08    l28.79-56.86c1.28-2.53,0.91-5.58-0.93-7.73c-1.84-2.15-4.8-2.97-7.49-2.09l-23.77,7.78c-1.83,0.61-3.77,0.45-5.49-0.41    c-1.72-0.87-2.99-2.36-3.59-4.19c-1.24-3.77,0.83-7.84,4.6-9.08l56.36-18.47c1.83-0.6,3.78-0.45,5.5,0.42    c1.7,0.86,2.97,2.33,3.57,4.14c0.01,0.02,0.01,0.03,0.02,0.05l16.57,50.57C454.74,146.42,454.59,148.37,453.72,150.08z"/>
<path class="st3" d="M287.06,319.59c0,1.54-0.03,3.07-0.09,4.59c-0.89,22.85-8.45,44.57-21.99,63.07    c-6.77,9.3-14.92,17.52-24.21,24.44c-20.42,15.22-44.69,23.06-70.32,22.66c-61.96-0.97-112.62-52.17-112.95-114.14    c-0.1-19.74,4.88-39.23,14.42-56.36c1.87-3.36,0.68-7.59-2.66-9.49c-0.02-0.01-0.03-0.02-0.05-0.03c-0.13-0.07-0.26-0.14-0.4-0.2    c-0.16-0.07-0.31-0.14-0.47-0.2c0.02-0.03,0.04-0.06,0.07-0.1c1.92-2.6,3.98-5.2,6.1-7.71c0-0.01,0-0.01,0.01-0.01    c0.12,0.11,0.24,0.23,0.37,0.33c0.13,0.11,0.27,0.2,0.4,0.3c0.03,0.02,0.06,0.04,0.09,0.06c0.38,0.25,0.79,0.47,1.21,0.64    c0.42,0.18,0.86,0.31,1.31,0.4c0.45,0.1,0.91,0.14,1.37,0.14c0.45,0,0.91-0.04,1.37-0.14c0.44-0.09,0.88-0.22,1.3-0.4    c0.43-0.17,0.83-0.39,1.21-0.64c0.39-0.25,0.75-0.55,1.07-0.87s0.61-0.68,0.87-1.06c0.25-0.38,0.47-0.79,0.64-1.21    c0.18-0.42,0.31-0.86,0.4-1.31c0.09-0.45,0.14-0.91,0.14-1.37c0-0.45-0.05-0.91-0.14-1.37c-0.09-0.44-0.22-0.88-0.4-1.31    c-0.17-0.42-0.39-0.82-0.64-1.2c-0.15-0.23-0.31-0.44-0.49-0.64c-0.1-0.12-0.21-0.25-0.33-0.37c-0.01-0.02-0.03-0.04-0.05-0.06    c-0.1-0.1-0.21-0.19-0.31-0.28c0-0.01,0-0.01,0-0.01c3.07-3.14,6.25-6.21,9.46-9.1c0-0.01,0.01-0.01,0.02-0.02    c0.1,0.14,0.2,0.27,0.31,0.39c0.11,0.13,0.23,0.24,0.35,0.36c1.34,1.31,3.11,2,4.9,2c1.47,0,2.95-0.46,4.21-1.42    c15.97-12.06,34.88-19.75,54.69-22.23c3.5-0.43,6.13-3.41,6.13-6.94v-63c0-3.86-3.13-7-7-7H139.6c-4.58,0-8.3-3.72-8.3-8.29    c0-4.58,3.72-8.3,8.3-8.3h17.38c3.87,0,7-3.13,7-7V85.94c0-4.58,3.72-8.3,8.3-8.3c4.57,0,8.3,3.72,8.3,8.3v19.25    c0,3.87,3.13,7,7,7h17.39c4.58,0,8.3,3.72,8.3,8.3c0,4.57-3.72,8.29-8.3,8.29h-17.39c-3.87,0-7,3.14-7,7v34.33    c0,3.83,3.08,6.94,6.9,6.99c0.03,0.01,0.07,0.01,0.1,0.01c0.14,0,0.27,0,0.4-0.02c0.17-0.01,0.33-0.03,0.5-0.05v14.8    c-0.01-0.01-0.03-0.01-0.04-0.01c-0.16-0.02-0.31-0.03-0.46-0.04c-0.17-0.01-0.33-0.01-0.5,0c-3.44,0.04-6.41,2.61-6.85,6.12    c-0.48,3.84,2.24,7.33,6.08,7.81c16.51,2.07,32.43,7.77,46.52,16.61c-0.21,0.17-0.4,0.36-0.61,0.54c-0.57,0.5-1.14,1.01-1.71,1.52    c-0.31,0.28-0.61,0.57-0.91,0.85c-0.54,0.49-1.07,0.99-1.59,1.5c-0.3,0.28-0.6,0.57-0.89,0.86c-0.55,0.54-1.1,1.08-1.64,1.63    c-0.25,0.26-0.5,0.51-0.75,0.77c-0.78,0.8-1.56,1.61-2.32,2.44c-0.87,0.94-1.73,1.91-2.57,2.88c-0.26,0.3-0.51,0.61-0.77,0.92    c-0.57,0.67-1.14,1.34-1.7,2.03c-0.08,0.09-0.17,0.19-0.25,0.29c-0.52-0.3-1.06-0.57-1.6-0.86c-0.42-0.23-0.85-0.46-1.28-0.68    c-1.05-0.54-2.11-1.06-3.18-1.56c-0.23-0.1-0.45-0.22-0.67-0.32c-1.29-0.59-2.6-1.15-3.91-1.68c-0.39-0.15-0.79-0.29-1.18-0.45    c-0.94-0.36-1.88-0.71-2.84-1.05c-0.49-0.17-0.98-0.33-1.48-0.49c-0.88-0.29-1.76-0.57-2.65-0.83c-0.51-0.15-1.01-0.3-1.52-0.44    c-0.94-0.26-1.89-0.5-2.84-0.74c-0.45-0.1-0.89-0.22-1.34-0.32c-1.39-0.32-2.79-0.61-4.21-0.87c-10.85-1.96-22.24-1.96-33.08,0    c-1.38,0.25-2.75,0.53-4.11,0.84c-35.33,7.99-62.1,35.52-69.84,69.89c-0.01,0.04-0.02,0.07-0.03,0.11    c-0.25,1.12-0.48,2.26-0.69,3.4c-0.04,0.23-0.09,0.47-0.13,0.71c-0.18,0.97-0.32,1.94-0.46,2.92c-0.06,0.41-0.13,0.82-0.18,1.23    c-0.11,0.84-0.2,1.69-0.29,2.53c-0.05,0.56-0.12,1.11-0.17,1.67c-0.06,0.74-0.1,1.49-0.15,2.24c-0.04,0.66-0.09,1.31-0.11,1.97    c-0.03,0.69-0.04,1.39-0.05,2.09c-0.01,0.57-0.04,1.15-0.04,1.72c0,0.2,0.01,0.39,0.01,0.58v0.25c0,0.11,0.01,0.22,0.01,0.33    c0.01,1.35,0.06,2.69,0.13,4.02c0.01,0.15,0.02,0.3,0.03,0.44c0.08,1.39,0.19,2.77,0.33,4.14c0.01,0.06,0.02,0.13,0.03,0.19    c4.11,38.39,31.72,69.84,68.12,79.65c0.08,0.02,0.15,0.04,0.22,0.06c1.33,0.35,2.67,0.68,4.01,0.97c0.14,0.03,0.27,0.06,0.4,0.09    c1.3,0.28,2.61,0.53,3.93,0.76c0.18,0.03,0.35,0.05,0.52,0.08c1.29,0.21,2.6,0.4,3.91,0.56c0.19,0.02,0.38,0.04,0.57,0.06    c1.3,0.15,2.61,0.28,3.93,0.37c0.18,0.01,0.37,0.02,0.55,0.03c1.34,0.09,2.68,0.15,4.03,0.18c0.05,0,0.1,0.01,0.15,0.01h0.39    c0.51,0.01,1.01,0.02,1.52,0.02c0.32,0,0.64-0.02,0.97-0.02c0.43,0,0.87-0.01,1.31-0.02c0.75-0.02,1.5-0.05,2.24-0.08    c0.39-0.02,0.77-0.04,1.16-0.07c0.77-0.04,1.55-0.1,2.32-0.17c0.37-0.03,0.75-0.06,1.12-0.1c0.76-0.07,1.53-0.16,2.29-0.25    c0.39-0.05,0.77-0.1,1.15-0.15c0.74-0.1,1.47-0.21,2.2-0.33c0.42-0.06,0.83-0.13,1.24-0.2c0.69-0.12,1.37-0.25,2.06-0.39    c0.45-0.09,0.9-0.17,1.35-0.27c0.64-0.13,1.27-0.28,1.9-0.43c0.49-0.11,0.98-0.23,1.47-0.35c0.59-0.15,1.17-0.31,1.75-0.47    c0.52-0.14,1.05-0.28,1.57-0.44c0.54-0.15,1.08-0.32,1.61-0.49c0.56-0.17,1.11-0.35,1.67-0.53c0.5-0.17,0.99-0.34,1.49-0.52    c0.58-0.2,1.15-0.4,1.73-0.62c0.47-0.18,0.95-0.37,1.42-0.56c0.58-0.23,1.16-0.45,1.74-0.69c0.47-0.2,0.94-0.41,1.4-0.61    c0.57-0.25,1.15-0.5,1.71-0.76c0.49-0.22,0.96-0.46,1.45-0.7c0.53-0.26,1.07-0.51,1.61-0.78c0.53-0.27,1.06-0.56,1.59-0.84    c0.47-0.25,0.95-0.5,1.41-0.76c0.65-0.35,1.29-0.73,1.93-1.11c0.34-0.2,0.69-0.39,1.03-0.6c0.99-0.59,1.96-1.2,2.92-1.83    c0-0.01,0-0.01,0.01-0.01c3.47-2.27,6.79-4.79,9.94-7.52c6.92-6.02,12.98-13.06,17.84-20.79c9.28-14.77,14.18-31.82,14.18-49.33    c0-1.05-0.02-2.09-0.05-3.14c-0.01-0.34-0.04-0.69-0.05-1.03c-0.03-0.7-0.06-1.4-0.11-2.1c-0.03-0.41-0.07-0.82-0.1-1.23    c-0.05-0.63-0.1-1.26-0.17-1.89c-0.04-0.43-0.09-0.87-0.14-1.3c-0.07-0.6-0.14-1.21-0.22-1.81c-0.06-0.44-0.13-0.88-0.2-1.32    c-0.08-0.59-0.18-1.18-0.28-1.77c-0.07-0.44-0.15-0.88-0.23-1.32c-0.11-0.59-0.22-1.17-0.34-1.76c-0.09-0.43-0.18-0.87-0.28-1.3    c-0.13-0.59-0.27-1.18-0.41-1.76c-0.1-0.43-0.2-0.85-0.31-1.27c-0.15-0.6-0.31-1.2-0.48-1.8c-0.11-0.4-0.22-0.8-0.34-1.2    c-0.18-0.64-0.38-1.28-0.58-1.91c-0.11-0.35-0.22-0.71-0.33-1.06c-0.26-0.78-0.53-1.55-0.81-2.33c-0.07-0.2-0.13-0.4-0.21-0.6    c-0.35-0.98-0.73-1.94-1.12-2.9c-0.1-0.27-0.22-0.53-0.33-0.8c-0.29-0.69-0.58-1.38-0.88-2.06c-0.16-0.36-0.33-0.71-0.5-1.07    c-0.26-0.59-0.53-1.17-0.81-1.75c-0.19-0.39-0.39-0.77-0.58-1.16c-0.28-0.54-0.55-1.08-0.84-1.62c-0.21-0.4-0.42-0.79-0.64-1.18    c-0.16-0.31-0.33-0.63-0.5-0.93c0.39-0.56,0.78-1.12,1.19-1.67c0.63-0.84,1.27-1.66,1.93-2.47c0.19-0.24,0.39-0.47,0.58-0.71    c0.49-0.6,0.99-1.18,1.5-1.76c0.21-0.23,0.41-0.47,0.61-0.69c0.68-0.76,1.37-1.5,2.07-2.23c0.02-0.01,0.04-0.03,0.05-0.05    c0.73-0.75,1.48-1.48,2.24-2.2c0.21-0.2,0.42-0.39,0.63-0.59c0.58-0.53,1.16-1.06,1.76-1.58c0.22-0.19,0.45-0.39,0.67-0.59    c0.74-0.63,1.49-1.25,2.26-1.85c0.05-0.05,0.11-0.09,0.16-0.14c0.01-0.01,0.03-0.01,0.04-0.02c0.21,0.33,0.43,0.67,0.65,1    c0.33,0.53,0.65,1.06,0.98,1.59c0.43,0.71,0.85,1.44,1.27,2.16c0.31,0.53,0.61,1.06,0.91,1.59c0.41,0.75,0.82,1.5,1.21,2.26    c0.28,0.52,0.56,1.03,0.82,1.56c0.41,0.81,0.8,1.62,1.19,2.44c0.23,0.48,0.47,0.95,0.69,1.43c0.45,0.99,0.88,1.98,1.31,2.98    c0.13,0.32,0.28,0.63,0.41,0.96c0.55,1.32,1.08,2.64,1.57,3.98c0.13,0.35,0.25,0.7,0.37,1.05c0.36,1,0.72,2,1.05,3    c0.16,0.51,0.31,1.02,0.47,1.53c0.27,0.86,0.54,1.71,0.79,2.58c0.16,0.56,0.31,1.13,0.46,1.69c0.22,0.82,0.44,1.64,0.65,2.46    c0.14,0.59,0.28,1.18,0.41,1.77c0.19,0.82,0.37,1.63,0.54,2.45c0.12,0.6,0.24,1.2,0.36,1.8c0.15,0.82,0.3,1.64,0.43,2.46    c0.1,0.61,0.2,1.21,0.3,1.82c0.12,0.83,0.23,1.67,0.34,2.51c0.08,0.59,0.16,1.19,0.23,1.79c0.09,0.87,0.17,1.75,0.25,2.63    c0.05,0.56,0.11,1.13,0.15,1.7c0.08,0.97,0.13,1.94,0.17,2.92c0.03,0.48,0.06,0.95,0.08,1.43    C287.02,316.67,287.06,318.13,287.06,319.59z"/>
<path class="st6" d="M227.27,120.49c0,12.29-10,22.29-22.3,22.29h-10.39v27.33c0,3.55-2.66,6.49-6.1,6.93    c-0.17,0.02-0.33,0.04-0.5,0.05c-0.13,0.02-0.26,0.02-0.4,0.02c-0.03,0-0.07,0-0.1-0.01c-3.82-0.05-6.9-3.16-6.9-6.99v-34.33    c0-3.86,3.13-7,7-7h17.39c4.58,0,8.3-3.72,8.3-8.29c0-4.58-3.72-8.3-8.3-8.3h-17.39c-3.87,0-7-3.13-7-7V85.94    c0-4.58-3.73-8.3-8.3-8.3c-4.58,0-8.3,3.72-8.3,8.3v19.25c0,3.87-3.13,7-7,7H139.6c-4.58,0-8.3,3.72-8.3,8.3    c0,4.57,3.72,8.29,8.3,8.29h17.38c3.87,0,7,3.14,7,7v63c0,3.53-2.63,6.51-6.13,6.94c-19.81,2.48-38.72,10.17-54.69,22.23    c-1.26,0.96-2.74,1.42-4.21,1.42c-1.79,0-3.56-0.69-4.9-2c-0.12-0.12-0.24-0.23-0.35-0.36c-0.11-0.12-0.21-0.25-0.31-0.39    l-0.03-0.03c-2.33-3.09-1.72-7.48,1.36-9.81c16.27-12.29,35.27-20.53,55.26-24.03v-49.97H139.6c-12.3,0-22.3-10-22.3-22.29    c0-12.3,10-22.3,22.3-22.3h10.38V85.94c0-12.3,10-22.3,22.3-22.3c12.29,0,22.3,10,22.3,22.3v12.25h10.39    C217.27,98.19,227.27,108.19,227.27,120.49z"/>
<path class="st6" d="M86.27,240.98c0,0.46-0.05,0.92-0.14,1.37c-0.09,0.45-0.22,0.89-0.4,1.31c-0.17,0.42-0.39,0.83-0.64,1.21    c-0.26,0.38-0.55,0.74-0.87,1.06s-0.68,0.62-1.07,0.87c-0.38,0.25-0.78,0.47-1.21,0.64c-0.42,0.18-0.86,0.31-1.3,0.4    c-0.46,0.1-0.92,0.14-1.37,0.14c-0.46,0-0.92-0.04-1.37-0.14c-0.45-0.09-0.89-0.22-1.31-0.4c-0.42-0.17-0.83-0.39-1.21-0.64    c-0.03-0.02-0.06-0.04-0.09-0.06c-0.13-0.1-0.27-0.19-0.4-0.3c-0.13-0.1-0.25-0.22-0.37-0.33c-0.07-0.06-0.14-0.12-0.2-0.18    c-1.3-1.3-2.05-3.11-2.05-4.95c0-0.45,0.04-0.91,0.13-1.37c0.09-0.44,0.23-0.88,0.4-1.31c0.18-0.42,0.4-0.82,0.65-1.2    c0.25-0.39,0.55-0.74,0.87-1.07c0.32-0.32,0.68-0.61,1.06-0.87c0.38-0.25,0.79-0.47,1.21-0.64c0.42-0.18,0.86-0.31,1.31-0.4    c0.9-0.18,1.83-0.18,2.74,0c0.44,0.09,0.88,0.22,1.3,0.4c0.43,0.17,0.83,0.39,1.21,0.64c0.27,0.18,0.52,0.38,0.76,0.59    c0.1,0.09,0.21,0.18,0.31,0.28c0.02,0.02,0.04,0.04,0.05,0.06c0.12,0.12,0.23,0.25,0.33,0.37c0.18,0.2,0.34,0.41,0.49,0.64    c0.25,0.38,0.47,0.78,0.64,1.2c0.18,0.43,0.31,0.87,0.4,1.31C86.22,240.07,86.27,240.53,86.27,240.98z"/>
<path class="st6" d="M410.38,318.16c-0.01-0.31-0.01-0.61-0.02-0.92c-0.01-0.66-0.04-1.32-0.07-1.98    c-0.02-0.28-0.03-0.56-0.04-0.84c-0.04-0.61-0.08-1.21-0.13-1.82c-0.02-0.34-0.05-0.69-0.08-1.03c-0.03-0.43-0.08-0.87-0.13-1.3    c-0.05-0.52-0.1-1.05-0.16-1.57c-0.01-0.08-0.02-0.15-0.03-0.23c-2.83-23.38-14.45-44.93-32.7-60.15    c-0.21-0.17-0.42-0.34-0.63-0.51c-0.5-0.41-0.99-0.81-1.5-1.21c-0.73-0.57-1.47-1.14-2.21-1.69    c-8.32-6.16-17.55-10.85-27.43-13.93c-8.92-2.77-18.22-4.18-27.64-4.18c-2.26,0-4.52,0.08-6.77,0.24    c-14.59,1.06-28.66,5.53-41.17,13.11c-0.96,0.58-1.92,1.18-2.86,1.8c-0.01,0.01-0.01,0.01-0.02,0.02    c-9.15,5.99-17.09,13.46-23.61,22.23c-1.49,2-2.89,4.04-4.16,6.05c0,0.01-0.01,0.01-0.01,0.01    c-9.28,14.78-14.18,31.83-14.18,49.33c0,1.05,0.02,2.1,0.05,3.15c0.01,0.34,0.04,0.68,0.05,1.02c0.03,0.71,0.07,1.41,0.11,2.11    c0.03,0.4,0.07,0.81,0.1,1.22c0.05,0.63,0.1,1.26,0.17,1.9c0.04,0.43,0.09,0.86,0.14,1.29c0.07,0.6,0.14,1.21,0.23,1.81    c0.06,0.44,0.12,0.88,0.19,1.32c0.09,0.59,0.18,1.18,0.28,1.77c0.07,0.44,0.15,0.88,0.23,1.32c0.11,0.59,0.23,1.17,0.35,1.76    c0.08,0.43,0.18,0.87,0.27,1.3c0.13,0.59,0.27,1.18,0.41,1.77c0.1,0.42,0.2,0.84,0.31,1.26c0.15,0.61,0.32,1.21,0.49,1.81    c0.1,0.4,0.21,0.79,0.33,1.19c0.18,0.65,0.39,1.29,0.59,1.93c0.11,0.35,0.21,0.69,0.32,1.03c0.27,0.8,0.54,1.6,0.83,2.39    c0.06,0.18,0.12,0.37,0.19,0.55c0.36,0.97,0.73,1.94,1.12,2.91c0.1,0.23,0.2,0.46,0.3,0.7c0.3,0.72,0.6,1.44,0.92,2.16    c0.15,0.34,0.31,0.67,0.46,1c0.28,0.61,0.56,1.22,0.86,1.82c0.17,0.37,0.36,0.73,0.54,1.09c0.29,0.57,0.57,1.14,0.87,1.7    c0.2,0.38,0.4,0.74,0.6,1.11c0.18,0.33,0.36,0.67,0.54,1c-0.01,0.02-0.02,0.03-0.03,0.04c-0.72,1.01-1.47,2-2.23,2.98    c-0.2,0.26-0.4,0.51-0.61,0.77c-0.75,0.93-1.52,1.86-2.31,2.77c-0.04,0.04-0.08,0.08-0.12,0.13c-0.83,0.94-1.69,1.85-2.56,2.76    c-0.22,0.23-0.45,0.45-0.67,0.68c-0.83,0.83-1.67,1.65-2.53,2.44c-0.07,0.06-0.14,0.14-0.21,0.2c-0.93,0.85-1.88,1.67-2.85,2.47    c-0.24,0.2-0.48,0.4-0.72,0.59c-0.29,0.24-0.58,0.46-0.87,0.69c-0.1-0.15-0.19-0.29-0.28-0.43c-0.51-0.8-1-1.61-1.49-2.42    c-0.12-0.2-0.24-0.39-0.36-0.59c-0.59-1-1.17-2.01-1.73-3.02l-0.39-0.72c-0.44-0.82-0.88-1.64-1.3-2.47    c-0.14-0.27-0.29-0.55-0.43-0.83c-0.52-1.05-1.04-2.1-1.53-3.16c-7.05-15.18-10.62-31.42-10.62-48.27    c0-16.85,3.57-33.1,10.62-48.28c0.4-0.84,0.8-1.69,1.22-2.53c0.43-0.88,0.88-1.75,1.34-2.62c2.6-4.94,5.58-9.71,8.89-14.24    c2.52-3.47,5.28-6.83,8.2-10c1.22-1.32,2.47-2.62,3.76-3.89c0.04-0.04,0.09-0.09,0.14-0.13c3.8-3.75,7.86-7.24,12.13-10.41    c19.89-14.83,43.57-22.67,68.47-22.67c13.62,0,26.93,2.35,39.57,7c3.63,1.33,7.65-0.53,8.98-4.16c1.27-3.44-0.34-7.23-3.61-8.76    c-0.15-0.07-0.3-0.14-0.46-0.2c-0.03-0.01-0.05-0.02-0.08-0.03c-0.13-0.05-0.27-0.09-0.4-0.14c-14.07-5.11-28.87-7.71-44-7.71    c-26.22,0-51.24,7.75-72.67,22.46c-16.83-11.51-36.23-18.91-56.46-21.44c-0.01-0.01-0.03-0.01-0.04-0.01    c-0.16-0.02-0.31-0.03-0.46-0.04c-0.17-0.01-0.33-0.01-0.5,0c-3.44,0.04-6.41,2.61-6.85,6.12c-0.48,3.84,2.24,7.33,6.08,7.81    c16.51,2.07,32.43,7.77,46.52,16.61c-0.21,0.17-0.4,0.36-0.61,0.54c-0.57,0.5-1.14,1.01-1.71,1.52c-0.31,0.28-0.61,0.57-0.91,0.85    c-0.54,0.49-1.07,0.99-1.59,1.5c-0.3,0.28-0.6,0.57-0.89,0.86c-0.55,0.54-1.1,1.08-1.64,1.63c-0.25,0.26-0.5,0.51-0.75,0.77    c-0.78,0.8-1.56,1.61-2.32,2.44c-0.87,0.94-1.73,1.91-2.57,2.88c-0.26,0.3-0.51,0.61-0.77,0.92c-0.57,0.67-1.14,1.34-1.7,2.03    c-0.08,0.09-0.17,0.19-0.25,0.29c-0.52-0.3-1.06-0.57-1.6-0.86c-0.42-0.23-0.85-0.46-1.28-0.68c-1.05-0.54-2.11-1.06-3.18-1.56    c-0.23-0.1-0.45-0.22-0.67-0.32c-1.29-0.59-2.6-1.15-3.91-1.68c-0.39-0.15-0.79-0.29-1.18-0.45c-0.94-0.36-1.88-0.71-2.84-1.05    c-0.49-0.17-0.98-0.33-1.48-0.49c-0.88-0.29-1.76-0.57-2.65-0.83c-0.51-0.15-1.01-0.3-1.52-0.44c-0.94-0.26-1.89-0.5-2.84-0.74    c-0.45-0.1-0.89-0.22-1.34-0.32c-1.39-0.32-2.79-0.61-4.21-0.87c-10.85-1.96-22.24-1.96-33.08,0c-1.38,0.25-2.75,0.53-4.11,0.84    c-35.33,7.99-62.1,35.52-69.84,69.89c-0.01,0.04-0.02,0.07-0.03,0.11c-0.25,1.12-0.48,2.26-0.69,3.4    c-0.04,0.23-0.09,0.47-0.13,0.71c-0.18,0.97-0.32,1.94-0.46,2.92c-0.06,0.41-0.13,0.82-0.18,1.23c-0.11,0.84-0.2,1.69-0.29,2.53    c-0.05,0.56-0.12,1.11-0.17,1.67c-0.06,0.74-0.1,1.49-0.15,2.24c-0.04,0.66-0.09,1.31-0.11,1.97c-0.03,0.69-0.04,1.39-0.05,2.09    c-0.01,0.57-0.04,1.15-0.04,1.72c0,0.2,0.01,0.39,0.01,0.58v0.25c0,0.11,0.01,0.22,0.01,0.33c0.01,1.35,0.06,2.69,0.13,4.02    c0.01,0.15,0.02,0.3,0.03,0.44c0.08,1.39,0.19,2.77,0.33,4.14c0.01,0.06,0.02,0.13,0.03,0.19c4.11,38.39,31.72,69.84,68.12,79.65    c0.08,0.02,0.15,0.04,0.22,0.06c1.33,0.35,2.67,0.68,4.01,0.97c0.14,0.03,0.27,0.06,0.4,0.09c1.3,0.28,2.61,0.53,3.93,0.76    c0.18,0.03,0.35,0.05,0.52,0.08c1.29,0.21,2.6,0.4,3.91,0.56c0.19,0.02,0.38,0.04,0.57,0.06c1.3,0.15,2.61,0.28,3.93,0.37    c0.18,0.01,0.37,0.02,0.55,0.03c1.34,0.09,2.68,0.15,4.03,0.18c0.05,0,0.1,0.01,0.15,0.01h0.39c0.51,0.01,1.01,0.02,1.52,0.02    c0.32,0,0.64-0.02,0.97-0.02c0.43,0,0.87-0.01,1.31-0.02c0.75-0.02,1.5-0.05,2.24-0.08c0.39-0.02,0.77-0.04,1.16-0.07    c0.77-0.04,1.55-0.1,2.32-0.17c0.37-0.03,0.75-0.06,1.12-0.1c0.76-0.07,1.53-0.16,2.29-0.25c0.39-0.05,0.77-0.1,1.15-0.15    c0.74-0.1,1.47-0.21,2.2-0.33c0.42-0.06,0.83-0.13,1.24-0.2c0.69-0.12,1.37-0.25,2.06-0.39c0.45-0.09,0.9-0.17,1.35-0.27    c0.64-0.13,1.27-0.28,1.9-0.43c0.49-0.11,0.98-0.23,1.47-0.35c0.59-0.15,1.17-0.31,1.75-0.47c0.52-0.14,1.05-0.28,1.57-0.44    c0.54-0.15,1.08-0.32,1.61-0.49c0.56-0.17,1.11-0.35,1.67-0.53c0.5-0.17,0.99-0.34,1.49-0.52c0.58-0.2,1.15-0.4,1.73-0.62    c0.47-0.18,0.95-0.37,1.42-0.56c0.58-0.23,1.16-0.45,1.74-0.69c0.47-0.2,0.94-0.41,1.4-0.61c0.57-0.25,1.15-0.5,1.71-0.76    c0.49-0.22,0.96-0.46,1.45-0.7c0.53-0.26,1.07-0.51,1.61-0.78c0.53-0.27,1.06-0.56,1.59-0.84c0.47-0.25,0.95-0.5,1.41-0.76    c0.65-0.35,1.29-0.73,1.93-1.11c0.34-0.2,0.69-0.39,1.03-0.6c0.99-0.59,1.96-1.2,2.92-1.83c0-0.01,0-0.01,0.01-0.01    c3.47-2.27,6.79-4.79,9.94-7.52c6.92-6.02,12.98-13.06,17.84-20.79c9.28-14.77,14.18-31.82,14.18-49.33    c0-1.05-0.02-2.09-0.05-3.14c-0.01-0.34-0.04-0.69-0.05-1.03c-0.03-0.7-0.06-1.4-0.11-2.1c-0.03-0.41-0.07-0.82-0.1-1.23    c-0.05-0.63-0.1-1.26-0.17-1.89c-0.04-0.43-0.09-0.87-0.14-1.3c-0.07-0.6-0.14-1.21-0.22-1.81c-0.06-0.44-0.13-0.88-0.2-1.32    c-0.08-0.59-0.18-1.18-0.28-1.77c-0.07-0.44-0.15-0.88-0.23-1.32c-0.11-0.59-0.22-1.17-0.34-1.76c-0.09-0.43-0.18-0.87-0.28-1.3    c-0.13-0.59-0.27-1.18-0.41-1.76c-0.1-0.43-0.2-0.85-0.31-1.27c-0.15-0.6-0.31-1.2-0.48-1.8c-0.11-0.4-0.22-0.8-0.34-1.2    c-0.18-0.64-0.38-1.28-0.58-1.91c-0.11-0.35-0.22-0.71-0.33-1.06c-0.26-0.78-0.53-1.55-0.81-2.33c-0.07-0.2-0.13-0.4-0.21-0.6    c-0.35-0.98-0.73-1.94-1.12-2.9c-0.1-0.27-0.22-0.53-0.33-0.8c-0.29-0.69-0.58-1.38-0.88-2.06c-0.16-0.36-0.33-0.71-0.5-1.07    c-0.26-0.59-0.53-1.17-0.81-1.75c-0.19-0.39-0.39-0.77-0.58-1.16c-0.28-0.54-0.55-1.08-0.84-1.62c-0.21-0.4-0.42-0.79-0.64-1.18    c-0.16-0.31-0.33-0.63-0.5-0.93c0.39-0.56,0.78-1.12,1.19-1.67c0.63-0.84,1.27-1.66,1.93-2.47c0.19-0.24,0.39-0.47,0.58-0.71    c0.49-0.6,0.99-1.18,1.5-1.76c0.21-0.23,0.41-0.47,0.61-0.69c0.68-0.76,1.37-1.5,2.07-2.23c0.02-0.01,0.04-0.03,0.05-0.05    c0.73-0.75,1.48-1.48,2.24-2.2c0.21-0.2,0.42-0.39,0.63-0.59c0.58-0.53,1.16-1.06,1.76-1.58c0.22-0.19,0.45-0.39,0.67-0.59    c0.74-0.63,1.49-1.25,2.26-1.85c0.05-0.05,0.11-0.09,0.16-0.14c0.01-0.01,0.03-0.01,0.04-0.02c0.21,0.33,0.43,0.67,0.65,1    c0.33,0.53,0.65,1.06,0.98,1.59c0.43,0.71,0.85,1.44,1.27,2.16c0.31,0.53,0.61,1.06,0.91,1.59c0.41,0.75,0.82,1.5,1.21,2.26    c0.28,0.52,0.56,1.03,0.82,1.56c0.41,0.81,0.8,1.62,1.19,2.44c0.23,0.48,0.47,0.95,0.69,1.43c0.45,0.99,0.88,1.98,1.31,2.98    c0.13,0.32,0.28,0.63,0.41,0.96c0.55,1.32,1.08,2.64,1.57,3.98c0.13,0.35,0.25,0.7,0.37,1.05c0.36,1,0.72,2,1.05,3    c0.16,0.51,0.31,1.02,0.47,1.53c0.27,0.86,0.54,1.71,0.79,2.58c0.16,0.56,0.31,1.13,0.46,1.69c0.22,0.82,0.44,1.64,0.65,2.46    c0.14,0.59,0.28,1.18,0.41,1.77c0.19,0.82,0.37,1.63,0.54,2.45c0.12,0.6,0.24,1.2,0.36,1.8c0.15,0.82,0.3,1.64,0.43,2.46    c0.1,0.61,0.2,1.21,0.3,1.82c0.12,0.83,0.23,1.67,0.34,2.51c0.08,0.59,0.16,1.19,0.23,1.79c0.09,0.87,0.17,1.75,0.25,2.63    c0.05,0.56,0.11,1.13,0.15,1.7c0.08,0.97,0.13,1.94,0.17,2.92c0.03,0.48,0.06,0.95,0.08,1.43c0.05,1.46,0.09,2.92,0.09,4.38    c0,1.54-0.03,3.07-0.09,4.59c-0.89,22.85-8.45,44.57-21.99,63.07c-6.77,9.3-14.92,17.52-24.21,24.44    c-20.42,15.22-44.69,23.06-70.32,22.66c-61.96-0.97-112.62-52.17-112.95-114.14c-0.1-19.74,4.88-39.23,14.42-56.36    c1.87-3.36,0.68-7.59-2.66-9.49c-0.02-0.01-0.03-0.02-0.05-0.03c-0.13-0.07-0.26-0.14-0.4-0.2c-0.16-0.07-0.31-0.14-0.47-0.2    c-3.21-1.25-6.93,0.01-8.65,3.11c-10.71,19.23-16.3,41.1-16.19,63.24c0.18,33.74,13.44,65.62,37.35,89.78    c23.91,24.16,55.65,37.76,89.38,38.28c0.69,0.01,1.39,0.02,2.08,0.02c26.22,0,51.19-7.73,72.64-22.46    c21.45,14.73,46.41,22.46,72.63,22.46c0.72,0,1.43-0.01,2.15-0.02c24.48-0.39,48.23-7.77,68.69-21.33    c3.11-2.07,4.03-6.19,2.15-9.38v-0.01c-0.06-0.11-0.12-0.21-0.19-0.32c-0.02-0.03-0.05-0.07-0.07-0.1c-0.1-0.14-0.2-0.27-0.3-0.4    c-2.23-2.8-6.27-3.49-9.33-1.46c-18.22,12.08-39.38,18.65-61.17,19c-22.5,0.38-44.08-5.65-62.84-17.48    c0.01-0.01,0.01-0.02,0.02-0.02c0.03-0.03,0.05-0.05,0.08-0.07c1.07-0.93,2.12-1.88,3.15-2.84c0.33-0.31,0.65-0.61,0.97-0.92    c0.77-0.73,1.53-1.46,2.27-2.21c0.32-0.31,0.64-0.63,0.95-0.94c0.99-1.01,1.98-2.04,2.93-3.08c0.07-0.07,0.13-0.14,0.2-0.21    c0.92-1.01,1.83-2.04,2.72-3.09c0.3-0.34,0.59-0.69,0.89-1.04c0.67-0.8,1.33-1.61,1.99-2.43c0.27-0.35,0.55-0.7,0.83-1.05    c0.84-1.08,1.67-2.17,2.49-3.28c0.04-0.06,0.09-0.13,0.14-0.19c0,0,0.01-0.01,0.01-0.02c0.04-0.06,0.08-0.11,0.12-0.17    c0.1-0.14,0.2-0.29,0.3-0.43c15.91-22,24.33-48.02,24.33-75.28c0-1.64-0.04-3.28-0.1-4.91c-0.02-0.54-0.06-1.08-0.09-1.61    c-0.05-1.1-0.11-2.19-0.19-3.28c-0.05-0.64-0.11-1.27-0.17-1.91c-0.09-0.99-0.18-1.97-0.29-2.96c-0.07-0.66-0.16-1.33-0.25-2    c-0.12-0.94-0.24-1.89-0.39-2.82c-0.1-0.68-0.21-1.36-0.32-2.04c-0.16-0.92-0.32-1.84-0.5-2.76c-0.13-0.68-0.26-1.35-0.4-2.03    c-0.19-0.92-0.39-1.83-0.6-2.75c-0.15-0.66-0.31-1.31-0.47-1.97c-0.23-0.93-0.47-1.86-0.73-2.79c-0.17-0.62-0.33-1.25-0.51-1.88    c-0.28-0.97-0.58-1.94-0.89-2.91c-0.17-0.56-0.34-1.13-0.53-1.7c-0.37-1.11-0.76-2.22-1.16-3.33c-0.14-0.4-0.28-0.81-0.43-1.21    c-0.56-1.51-1.15-3.01-1.77-4.5c-0.1-0.25-0.22-0.5-0.33-0.76c-0.52-1.23-1.05-2.45-1.61-3.66c-0.23-0.5-0.48-1-0.72-1.5    c-0.45-0.95-0.91-1.9-1.39-2.85c-0.29-0.56-0.59-1.12-0.88-1.69c-0.46-0.87-0.92-1.73-1.4-2.59c-0.33-0.59-0.66-1.17-1-1.75    c-0.47-0.82-0.96-1.65-1.45-2.47c-0.36-0.58-0.72-1.16-1.09-1.74c-0.25-0.4-0.49-0.81-0.74-1.21c0.25-0.13,0.5-0.27,0.75-0.4    c0.29-0.15,0.58-0.3,0.88-0.45c0.53-0.26,1.06-0.52,1.59-0.77c0.27-0.13,0.54-0.26,0.81-0.39c0.68-0.31,1.36-0.61,2.04-0.9    c0.13-0.06,0.25-0.12,0.38-0.17c0.81-0.34,1.62-0.67,2.44-0.98c0.26-0.1,0.52-0.19,0.77-0.28c0.57-0.21,1.14-0.42,1.72-0.62    c0.32-0.11,0.64-0.21,0.95-0.31c0.53-0.18,1.05-0.34,1.58-0.51c0.33-0.1,0.67-0.2,1-0.29c0.53-0.16,1.07-0.31,1.61-0.45    c0.32-0.09,0.63-0.17,0.95-0.26c0.61-0.15,1.23-0.3,1.84-0.44c0.25-0.05,0.49-0.11,0.74-0.17c0.85-0.19,1.71-0.36,2.57-0.52    c0.21-0.04,0.41-0.07,0.61-0.1c0.67-0.12,1.34-0.23,2.01-0.33c0.32-0.05,0.63-0.09,0.95-0.13c0.56-0.08,1.13-0.15,1.7-0.22    c0.34-0.04,0.68-0.07,1.02-0.11c0.56-0.05,1.12-0.11,1.68-0.15c0.34-0.03,0.67-0.05,1.01-0.08c0.6-0.04,1.21-0.07,1.81-0.1    c0.29-0.01,0.58-0.03,0.86-0.03c0.9-0.03,1.79-0.05,2.68-0.05c8.01,0,15.91,1.19,23.48,3.55c8.37,2.61,16.2,6.59,23.26,11.82    c0.64,0.47,1.27,0.95,1.89,1.43c0.43,0.35,0.86,0.7,1.28,1.05c0.18,0.14,0.35,0.27,0.52,0.42c15.28,12.75,25.18,30.93,27.71,50.55    c0.03,0.26,0.07,0.53,0.1,0.79c0.04,0.3,0.07,0.61,0.1,0.91c0.05,0.51,0.11,1.01,0.15,1.52c0.02,0.19,0.03,0.38,0.05,0.57    c0.04,0.61,0.09,1.23,0.12,1.85c0.01,0.16,0.02,0.32,0.03,0.48c0.03,0.63,0.05,1.26,0.07,1.9c0.01,0.21,0.01,0.43,0.01,0.64    c0.01,0.52,0.01,1.05,0.01,1.58c0,1.11-0.03,2.22-0.08,3.32c-0.03,0.56-0.07,1.12-0.11,1.68c-0.05,0.78-0.1,1.57-0.17,2.34    c-0.05,0.47-0.11,0.94-0.16,1.4c-0.1,0.87-0.2,1.73-0.33,2.59l-0.18,1.11c-0.15,0.95-0.32,1.9-0.51,2.84    c-0.05,0.27-0.11,0.54-0.17,0.8c-0.22,1.05-0.46,2.09-0.72,3.11c-0.04,0.17-0.08,0.33-0.13,0.49c-0.29,1.14-0.61,2.26-0.95,3.37    c-0.02,0.06-0.04,0.13-0.06,0.19c-7.71,24.59-27.16,44.04-51.77,51.72c-0.06,0.02-0.13,0.04-0.2,0.06    c-1.12,0.35-2.26,0.67-3.4,0.97c-0.26,0.06-0.51,0.12-0.76,0.18c-0.97,0.24-1.94,0.47-2.92,0.68c-0.39,0.08-0.78,0.15-1.17,0.22    c-0.85,0.17-1.71,0.32-2.57,0.46c-0.49,0.08-0.98,0.14-1.47,0.21c-0.78,0.11-1.56,0.21-2.34,0.3c-0.56,0.06-1.12,0.11-1.68,0.16    c-0.73,0.06-1.46,0.12-2.19,0.16c-0.61,0.04-1.23,0.06-1.84,0.09c-0.8,0.02-1.6,0.05-2.4,0.06h-1.02c-0.5,0-1.01-0.01-1.52-0.03    c-0.39-0.01-0.78-0.02-1.17-0.03c-0.54-0.02-1.08-0.05-1.61-0.09c-0.37-0.02-0.74-0.04-1.11-0.07c-0.54-0.04-1.08-0.09-1.63-0.14    c-0.36-0.03-0.73-0.07-1.09-0.11c-0.53-0.06-1.07-0.12-1.6-0.19c-0.38-0.05-0.75-0.1-1.12-0.15c-0.51-0.08-1.03-0.16-1.54-0.24    c-0.39-0.07-0.78-0.13-1.17-0.2c-0.49-0.09-0.98-0.19-1.46-0.29c-0.41-0.08-0.82-0.16-1.23-0.25c-0.47-0.1-0.93-0.21-1.39-0.32    c-0.43-0.1-0.85-0.2-1.27-0.3c-0.74-0.19-1.47-0.38-2.2-0.59c-3.72-1.06-7.6,1.09-8.66,4.81c-0.05,0.17-0.07,0.34-0.11,0.52    c-0.03,0.16-0.08,0.33-0.1,0.5c-0.02,0.17-0.03,0.34-0.04,0.51c-0.18,3.19,1.86,6.21,5.06,7.12c0.6,0.17,1.2,0.32,1.79,0.48    c0.09,0.03,0.18,0.06,0.28,0.08c0.18,0.05,0.38,0.1,0.57,0.14c0.42,0.11,0.84,0.21,1.26,0.31c0.59,0.14,1.17,0.28,1.76,0.4    c0.43,0.1,0.86,0.19,1.29,0.27c0.58,0.12,1.16,0.24,1.75,0.34c0.44,0.08,0.88,0.16,1.31,0.23c0.59,0.1,1.17,0.19,1.75,0.28    c0.45,0.06,0.89,0.13,1.33,0.19c0.59,0.08,1.18,0.15,1.77,0.21c0.44,0.05,0.88,0.11,1.32,0.15c0.61,0.06,1.21,0.11,1.82,0.16    c0.43,0.03,0.85,0.07,1.28,0.1c0.66,0.04,1.32,0.07,1.97,0.1c0.38,0.02,0.76,0.04,1.13,0.06c0.99,0.03,1.98,0.05,2.97,0.05h0.13    c0.01,0,0.01,0,0.01,0s0,0,0.01,0c0.62,0,1.25-0.01,1.88-0.02c0.05,0,0.11-0.01,0.17-0.01c1.34-0.03,2.68-0.09,4.01-0.18    c0.21-0.01,0.43-0.02,0.64-0.04c1.28-0.09,2.55-0.21,3.81-0.35c0.27-0.03,0.53-0.06,0.8-0.09c1.2-0.15,2.4-0.32,3.58-0.51    c0.33-0.06,0.66-0.11,0.99-0.17c1.12-0.19,2.23-0.41,3.34-0.64c0.39-0.08,0.78-0.17,1.17-0.26c1.04-0.23,2.06-0.48,3.08-0.75    c0.47-0.12,0.93-0.24,1.39-0.37c0.94-0.26,1.87-0.54,2.8-0.83c0.54-0.16,1.07-0.34,1.61-0.52c0.7-0.23,1.4-0.48,2.09-0.73    c0.76-0.27,1.51-0.55,2.26-0.84c0.41-0.16,0.82-0.33,1.23-0.5c1.03-0.41,2.05-0.85,3.06-1.3c0.21-0.1,0.41-0.19,0.61-0.28    c1.23-0.56,2.43-1.15,3.62-1.76c0.04-0.01,0.07-0.03,0.11-0.05c20.59-10.56,36.72-28.58,44.81-50.53    c0.04-0.12,0.09-0.24,0.13-0.36c0.42-1.16,0.83-2.34,1.2-3.53c0.11-0.34,0.22-0.68,0.32-1.02c0.29-0.93,0.56-1.86,0.81-2.8    c0.16-0.59,0.32-1.19,0.47-1.79c0.15-0.61,0.31-1.23,0.45-1.84c0.21-0.92,0.4-1.85,0.58-2.78c0.09-0.45,0.18-0.9,0.26-1.35    c0.2-1.1,0.38-2.2,0.53-3.3c0.06-0.36,0.11-0.71,0.15-1.07c0.16-1.19,0.29-2.4,0.41-3.6c0.02-0.28,0.05-0.56,0.07-0.83    c0.11-1.28,0.19-2.57,0.24-3.86c0.01-0.11,0.02-0.22,0.02-0.33c0.01-0.17,0.01-0.34,0.01-0.51c0.02-0.6,0.04-1.21,0.04-1.81    c0.01-0.28,0.01-0.55,0.01-0.82c0-0.15,0.01-0.3,0.01-0.46C410.4,319.12,410.39,318.64,410.38,318.16z M208.47,389.58    c-0.38,0.2-0.76,0.4-1.15,0.59l-1.11,0.54c-1.75,0.83-3.53,1.61-5.33,2.31c-0.16,0.06-0.33,0.13-0.49,0.19    c-0.63,0.24-1.27,0.48-1.91,0.7c-0.14,0.05-0.28,0.1-0.42,0.15c-0.68,0.23-1.36,0.46-2.05,0.68c-0.01,0-0.03,0.01-0.04,0.01    c-2.99,0.94-6.04,1.7-9.13,2.28c-0.08,0.02-0.17,0.03-0.25,0.05c-0.71,0.13-1.42,0.25-2.14,0.36c-0.12,0.02-0.24,0.04-0.36,0.05    c-2.07,0.32-4.16,0.54-6.26,0.69c-0.26,0.02-0.53,0.04-0.8,0.06c-0.47,0.02-0.94,0.04-1.41,0.06c-0.47,0.02-0.94,0.04-1.41,0.05    c-0.4,0.01-0.79,0.01-1.18,0.02c-0.45,0-0.89,0-1.34-0.01c-0.74,0-1.48-0.03-2.22-0.05c-0.69-0.03-1.37-0.05-2.05-0.1    c-0.59-0.03-1.18-0.08-1.77-0.13c-0.78-0.07-1.56-0.14-2.33-0.23c-0.41-0.04-0.82-0.1-1.23-0.15c-0.98-0.13-1.96-0.27-2.93-0.43    c-0.13-0.03-0.26-0.05-0.39-0.07c-34.02-6.01-60.89-34.31-64.79-68.91c0-0.07-0.02-0.13-0.02-0.2c-0.1-0.89-0.16-1.79-0.23-2.69    c-0.04-0.47-0.08-0.93-0.11-1.4c-0.04-0.69-0.05-1.39-0.07-2.08c-0.02-0.66-0.05-1.32-0.05-1.98c0-0.63,0.01-1.26,0.03-1.88    c0.01-0.56,0.01-1.12,0.03-1.68c0.03-0.6,0.07-1.18,0.11-1.77c0.03-0.61,0.07-1.21,0.12-1.81c0.04-0.51,0.1-1.01,0.15-1.52    c0.07-0.68,0.14-1.36,0.23-2.04c0.05-0.39,0.12-0.77,0.17-1.16c0.12-0.79,0.23-1.58,0.37-2.37c0.05-0.24,0.1-0.48,0.14-0.71    c0.18-0.93,0.36-1.86,0.56-2.78c0.02-0.07,0.04-0.14,0.05-0.21c6.63-29.12,29.39-52.48,59.28-59.25c1.15-0.26,2.31-0.5,3.49-0.71    c9.21-1.66,18.88-1.67,28.11,0c1.18,0.22,2.35,0.46,3.51,0.72c0.35,0.08,0.7,0.17,1.05,0.26c0.83,0.2,1.67,0.41,2.49,0.64    c0.37,0.1,0.74,0.2,1.11,0.31c0.91,0.27,1.8,0.55,2.7,0.85c0.24,0.08,0.48,0.15,0.72,0.23c1.12,0.38,2.23,0.8,3.33,1.23    c0.27,0.11,0.54,0.23,0.81,0.34c0.84,0.34,1.66,0.69,2.49,1.06c0.35,0.16,0.71,0.33,1.07,0.5c0.77,0.36,1.54,0.74,2.31,1.13    c0.31,0.16,0.63,0.31,0.94,0.48c0.13,0.06,0.25,0.14,0.38,0.21c-0.11,0.17-0.21,0.34-0.32,0.51c-0.57,0.9-1.13,1.8-1.68,2.72    c-0.14,0.23-0.29,0.46-0.43,0.7c-0.67,1.13-1.32,2.27-1.95,3.41c-0.14,0.26-0.28,0.51-0.42,0.76c-0.5,0.93-1,1.87-1.48,2.81    c-0.16,0.32-0.33,0.64-0.49,0.96c-0.59,1.17-1.16,2.35-1.72,3.54c-7.91,17.04-11.92,35.26-11.92,54.17    c0,18.91,4.01,37.13,11.92,54.16c0.55,1.19,1.13,2.37,1.72,3.54c0.17,0.33,0.34,0.67,0.51,1c0.47,0.92,0.95,1.83,1.44,2.73    c0.15,0.28,0.3,0.56,0.45,0.83c0.63,1.14,1.27,2.27,1.94,3.38c0.15,0.25,0.3,0.5,0.45,0.75c0.54,0.89,1.09,1.78,1.65,2.66    c0.11,0.17,0.21,0.36,0.33,0.53C208.99,389.31,208.73,389.45,208.47,389.58z M250.98,323.11c-0.02,0.32-0.04,0.64-0.05,0.96    c-0.06,0.96-0.13,1.92-0.22,2.87c-0.02,0.23-0.04,0.46-0.06,0.69c-0.12,1.15-0.26,2.3-0.43,3.43c-0.04,0.28-0.09,0.56-0.13,0.83    c-0.14,0.92-0.3,1.83-0.48,2.74c-0.06,0.3-0.11,0.59-0.17,0.89c-0.23,1.13-0.49,2.25-0.77,3.37c-0.04,0.15-0.08,0.3-0.12,0.45    c-0.25,0.98-0.53,1.96-0.82,2.93c-0.09,0.31-0.18,0.61-0.28,0.92c-0.31,0.99-0.64,1.97-0.99,2.95c-0.04,0.12-0.08,0.25-0.12,0.37    c-0.4,1.09-0.82,2.17-1.27,3.24c-0.04,0.09-0.08,0.19-0.12,0.29c-0.05-0.1-0.09-0.21-0.13-0.31c-0.44-1.06-0.87-2.13-1.26-3.21    c-0.05-0.14-0.09-0.27-0.14-0.4c-0.34-0.97-0.67-1.95-0.98-2.93c-0.09-0.3-0.19-0.61-0.28-0.91c-0.29-0.98-0.57-1.96-0.82-2.94    c-0.04-0.15-0.08-0.3-0.12-0.44c-0.28-1.12-0.53-2.25-0.77-3.38c-0.06-0.29-0.11-0.59-0.17-0.88c-0.18-0.92-0.34-1.83-0.48-2.75    c-0.04-0.27-0.09-0.55-0.13-0.82c-0.17-1.14-0.31-2.29-0.43-3.44c-0.02-0.22-0.04-0.45-0.06-0.68c-0.09-0.96-0.16-1.92-0.21-2.88    c-0.02-0.32-0.04-0.64-0.05-0.96c-0.06-1.17-0.09-2.34-0.09-3.52c0-1.17,0.03-2.34,0.09-3.51c0.01-0.32,0.03-0.64,0.05-0.96    c0.05-0.97,0.12-1.93,0.21-2.88c0.02-0.23,0.04-0.46,0.06-0.68c0.12-1.15,0.26-2.3,0.43-3.45c0.04-0.26,0.08-0.53,0.13-0.8    c0.14-0.93,0.3-1.85,0.48-2.77c0.06-0.29,0.11-0.58,0.17-0.86c0.23-1.14,0.49-2.27,0.77-3.4c0.04-0.13,0.07-0.26,0.11-0.39    c0.26-1.01,0.54-2.01,0.84-3c0.08-0.29,0.17-0.58,0.26-0.87c0.32-1.02,0.66-2.04,1.02-3.04c0.03-0.1,0.06-0.19,0.1-0.29    c0.4-1.1,0.83-2.19,1.28-3.27c0.03-0.09,0.08-0.19,0.11-0.28c0.05,0.1,0.09,0.2,0.13,0.3c0.44,1.07,0.87,2.14,1.26,3.23    c0.05,0.13,0.09,0.26,0.14,0.38c0.34,0.98,0.67,1.95,0.98,2.94c0.09,0.3,0.19,0.61,0.28,0.91c0.29,0.98,0.57,1.96,0.82,2.94    c0.04,0.15,0.08,0.3,0.12,0.44c0.28,1.12,0.54,2.25,0.77,3.38c0.06,0.3,0.11,0.59,0.17,0.89c0.18,0.91,0.34,1.82,0.48,2.74    c0.05,0.28,0.09,0.55,0.13,0.82c0.17,1.14,0.31,2.29,0.43,3.44c0.02,0.23,0.04,0.46,0.06,0.69c0.09,0.95,0.16,1.91,0.22,2.87    c0.01,0.32,0.03,0.64,0.05,0.97c0.05,1.17,0.08,2.34,0.08,3.51C251.06,320.77,251.03,321.94,250.98,323.11z"/>
<path class="st6" d="M409.77,406.41c0,0.46-0.05,0.92-0.14,1.37s-0.22,0.89-0.4,1.31c-0.17,0.42-0.39,0.83-0.64,1.21    c-0.26,0.38-0.55,0.74-0.87,1.06c-0.33,0.32-0.68,0.62-1.07,0.87c-0.38,0.25-0.78,0.47-1.21,0.64c-0.42,0.18-0.86,0.31-1.31,0.4    c-0.45,0.09-0.91,0.14-1.36,0.14c-0.46,0-0.92-0.05-1.37-0.14c-0.45-0.09-0.89-0.22-1.31-0.4c-0.42-0.17-0.83-0.39-1.21-0.64    c-0.11-0.07-0.2-0.16-0.3-0.24c-0.14-0.1-0.28-0.2-0.41-0.31c-0.12-0.1-0.24-0.21-0.35-0.32c-0.01-0.01-0.01-0.02-0.02-0.02    c-0.32-0.32-0.61-0.67-0.85-1.04c-0.26-0.38-0.47-0.79-0.65-1.21c-0.17-0.42-0.31-0.86-0.4-1.31c-0.09-0.45-0.13-0.91-0.13-1.37    c0-0.46,0.04-0.92,0.13-1.37c0.09-0.44,0.23-0.88,0.4-1.31c0.18-0.42,0.39-0.83,0.65-1.21c0.25-0.38,0.54-0.74,0.87-1.06    c0.32-0.32,0.68-0.61,1.06-0.87c0.38-0.25,0.79-0.47,1.21-0.64c0.42-0.18,0.86-0.31,1.31-0.4c0.9-0.18,1.83-0.18,2.73,0    c0.45,0.09,0.89,0.22,1.31,0.4c0.43,0.17,0.83,0.39,1.21,0.64c0.39,0.26,0.74,0.55,1.07,0.87c0.11,0.11,0.21,0.24,0.31,0.37    c0.11,0.12,0.23,0.24,0.33,0.38c0.08,0.1,0.16,0.2,0.23,0.31c0.02,0.03,0.04,0.07,0.06,0.11c0.23,0.35,0.43,0.72,0.58,1.1    c0.18,0.43,0.31,0.87,0.4,1.31C409.72,405.49,409.77,405.95,409.77,406.41z"/>
<path class="st6" d="M453.9,166.98c-5.39,1.76-11.14,1.33-16.19-1.23c-5.06-2.56-8.81-6.93-10.57-12.32l-0.63-1.92l-32.59,64.35    c32.91,24.22,52.41,62.48,52.46,103.57c0.03,26.73-8.15,52.43-23.67,74.33c-1.37,1.93-3.53,2.95-5.72,2.95    c-1.02,0-2.04-0.23-3-0.69c-0.15-0.07-0.3-0.13-0.45-0.22c-0.14-0.09-0.28-0.18-0.42-0.27c-0.06-0.04-0.12-0.07-0.17-0.11    c-3.16-2.23-3.9-6.6-1.67-9.75c13.84-19.52,21.13-42.42,21.1-66.23c-0.05-38.47-19.23-74.17-51.32-95.49    c-2.96-1.97-3.97-5.83-2.37-8.99l42.96-84.85c1.28-2.53,3.95-4.03,6.78-3.82c2.82,0.22,5.24,2.11,6.12,4.8l5.89,17.99    c0.6,1.82,1.88,3.31,3.59,4.18c1.72,0.87,3.67,1.01,5.5,0.42c1.84-0.61,3.32-1.88,4.19-3.6c0.87-1.71,1.02-3.66,0.42-5.49    l-16.57-50.57c-0.01-0.02-0.01-0.03-0.02-0.05c-0.6-1.81-1.87-3.28-3.57-4.14c-1.72-0.87-3.67-1.02-5.5-0.42l-56.36,18.47    c-3.77,1.24-5.84,5.31-4.6,9.08c0.6,1.83,1.87,3.32,3.59,4.19c1.72,0.86,3.66,1.02,5.49,0.41l23.77-7.78    c2.69-0.88,5.65-0.06,7.49,2.09c1.84,2.15,2.21,5.2,0.93,7.73L380,180.46c-1.75,3.44-5.96,4.82-9.41,3.08    c-0.12-0.06-0.22-0.13-0.33-0.2c-0.14-0.08-0.29-0.16-0.43-0.26c-0.14-0.1-0.27-0.2-0.41-0.3c-2.56-2.02-3.44-5.63-1.91-8.65    l21.16-41.79l-7.71,2.53c-5.38,1.76-11.13,1.32-16.18-1.24c-5.05-2.55-8.8-6.93-10.57-12.31c-3.63-11.11,2.44-23.1,13.55-26.74    l56.36-18.47c5.38-1.77,11.13-1.33,16.18,1.23c5.05,2.55,8.81,6.93,10.57,12.31c0.01,0.02,0.01,0.03,0.02,0.05l16.55,50.53    C471.08,151.34,465.01,163.33,453.9,166.98z"/>
</g>
</g>
</svg>