<svg width="12" height="12" viewBox="0 0 12 12" fill="none" xmlns="http://www.w3.org/2000/svg">
<path d="M3.48047 2.29834V2.84883C3.48047 3.07589 3.50401 3.29853 3.54905 3.51406L6.02461 4.61818L8.11895 4.17419C8.30116 3.7668 8.40132 3.31737 8.40132 2.84908V2.29834H3.48047Z" fill="#F3F5F9"/>
<path d="M8.40137 2.29834V2.84918C8.40137 3.31737 8.30129 3.7669 8.11897 4.17419L6.02472 4.61818L5.94043 4.58065V2.29834H8.40137Z" fill="#D6E1F1"/>
<path d="M8.32786 8.46604C8.07184 7.27595 7.16004 6.30489 5.94151 6L5.93936 6.00053C4.72064 6.30509 3.80853 7.276 3.55225 8.46609L5.94048 8.70703L8.32786 8.46604Z" fill="#F3F5F9"/>
<path d="M8.32774 8.46606L5.94043 8.70703V6.00041L5.94145 6C7.16003 6.30495 8.07181 7.276 8.32774 8.46606Z" fill="#D6E1F1"/>
<path d="M2.86523 1.2627V2.29834C2.86523 2.46823 3.00296 2.60596 3.17285 2.60596H8.70791C8.8778 2.60596 9.01553 2.46823 9.01553 2.29834V1.2627H2.86523Z" fill="#67548C"/>
<path d="M9.01558 1.2627V2.29834C9.01558 2.46814 8.87776 2.60596 8.70796 2.60596H5.94043V1.2627H9.01558Z" fill="#544473"/>
<path d="M8.32774 8.46607H6.96582C6.67951 8.17977 6.483 7.98326 6.24805 7.7483V5.90697C6.83841 5.69596 7.34218 5.32362 7.71353 4.84788C7.87493 4.64116 8.01131 4.41496 8.11897 4.1742C6.30055 4.13872 5.59262 3.54912 3.54922 3.51405C3.77817 4.61059 4.56327 5.52347 5.63281 5.90613V7.7483L4.91504 8.46607H3.55209C3.50451 8.68756 3.47949 8.91684 3.47949 9.15063V9.70167H8.40034V9.15001C8.40034 8.91643 8.37532 8.68735 8.32774 8.46607Z" fill="#FFDF40"/>
<path d="M8.40034 9.15V9.70166H5.94043V3.84914C6.59237 4.00356 7.21991 4.15655 8.11897 4.17419C8.01131 4.41495 7.87493 4.64115 7.71353 4.84787C7.34214 5.32365 6.83847 5.69586 6.24805 5.90689V7.74829L6.96582 8.46606H8.32774C8.37532 8.68734 8.40034 8.91641 8.40034 9.15Z" fill="#FFBE40"/>
<path d="M9.01553 10.7373V9.70166C9.01553 9.53177 8.8778 9.39404 8.70791 9.39404H3.17285C3.00296 9.39404 2.86523 9.53177 2.86523 9.70166V10.7373H9.01553Z" fill="#67548C"/>
<path d="M9.01558 9.70166V10.7373H5.94043V9.39404H8.70796C8.87776 9.39404 9.01558 9.53186 9.01558 9.70166Z" fill="#544473"/>
<path d="M2.55762 10.6348C2.38773 10.6348 2.25 10.7725 2.25 10.9424C2.25 11.1123 2.38773 11.25 2.55762 11.25H9.32315C9.49303 11.25 9.63076 11.1123 9.63076 10.9424C9.63076 10.7725 9.49303 10.6348 9.32315 10.6348H2.55762Z" fill="#544473"/>
<path d="M9.63081 10.9424C9.63081 11.1122 9.493 11.25 9.32319 11.25H5.94043V10.6348H9.32319C9.493 10.6348 9.63081 10.7726 9.63081 10.9424Z" fill="#413559"/>
<path d="M9.32315 1.36523C9.49303 1.36523 9.63076 1.2275 9.63076 1.05762C9.63076 0.88773 9.49303 0.75 9.32315 0.75H2.55762C2.38773 0.75 2.25 0.88773 2.25 1.05762C2.25 1.2275 2.38773 1.36523 2.55762 1.36523H9.32315Z" fill="#544473"/>
<path d="M9.63081 1.05762C9.63081 1.22742 9.493 1.36523 9.32319 1.36523H5.94043V0.75H9.32319C9.493 0.75 9.63081 0.887813 9.63081 1.05762Z" fill="#413559"/>
</svg>
