<svg width="40" height="40" viewBox="0 0 40 40" fill="none" xmlns="http://www.w3.org/2000/svg">
<g clip-path="url(#clip0_9_3606)">
<path d="M34.906 34.1444L32.6797 35.481H22.9082L21.608 33.6105C21.608 30.5486 21.3596 29.8512 21.5995 28.2671C21.6787 27.7517 20.8648 26.1774 21.3125 25.9086C21.7694 25.6348 22.2394 25.3915 22.7078 25.1763C22.7095 25.1763 22.7111 25.1754 22.7127 25.1747C23.1185 24.9875 23.5226 24.8225 23.9159 24.6749C25.486 24.0853 26.8813 23.7942 27.4817 23.6861C27.6878 23.649 27.8989 23.649 28.106 23.6861C28.7055 23.7942 30.1008 24.0853 31.6709 24.6749C32.5202 24.9924 33.4216 25.3973 34.2742 25.9086C34.722 26.1774 33.7788 27.7517 33.8579 28.2671C34.0979 29.8512 34.906 31.0825 34.906 34.1444Z" fill="#5766CB"/>
<path d="M22.7127 25.1746C22.3664 25.4649 22.1306 25.9539 22.0695 26.5055C21.8823 28.2117 21.4865 32.1824 21.4865 35.4809H19.7374C19.7374 32.419 21.3595 29.8511 21.5995 28.267C21.6787 27.7516 20.8648 26.1773 21.3125 25.9085C21.7694 25.6347 22.2394 25.3915 22.7078 25.1762C22.7095 25.1763 22.7111 25.1754 22.7127 25.1746Z" fill="#3D4FC3"/>
<path d="M25.2535 28.3889C25.2535 28.3889 25.6872 29.1743 26.3878 30.0162C26.7818 30.4897 27.2603 29.9489 27.7935 30.3282C28.3267 29.9489 28.8051 30.4897 29.1991 30.0164C29.8999 29.1745 30.3335 28.3889 30.3335 28.3889V25.1747H25.2535V28.3889Z" fill="#ECF4FF"/>
<path d="M29.1986 30.0158C28.8048 30.4893 28.3263 30.9805 27.7932 31.3601C27.26 30.9805 26.7815 30.4893 26.3877 30.0158L27.7932 28.2519L29.1986 30.0158Z" fill="#D57080"/>
<path d="M25.2533 26.2222L27.7935 28.6643L30.3336 26.2222L27.5824 24.4667" fill="#D57080"/>
<path d="M23.5159 31.3146C23.2974 32.2126 22.9082 34.0169 22.9082 35.4815H19.7374C19.7374 32.4196 20.2421 28.7343 20.4821 27.1502C20.5613 26.6348 20.8648 26.1779 21.3125 25.9091C21.602 26.0584 21.8559 26.2373 22.0786 26.4368C23.1498 27.3992 23.4995 28.8497 23.6116 29.7989C23.6718 30.306 23.6372 30.8189 23.5159 31.3146Z" fill="#ECF4FF"/>
<path d="M35.8498 35.481H32.6798C32.6798 34.0171 32.2904 32.2123 32.0717 31.3143C31.951 30.8186 31.9162 30.306 31.9761 29.7993C32.1114 28.6529 32.5938 26.7739 34.2744 25.9091C34.7223 26.1779 35.0259 26.6343 35.1048 27.1504C35.345 28.7343 35.8498 32.4197 35.8498 35.481Z" fill="#ECF4FF"/>
<path d="M22.0786 26.4359C22.0753 26.459 22.072 26.482 22.0695 26.5052C21.8823 28.2113 21.4865 32.182 21.4865 35.4805H19.7374C19.7374 32.4187 20.2421 28.7333 20.4821 27.1492C20.5613 26.6338 20.8648 26.177 21.3125 25.9081C21.602 26.0573 21.8559 26.2363 22.0786 26.4359Z" fill="#DDEAFB"/>
<path d="M31.6709 24.6746L30.3336 28.3885L27.7934 25.9464L25.2533 28.3885L23.916 24.6746C25.4858 24.0852 26.8813 23.7944 27.4813 23.6864C27.6882 23.6487 27.8987 23.6487 28.1055 23.6864C28.7055 23.7944 30.1011 24.0852 31.6709 24.6746Z" fill="#DDEAFB"/>
<path d="M37.2782 14.0826L32.9743 18.9605L23.3549 14.2802L17.6746 14.361C17.6746 14.361 14.8218 10.1898 15.6864 6.11309C16.551 2.0373 21.801 4.50754 21.801 4.50754C21.801 4.50754 24.6568 0.147461 28.4238 0.147461C34.0214 0.147461 36.3776 5.49582 38.9101 3.5816C38.9101 3.5816 42.2313 9.8598 37.2782 14.0826Z" fill="#9D6B6B"/>
<path d="M23.3549 14.2802L17.6746 14.361C17.6746 14.361 14.8218 10.1898 15.6864 6.11309C16.551 2.03731 21.801 4.50754 21.801 4.50754C21.801 4.50754 20.0007 7.51715 23.2634 9.91918C24.3159 10.6932 24.1134 12.3679 23.3549 14.2802Z" fill="#8B5E5E"/>
<path d="M29.7222 20.7979V24.0185C29.7222 25.0833 28.8587 25.9468 27.7939 25.9468C26.7285 25.9468 25.865 25.0833 25.865 24.0185V20.7979H29.7222Z" fill="#FFDDCE"/>
<path d="M28.4235 25.8408C28.2262 25.9087 28.0144 25.9458 27.7939 25.9458C26.7285 25.9458 25.865 25.0823 25.865 24.0175V20.7969H27.1242V24.0175C27.1242 24.8624 27.6674 25.5802 28.4235 25.8408Z" fill="#FFCBBE"/>
<path d="M19.737 18.1156C18.3465 18.1156 17.2194 16.9884 17.2194 15.5979C17.2194 15.4065 17.2407 15.2202 17.2812 15.0411C17.6078 13.5946 19.737 13.8318 19.737 15.3147H35.85C35.85 13.8318 37.9792 13.5946 38.3058 15.0411C38.3463 15.2202 38.3676 15.4066 38.3676 15.5979C38.3676 16.9884 37.2405 18.1156 35.85 18.1156" fill="#FFCBBE"/>
<path d="M35.835 17.0285C35.719 17.0285 35.6016 16.9941 35.4989 16.9225C35.2336 16.7372 35.1699 16.3701 35.355 16.1047C35.376 16.0748 35.5682 15.8059 35.8815 15.5819C36.3601 15.2396 36.8967 15.1614 37.3918 15.3611C37.6919 15.4822 37.837 15.8236 37.7159 16.1237C37.5948 16.4238 37.2533 16.569 36.9533 16.4478C36.6514 16.326 36.3166 16.7746 36.3133 16.7791C36.1998 16.9419 36.019 17.0285 35.835 17.0285Z" fill="#EAAC9D"/>
<path d="M25.865 20.7979H29.7222V23.7649H25.865V20.7979Z" fill="#FFCBBE"/>
<path d="M35.8498 12.357V16.8709C35.8498 20.1141 33.2209 22.743 29.9776 22.743H25.6088C22.3655 22.743 19.7366 20.1141 19.7366 16.8709V12.357C21.8173 12.357 23.5046 10.6705 23.5046 8.58984C23.5046 8.58984 23.5348 8.61805 23.5942 8.66969C24.2252 9.21398 28.2027 12.357 35.8498 12.357Z" fill="#FFDDCE"/>
<path d="M29.4669 22.743H25.6092C22.366 22.743 19.7371 20.1141 19.7371 16.8709V12.357C21.8178 12.357 23.5051 10.6705 23.5051 8.58984C23.5051 8.58984 23.5353 8.61805 23.5947 8.66969V16.8709C23.5947 20.1141 26.2236 22.743 29.4669 22.743Z" fill="#FFCBBE"/>
<path d="M33.1081 17.5218C33.8365 17.5218 34.427 17.1628 34.427 16.72C34.427 16.2771 33.8365 15.9181 33.1081 15.9181C32.3798 15.9181 31.7893 16.2771 31.7893 16.72C31.7893 17.1628 32.3798 17.5218 33.1081 17.5218Z" fill="#EAAFA5"/>
<path d="M22.4787 17.5218C23.2071 17.5218 23.7976 17.1628 23.7976 16.72C23.7976 16.2771 23.2071 15.9181 22.4787 15.9181C21.7504 15.9181 21.1599 16.2771 21.1599 16.72C21.1599 17.1628 21.7504 17.5218 22.4787 17.5218Z" fill="#EAAFA5"/>
<path d="M27.7934 19.5674C27.22 19.5674 26.6811 19.3441 26.2756 18.9387C26.0341 18.6972 26.0341 18.3056 26.2757 18.064C26.5171 17.8225 26.9087 17.8225 27.1504 18.064C27.3221 18.2358 27.5504 18.3304 27.7934 18.3304C28.0363 18.3304 28.2646 18.2358 28.4365 18.064C28.678 17.8224 29.0696 17.8225 29.3112 18.064C29.5527 18.3055 29.5527 18.6971 29.3111 18.9386C28.9057 19.3441 28.3668 19.5674 27.7934 19.5674Z" fill="#D57080"/>
<path d="M10.4165 0.147522C16.1693 0.147522 20.8329 4.81111 20.8329 10.5639V20.4507C20.8329 23.2449 19.0536 25.7288 16.4082 26.6279L10.4165 28.6643L4.42489 26.6279C1.77934 25.7288 0.000122071 23.2449 0.000122071 20.4507V10.5639C4.39463e-05 4.81111 4.66364 0.147522 10.4165 0.147522Z" fill="#E4936B"/>
<path d="M7.87813 26.628L10.4165 28.6642L4.42523 26.628C1.77969 25.7291 0 23.2446 0 20.451V10.5639C0 4.81111 4.66359 0.147522 10.4164 0.147522C7.97938 0.147522 6.00352 4.81111 6.00352 10.5639V20.451C6.00359 23.2446 6.75766 25.7291 7.87813 26.628Z" fill="#E27D47"/>
<path d="M17.5294 34.1444L15.3031 35.481H5.53163L4.23139 33.6105C4.23139 30.5486 3.98304 29.8512 4.22296 28.2671C4.3021 27.7517 3.48819 26.1774 3.93593 25.9086C4.3928 25.6348 4.8628 25.3915 5.33124 25.1763C5.33288 25.1763 5.33452 25.1754 5.33616 25.1747C5.74186 24.9875 6.146 24.8225 6.53929 24.6749C8.10944 24.0853 9.50468 23.7942 10.1051 23.6861C10.3112 23.649 10.5223 23.649 10.7294 23.6861C11.3289 23.7942 12.7242 24.0853 14.2943 24.6749C15.1437 24.9924 16.045 25.3973 16.8976 25.9086C17.3455 26.1774 16.4022 27.7517 16.4813 28.2671C16.7213 29.8512 17.5294 31.0825 17.5294 34.1444Z" fill="#5766CB"/>
<path d="M5.33627 25.1747C4.98995 25.465 4.75409 25.9539 4.69307 26.5056C4.50588 28.2118 4.11002 32.1825 4.11002 35.481H2.36096C2.36096 32.4191 3.98307 29.8512 4.22307 28.2671C4.30221 27.7517 3.48831 26.1774 3.93604 25.9086C4.39292 25.6348 4.86291 25.3915 5.33135 25.1763C5.33291 25.1763 5.33456 25.1754 5.33627 25.1747Z" fill="#3D4FC3"/>
<path d="M7.87708 28.3889C7.87708 28.3889 8.31075 29.1743 9.01137 30.0162C9.40536 30.4897 9.88379 29.9489 10.4171 30.3282C10.9503 29.9489 11.4286 30.4897 11.8226 30.0164C12.5234 29.1745 12.9571 28.3889 12.9571 28.3889V25.1747H7.87708V28.3889Z" fill="#ECF4FF"/>
<path d="M11.8222 30.0158C11.4283 30.4892 10.9498 30.9805 10.4167 31.3601C9.8835 30.9805 9.40506 30.4893 9.01123 30.0158L10.4167 28.2519L11.8222 30.0158Z" fill="#D57080"/>
<path d="M7.87683 26.2222L10.4169 28.6643L12.9571 26.2222L10.2058 24.4667" fill="#D57080"/>
<path d="M6.1394 31.3146C5.92088 32.2126 5.53166 34.0169 5.53166 35.4815H2.36096C2.36096 32.4196 2.86565 28.7343 3.10565 27.1502C3.18479 26.6348 3.48831 26.1779 3.93604 25.9091C4.22549 26.0584 4.47948 26.2373 4.70213 26.4368C5.77331 27.3992 6.12299 28.8497 6.23518 29.7989C6.29534 30.306 6.26065 30.8189 6.1394 31.3146Z" fill="#ECF4FF"/>
<path d="M18.4729 35.481H15.3029C15.3029 34.0171 14.9134 32.2123 14.6947 31.3143C14.574 30.8186 14.5393 30.306 14.5991 29.7993C14.7344 28.6529 15.2168 26.7739 16.8975 25.9091C17.3454 26.1779 17.6489 26.6343 17.7279 27.1504C17.9681 28.7343 18.4729 32.4197 18.4729 35.481Z" fill="#ECF4FF"/>
<path d="M4.70206 26.4359C4.69877 26.459 4.69541 26.482 4.69299 26.5052C4.50581 28.2113 4.10995 32.182 4.10995 35.4805H2.36096C2.36096 32.4187 2.86565 28.7333 3.10565 27.1492C3.18479 26.6338 3.48831 26.177 3.93604 25.9081C4.22541 26.0573 4.47948 26.2363 4.70206 26.4359Z" fill="#DDEAFB"/>
<path d="M14.2943 24.6746L12.957 28.3885L10.4168 25.9464L7.87669 28.3885L6.53943 24.6746C8.10919 24.0852 9.50474 23.7944 10.1047 23.6864C10.3116 23.6487 10.5221 23.6487 10.729 23.6864C11.329 23.7944 12.7246 24.0852 14.2943 24.6746Z" fill="#DDEAFB"/>
<path d="M12.3455 20.7969V24.0176C12.3455 25.0824 11.482 25.9458 10.4172 25.9458C9.3518 25.9458 8.48828 25.0824 8.48828 24.0176V20.7969H12.3455Z" fill="#FFDDCE"/>
<path d="M11.0468 25.8408C10.8495 25.9087 10.6377 25.9458 10.4172 25.9458C9.3518 25.9458 8.48828 25.0824 8.48828 24.0176V20.7969H9.7475V24.0176C9.74758 24.8624 10.2907 25.5803 11.0468 25.8408Z" fill="#FFCBBE"/>
<path d="M8.48828 20.7969H12.3455V23.764H8.48828V20.7969Z" fill="#FFCBBE"/>
<path d="M18.473 12.4464V16.8717C18.473 20.1143 15.8442 22.7436 12.601 22.7436H8.23206C4.9894 22.7436 2.36011 20.1149 2.36011 16.8717V12.4968C3.35995 12.4678 4.73581 12.2972 6.21792 11.996C9.25519 11.3786 12.7416 10.2117 14.3635 8.58972C14.3634 8.58972 15.9678 11.8684 18.473 12.4464Z" fill="#FFDDCE"/>
<path d="M12.0898 22.7436H8.23194C4.98928 22.7436 2.35999 20.1149 2.35999 16.8717V12.4968C3.35983 12.4679 4.73569 12.2972 6.2178 11.9961V16.8717C6.2178 20.1143 8.84647 22.7436 12.0898 22.7436Z" fill="#FFCBBE"/>
<path d="M15.1627 18.0911C15.8911 18.0911 16.4815 17.7321 16.4815 17.2892C16.4815 16.8464 15.8911 16.4874 15.1627 16.4874C14.4343 16.4874 13.8439 16.8464 13.8439 17.2892C13.8439 17.7321 14.4343 18.0911 15.1627 18.0911Z" fill="#EAAFA5"/>
<path d="M5.67137 18.0911C6.39974 18.0911 6.99019 17.7321 6.99019 17.2892C6.99019 16.8464 6.39974 16.4874 5.67137 16.4874C4.943 16.4874 4.35254 16.8464 4.35254 17.2892C4.35254 17.7321 4.943 18.0911 5.67137 18.0911Z" fill="#EAAFA5"/>
<path d="M24.0158 12.9218C23.595 12.9218 23.2527 13.4892 23.2527 14.1867C23.2527 14.8842 23.595 15.4516 24.0158 15.4516C24.4366 15.4516 24.7789 14.8842 24.7789 14.1867C24.7789 13.4892 24.4366 12.9218 24.0158 12.9218Z" fill="#2B4D66"/>
<path d="M31.5713 15.4516C31.9927 15.4516 32.3343 14.8853 32.3343 14.1867C32.3343 13.4881 31.9927 12.9218 31.5713 12.9218C31.1499 12.9218 30.8082 13.4881 30.8082 14.1867C30.8082 14.8853 31.1499 15.4516 31.5713 15.4516Z" fill="#2B4D66"/>
<path d="M6.76598 13.5635C6.73957 13.5635 5.85293 13.5702 5.81536 13.5704C5.56403 13.5704 5.3595 13.7749 5.3595 14.0263C5.3595 14.2776 5.56403 14.4821 5.81536 14.4821H6.02333C6.00301 14.5979 5.9927 14.7177 5.9927 14.8387C5.9927 15.5418 6.33965 16.1139 6.76606 16.1139C7.19254 16.1139 7.53942 15.5419 7.53942 14.8387C7.53942 14.1355 7.19239 13.5635 6.76598 13.5635Z" fill="#2B4D66"/>
<path d="M15.0177 13.5704C14.976 13.5701 14.0355 13.5635 14.0091 13.5635C13.5826 13.5635 13.2357 14.1355 13.2357 14.8387C13.2357 15.5419 13.5827 16.1139 14.0091 16.1139C14.4355 16.1139 14.7824 15.5419 14.7824 14.8387C14.7824 14.7177 14.7721 14.5979 14.7518 14.4821H15.0177C15.2691 14.4821 15.4736 14.2777 15.4736 14.0263C15.4735 13.775 15.2691 13.5705 15.0177 13.5704Z" fill="#2B4D66"/>
<path d="M10.4165 19.5785C9.86327 19.5785 9.34319 19.3631 8.9521 18.9719C8.71062 18.7304 8.71062 18.3388 8.95218 18.0972C9.19374 17.8557 9.5853 17.8558 9.82686 18.0972C9.98436 18.2547 10.1937 18.3415 10.4166 18.3415C10.6394 18.3415 10.8487 18.2548 11.0063 18.0972C11.2478 17.8557 11.6394 17.8557 11.881 18.0972C12.1226 18.3388 12.1226 18.7304 11.881 18.9719C11.4897 19.3631 10.9697 19.5785 10.4165 19.5785Z" fill="#D57080"/>
<path d="M2.51123 35.4473H36.5038V39.8516H2.51123V35.4473Z" fill="#8B5E5E"/>
<path d="M37.4383 36.3275H1.57705C1.08604 36.3275 0.687988 35.9294 0.687988 35.4384V34.3081C0.687988 33.8171 1.08604 33.419 1.57705 33.419H37.4383C37.9293 33.419 38.3274 33.8171 38.3274 34.3081V35.4384C38.3274 35.9294 37.9293 36.3275 37.4383 36.3275Z" fill="#9D6B6B"/>
<path d="M3.29471 36.3277H1.57697C1.08627 36.3277 0.687988 35.9294 0.687988 35.4379V34.3082C0.687988 33.8167 1.08627 33.4192 1.57697 33.4192H3.29471C2.80408 33.4192 2.40572 33.8167 2.40572 34.3082V35.4379C2.40572 35.9293 2.804 36.3277 3.29471 36.3277Z" fill="#8B5E5E"/>
</g>
<defs>
<clipPath id="clip0_9_3606">
<rect width="40" height="40" fill="white"/>
</clipPath>
</defs>
</svg>
