<?xml version="1.0" encoding="UTF-8" standalone="no"?>
<svg xmlns:rdf="http://www.w3.org/1999/02/22-rdf-syntax-ns#" xmlns="http://www.w3.org/2000/svg" height="999.7pt" width="632.44pt" version="1.1" xmlns:cc="http://creativecommons.org/ns#" xmlns:dc="http://purl.org/dc/elements/1.1/" viewBox="0 0 632.44305 999.69714">
<g transform="translate(-60.448 -41.823)">
<path d="m269.41 78.43c-4.24 1.66-19.799 2.0397-20.509 5.8297-24.18 1.9-56.5 0.68125-80.65-1.1188-5.38 17.24-13.986 35.74 5.9 65.75 7.03 16.27 2.8094 36.039 13.009 50.989 15.93 11.55 41.991 14.45 55.611-2.2 8.11-15.76 11.148-31.85 18.158-48.17 16.884-18.99 9.3214-52.9 8.4814-71.08zm234.69 94.608c-28.534-0.24646-53.923 26.877-84.389 15.212-20.76 0.26-17.13 27.82-13.53 41.68 5.47 21.25 12.53 43.44 26.28 60.65 16.29 5.88 34.95 2.79 51.57-0.45 4.67-20.41 29.34-34.97 30.03-58.82 2.44-19.18 2.63-41.869-8.6-58.239-0.4546-0.018-0.908-0.0289-1.361-0.0328zm-91.852 129.41c-11.1 0.31482-12.721 11.43-5.4266 18.773 12.4 9.85 11.409 32.099 28.509 35.609 15.16-2.74 30.341 4.6797 45.291 0.87969 9.15-12.76 22.7-24.42 27.32-40.53-2.52-3.54-5.6303-11.399-10.77-8.1094-27.07 12.03-58.79 6.8497-83.82-6.6203-0.3778-0.0128-0.7451-0.0133-1.1031-0.003zm123.95 37.57c-3.41 7.2-7.5197 14.399-9.9797 21.839 5.56 12.13 10.47 24.651 10.68 38.191 11.77-5.48 22.98 2.92 33.07 7.8-4.33-25.08-15.22-50.87-33.77-67.83zm-366.78 78.52c-14.82 3.3-46.06 4.8197-37.2 28.13 6.77 28.46 39.06 44.23 65.58 35.07 0.44-17.23 2.42-34.71 1.6-51.82-7.21-7.98-19.48-11.16-29.98-11.38zm-70.05 162.83c-7.41 1.87-17.05 0.35-23.22 2.53 8.11 26.97 20.931 57.53 48.741 69.15 3.18-18.64 0.0194-40.07-13.691-54.25-5.58-4.27-4.7997-17.07-11.83-17.43z" fill="#f2b153"/>
<path d="m218.98 41.83c-19.552 0.27716-39.119 9.4449-49.916 26.241-12.65 18.18-14.76 45.53-3.9797 63.67-0.1-2.42-0.17936-4.8503-0.25936-7.2703 3.16-12.28 3.869-25.641 9.839-36.861 27.11 5.29 65.811 14.27 89.391-6.7297 8.4478 18.024 2.1175 73.073 8.085 56.38 12.72-29.87 9.86-61.82-13.41-80.99-10.41-9.563-24.06-14.228-37.86-14.439-0.6304-0.0096-1.2615-0.0105-1.8922-0.0016zm-1.3094 1.8672c0.0927-0.0021 0.18544 0.0016 0.27816 0-0.1616 0.0029-0.32288 0.0051-0.4844 0.0094 0.0688-0.0018 0.13744-0.0078 0.20624-0.0094zm4.5578 0.09063c0.18912 0.01128 0.37816 0.02431 0.5672 0.0375-0.18912-0.0132-0.378-0.02621-0.5672-0.0375zm-6.8782 0.01562c-0.088 0.0058-0.176 0.0125-0.264 0.01875 0.088-0.0062 0.17592-0.01294 0.264-0.01875zm9.3626 0.18594c0.076 0.0079 0.15208 0.01368 0.22808 0.02187-0.076-0.0082-0.15208-0.01398-0.22808-0.02187zm-11.622 0.0125c-0.1052 0.01148-0.21048 0.02226-0.3156 0.03438 0.10512-0.01212 0.2104-0.0229 0.3156-0.03438zm14.017 0.2875c0.1528 0.02237 0.3052 0.04673 0.45784 0.07031-0.15264-0.02358-0.30512-0.04795-0.45784-0.07031zm-16.377 0.025c-0.17944 0.02796-0.35832 0.05764-0.53752 0.0875 0.17912-0.02985 0.35816-0.05955 0.53752-0.0875zm18.652 0.35625c0.13784 0.02578 0.27632 0.04822 0.414 0.075-0.13776-0.0268-0.27608-0.04919-0.414-0.075zm2.5109 0.52344c0.14728 0.03423 0.2936 0.07245 0.44064 0.10781-0.14696-0.03534-0.29344-0.0736-0.44064-0.10781zm-25.883 0.08906c-0.13176 0.03368-0.26376 0.06678-0.39528 0.10156 0.1316-0.03479 0.26344-0.06786 0.39528-0.10156zm28.067 0.46562c0.16304 0.04445 0.3264 0.08697 0.48904 0.13281-0.16272-0.04586-0.326-0.08834-0.48904-0.13281zm-30.491 0.21562c-0.12608 0.03923-0.25072 0.08316-0.37656 0.12344 0.12584-0.04028 0.25048-0.0842 0.37656-0.12344zm32.994 0.52188c0.15848 0.05073 0.31536 0.10576 0.47344 0.15781-0.15792-0.052-0.31512-0.10713-0.47344-0.15781zm-35.106 0.19375c-0.13328 0.04834-0.26712 0.0942-0.4 0.14375 0.13288-0.04954 0.26672-0.09542 0.4-0.14375zm37.208 0.525c0.18352 0.06633 0.36704 0.13188 0.55 0.2-0.18296-0.06813-0.36648-0.13366-0.55-0.2zm-39.564 0.4c-0.13592 0.05766-0.2708 0.11758-0.40624 0.17656 0.13536-0.05895 0.2704-0.11893 0.40624-0.17656zm42.088 0.57344c0.0938 0.03876 0.18608 0.08108 0.27968 0.12031-0.0936-0.03922-0.18592-0.08156-0.27968-0.12031zm2.0281 0.88594c0.1592 0.07277 0.318 0.14616 0.47656 0.22031-0.15848-0.07412-0.31744-0.14758-0.47656-0.22031zm4.3375 2.2c0.17176 0.09618 0.34328 0.19275 0.51408 0.29062-0.1708-0.09788-0.34232-0.19444-0.51408-0.29062zm2.1359 1.2547c0.0768 0.04719 0.15496 0.09152 0.23128 0.13906-0.076-0.04754-0.15472-0.09187-0.23128-0.13906zm2.0547 1.3266c0.1304 0.08819 0.25936 0.17795 0.38904 0.26719-0.1296-0.08921-0.25872-0.17902-0.38904-0.26719zm1.8984 1.3438c0.1056 0.07786 0.21216 0.15424 0.3172 0.23281-0.10496-0.0785-0.21168-0.15502-0.3172-0.23281zm1.9844 1.5297c0.1428 0.11542 0.28336 0.2332 0.42496 0.35-0.1416-0.11678-0.28216-0.2346-0.42496-0.35zm1.7234 1.4547c0.13232 0.11616 0.26568 0.23103 0.39688 0.34844-0.13112-0.11736-0.26464-0.23232-0.39688-0.34844zm1.9328 1.775c0.11632 0.11245 0.22848 0.22871 0.34376 0.34219-0.1152-0.11339-0.2276-0.22983-0.34376-0.34219zm1.5328 1.5516c0.136 0.14272 0.27344 0.28391 0.40784 0.42812-0.13432-0.14411-0.27192-0.28551-0.40784-0.42812zm1.8156 1.9969c0.068 0.07881 0.1328 0.15985 0.2 0.23906-0.0672-0.07918-0.13232-0.16029-0.2-0.23906zm1.3813 1.6859c0.11464 0.14545 0.2292 0.29078 0.34216 0.4375-0.11304-0.14676-0.22752-0.29201-0.34216-0.4375zm198.08 52.156c-30.186-0.18728-60.468 13.111-75.962 39.781-13.51 22.81-5.69 53.9 14.95 69.7 0.17 0.34 0.53 0.99968 0.7 1.3297 1.45 0.61 2.919 1.1897 4.389 1.7797-3.6-13.86-7.2303-41.42 13.53-41.68 30.95 11.85 56.66-16.33 85.75-15.18 11.23 16.37 11.04 39.059 8.6 58.239 1.66-0.78 3.3306-1.5497 4.9906-2.3297l-0.1 0.77969c37.54-23.27 29.35-85.879-11.63-101.01-13.619-7.5144-29.405-11.313-45.217-11.411zm-0.84216 1.6031c0.45744 0.002 0.9144-0.003 1.3718 0.005-0.4572-0.008-0.91456-0.003-1.3718-0.005zm2.8453 0.0531c0.49896 0.0164 0.99832 0.026 1.4969 0.05-0.49856-0.024-0.99792-0.0336-1.4969-0.05zm3.0219 0.14531c0.50272 0.0321 1.0057 0.0586 1.5078 0.0984-0.50192-0.0398-1.0051-0.0664-1.5078-0.0984zm-13.342 0.0485c-0.32128 0.0234-0.64152 0.0562-0.96248 0.0828 0.32104-0.0266 0.64112-0.0594 0.96248-0.0828zm16.395 0.19375c0.46768 0.0446 0.93624 0.0846 1.4031 0.13594-0.46712-0.0514-0.93512-0.0913-1.4031-0.13594zm-19.267 0.0578c-0.4328 0.0444-0.86336 0.0998-1.2954 0.15 0.43168-0.0502 0.8628-0.10563 1.2954-0.15zm22.267 0.275c0.46832 0.0594 0.93752 0.11351 1.4046 0.17969-0.46712-0.0662-0.93632-0.12033-1.4046-0.17969zm-25.142 0.0641c-0.44256 0.0589-0.88352 0.12871-1.325 0.19375 0.4416-0.065 0.88224-0.13484 1.325-0.19375zm28.097 0.35625c0.466 0.0738 0.93232 0.1444 1.3969 0.225-0.46432-0.0806-0.93104-0.15126-1.3969-0.225zm-30.994 0.075c-0.4152 0.0682-0.82816 0.14656-1.2422 0.22031 0.41416-0.0738 0.8268-0.15201 1.2422-0.22031zm33.902 0.43282c0.48064 0.0914 0.96184 0.17937 1.4406 0.27812-0.47872-0.0987-0.96008-0.18674-1.4406-0.27812zm-36.759 0.0828c-0.40296 0.079-0.80312 0.16726-1.2047 0.25157 0.40152-0.0843 0.80184-0.17251 1.2047-0.25157zm39.744 0.53438c0.44936 0.10058 0.89936 0.19914 1.3469 0.30625-0.44744-0.1071-0.8976-0.20568-1.3469-0.30625zm-42.583 0.0687c-0.41752 0.0956-0.83256 0.20029-1.2484 0.30156 0.41584-0.10127 0.8308-0.20601 1.2484-0.30156zm45.459 0.62344c0.45928 0.11822 0.91952 0.2342 1.3766 0.35937-0.45712-0.12521-0.9172-0.24111-1.3766-0.35937zm-48.252 0.0641c-0.41664 0.1092-0.83064 0.22562-1.2453 0.34063 0.41472-0.11501 0.82856-0.23144 1.2453-0.34063zm51.136 0.72813c0.44248 0.12939 0.88504 0.25777 1.325 0.39375-0.43992-0.13597-0.88264-0.26437-1.325-0.39375zm-53.934 0.0531c-0.38688 0.1148-0.77136 0.23632-1.1563 0.35625 0.38504-0.11996 0.76936-0.24144 1.1563-0.35625zm56.71 0.83c0.45624 0.14973 0.9124 0.2978 1.3656 0.45469-0.45304-0.15685-0.90952-0.305-1.3656-0.45469zm-59.519 0.0547c-0.3856 0.12834-0.76816 0.26332-1.1516 0.39688 0.38344-0.13357 0.76592-0.26853 1.1516-0.39688zm62.342 0.92344c0.42872 0.15691 0.85704 0.31471 1.2828 0.47813-0.42576-0.16342-0.85408-0.32122-1.2828-0.47813zm-65.014 0.0141c-0.4076 0.15055-0.81232 0.30751-1.2172 0.46407 0.40496-0.1566 0.80952-0.31349 1.2172-0.46407zm-2.6484 1.0297c-0.4128 0.16827-0.8232 0.34099-1.2328 0.51562 0.4096-0.17462 0.82-0.34736 1.2328-0.51562zm70.402 0.0125c0.45096 0.18251 0.9012 0.36632 1.3485 0.55626-0.4472-0.18995-0.89752-0.37374-1.3485-0.55626zm2.6234 1.1125c0.47752 0.21212 0.95368 0.42616 1.4266 0.64688-0.47288-0.22073-0.94904-0.43475-1.4266-0.64688zm-75.691 0.0156c-0.3852 0.17285-0.76784 0.35111-1.15 0.52969 0.38232-0.17863 0.76472-0.35679 1.15-0.52969zm-2.575 1.2109c-0.38384 0.18853-0.76488 0.38057-1.1453 0.575 0.38032-0.19438 0.76152-0.38652 1.1453-0.575zm80.998 0.0469c0.43496 0.2123 0.86792 0.42716 1.2985 0.64687-0.43032-0.21958-0.86384-0.43469-1.2985-0.64687zm-83.511 1.2422c-0.39152 0.20972-0.7812 0.42295-1.1688 0.63907 0.38776-0.2162 0.77712-0.42927 1.1688-0.63907zm86.105 0.0813c0.4448 0.23717 0.8868 0.47821 1.3266 0.72344-0.43968-0.24518-0.88184-0.48632-1.3266-0.72344zm-88.605 1.3188c-0.36472 0.21287-0.72816 0.4282-1.0891 0.64688 0.36104-0.21876 0.72424-0.43394 1.0891-0.64688zm91.169 0.10938c0.43088 0.2505 0.8588 0.50566 1.2844 0.76406-0.42576-0.25849-0.85344-0.51349-1.2844-0.76406zm-93.616 1.3812c-0.35168 0.22325-0.70232 0.44764-1.05 0.67656 0.34776-0.22895 0.69832-0.45328 1.05-0.67656zm96.111 0.13281c0.42392 0.26812 0.84432 0.54104 1.2626 0.81719-0.41808-0.27608-0.8388-0.54914-1.2626-0.81719zm-98.428 1.3984c-0.36768 0.25297-0.734 0.50768-1.0969 0.76719 0.36296-0.25954 0.7292-0.51419 1.0969-0.76719zm100.86 0.20312c0.42944 0.29515 0.85368 0.59616 1.2766 0.9-0.42288-0.3038-0.8472-0.60488-1.2766-0.9zm-103.18 1.47c-0.35392 0.26427-0.7072 0.52932-1.0562 0.8 0.34904-0.27068 0.70232-0.53573 1.0562-0.8zm105.53 0.23125c0.41288 0.30804 0.8204 0.62251 1.2266 0.93906-0.40616-0.31653-0.81376-0.63103-1.2266-0.93906zm-107.76 1.5047c-0.34344 0.278-0.6868 0.55621-1.025 0.84062 0.33832-0.28445 0.68152-0.56259 1.025-0.84062zm110.08 0.30469c0.38384 0.31122 0.76168 0.62938 1.139 0.94844-0.37728-0.319-0.75536-0.63728-1.139-0.94844zm-112.24 1.5156c-0.33752 0.29623-0.67592 0.5909-1.0078 0.89375 0.33192-0.3028 0.6704-0.59757 1.0078-0.89375zm114.49 0.3875c0.3624 0.31943 0.7176 0.64653 1.0734 0.97344-0.35584-0.32688-0.71112-0.65403-1.0734-0.97344zm-116.56 1.51c-0.33304 0.31706-0.66672 0.63382-0.99376 0.95781 0.32704-0.32399 0.66072-0.64075 0.99376-0.95781zm118.68 0.42969c0.3732 0.35706 0.73776 0.72346 1.1031 1.0891-0.36544-0.36567-0.72992-0.73193-1.1031-1.0891zm-120.67 1.5469c-0.3312 0.34213-0.66472 0.68172-0.98912 1.0312 0.32448-0.3496 0.65784-0.68905 0.98912-1.0312zm122.74 0.51719c0.3656 0.38065 0.72112 0.77142 1.0782 1.1609-0.35688-0.38935-0.71272-0.78045-1.0782-1.1609zm-124.71 1.6031c-0.29768 0.33505-0.5976 0.66781-0.88904 1.0094 0.2916-0.34168 0.5912-0.67422 0.88904-1.0094zm126.69 0.54219c0.3672 0.41669 0.72384 0.84386 1.0813 1.2703-0.35744-0.42648-0.71408-0.8536-1.0813-1.2703zm-128.6 1.7062c-0.26584 0.32704-0.5352 0.65006-0.79528 0.98281 0.26-0.33265 0.52952-0.65587 0.79528-0.98281zm130.47 0.51875c0.3492 0.43276 0.68744 0.87628 1.0266 1.3188-0.3392-0.44261-0.6772-0.88586-1.0266-1.3188zm-132.24 1.7594c-0.24864 0.33453-0.5024 0.66462-0.74528 1.0047 0.24304-0.3403 0.49648-0.66992 0.74528-1.0047zm134.07 0.61094c0.30288 0.4119 0.59344 0.83464 0.88752 1.2547-0.29392-0.41973-0.58488-0.84307-0.88752-1.2547zm-135.72 1.7c-0.25064 0.36938-0.506 0.73372-0.75 1.1094 0.24384-0.37545 0.49944-0.74019 0.75-1.1094zm137.42 0.725c0.30368 0.45449 0.594 0.92071 0.88744 1.3844-0.29336-0.46364-0.58376-0.92991-0.88744-1.3844zm-139.03 1.7672c-0.22048 0.35848-0.44808 0.71102-0.66248 1.075 0.21448-0.36415 0.44192-0.71636 0.66248-1.075zm140.62 0.725c0.29168 0.48189 0.568 0.97725 0.84848 1.4688-0.28056-0.49163-0.55672-0.98673-0.84848-1.4688zm-142.26 2.0953c-0.14928 0.27179-0.30728 0.53622-0.45312 0.81094 0.14584-0.27472 0.30384-0.53915 0.45312-0.81094zm143.77 0.53281c0.2936 0.53954 0.57008 1.093 0.85 1.6438-0.28-0.5508-0.5564-1.1042-0.85-1.6438zm-145.16 2.1484c-0.13368 0.27187-0.27584 0.53633-0.40624 0.81093 0.1304-0.27457 0.27264-0.53909 0.40624-0.81093zm146.54 0.52031c0.306 0.62886 0.59152 1.2741 0.87968 1.9172-0.28816-0.64305-0.57376-1.2884-0.87968-1.9172zm1.2843 2.8031c0.406 0.94267 0.794 1.8992 1.161 2.8719-0.36688-0.97254-0.75504-1.9293-1.161-2.8719z" fill="#4b2e2e"/>
<path d="m247.23 198.43c-6.43 9.58-18.019 15.58-29.609 14.57 5.27 12.32 23.32 0.18 31.28 5.95-2.32 9.51-0.66968 20.301-3.7797 29.291-10.36 2.92-15.6-10.38-23.92-12.92-4.1 2.58-8.5394 0.70031-12.909 0.12031-6 4.53-12.141 12.519-20.511 10.959-4.9-2.35-0.62936-6.9994 0.0408-10.609 0.38-6.52-6.9497-13.08-3.4297-19.6 7.84-5.65 16.95 5.2997 24.65 1.2297 1.29-1.28 2.32-2.7797 3.4-4.2297-9.17-4.09-20.52-2.4206-27.7-10.641 0.63-1.35 0.16752-1.6925-0.63128-1.6625-0.79872 0.03-1.935 0.43188-2.65 0.57188-2.98 23.66 2.5306 47.32 5.3406 70.75 6.23 50.04 15.661 99.561 22.191 149.54 1.68 0.8 1.52-2.6203 2.2-3.6703 12.64-55.86 24.65-111.6 36.08-167.82 4.61-12.92 4.9503-29.489 7.5203-43.539 1.22-4.71-4.941-5.8006-7.561-8.2906zm241.58 94.63c-19.4 5.54-43.229 9.0703-61.469 0.32031-2.66 1.96-9.8006 7.1803-3.5406 8.8203 21.97 11.01 47.91 11.451 70.92 3.3406 0.91-5.11-3.411-8.6612-5.911-12.481zm-91.73 16.911c-6.96 4.48-14.28 8.48-20.95 13.4 4.12 29.37 20.61 60.38 10.67 89.25 17.43 26.39 15.47 72.49-19.25 82.88-14.99 15.53-21.811 36.861-31.191 55.941 0.87 21.42 7.14 43.03 3.8 64.55-3.12 10.5-15.389 10.72-23.609 14.73-7.87 43.38-20.51 88.9-30.2 129.58-8.72 46.25-16.119 92.79-23.709 139.25-5.94 22.71-5.02 52.24-28.3 64.97 3.73 9.92 7.8394 20.89 10.259 31.77 12.12 14.94 32.25 19.959 46.45 32.769 47.21 13.76 104.1 6.6703 155.19 7.0203 26.13-5.24 52.389 12.721 77.769 1.9109 18.57-9.54 40.87 0.9997 59.9-7.1703 30.75-9.54 55.55-33.451 88.6-36.211 4.28-8.42 11.551-15.859 20.381-17.609-34.58-76.35-62.311-157.12-70.931-240.95-10.43-56.35-23.1-112.6-43.83-166.17-11.11-26.87-22.009-57.769-49.489-71.809-10.415 6.5448-7.8495 5.9588 0 0-1.24-3.03 1.8187-4.1003 3.8687-5.4703 1.1-1.95 2.3503-3.8303 3.8203-5.5203 12.21-3.58 25.181-10.239 30.911-22.189 3.07-16.87 3.1494-34.231 2.6094-51.311-6.0303-5.1966-15.496-11.616-24.134-11.572-3.3802 0.0174-6.6347 1.0247-9.5062 3.4828-0.91 17.5-7.2687 35.199-24.969 41.909-1.61 1.16-3.7103 2.0703-4.7703-0.22969 5.67-5.04 13.069-8.0309 18.259-13.561 5.21-20.64 13.121-44.479 0.81096-64.219-9.48-11.42 7.199-22.19 7.189-33.87-6.83-5.02-14.419-11.5-21.489-15.07-6.59 15.75-18.49 28-29.15 40.92-14.16 4.49-28.701-2.9306-43.141-1.3406-9.17 1.54-17.771-4.7594-20.841-13.159-4.63-13.78-16.11-23.34-21.03-36.9zm-84.128 69.978c-0.518-0.0163-1.0397-0.0158-1.5657 0.003-3.1167 0.1119-6.3671 0.85313-9.6656 2.3484-16.27 5.58-27.02 25.46-15.62 40.7 10.09 8.19 25.49 20.439 38.82 11.809 4.22-6.96 5.31-15.879 11.9-21.289 4.2014-15.914-7.8125-33.065-23.869-33.572zm-105.45 50.966c-1.4912 0.0113-2.9818 0.0753-4.4469 0.14532-0.14 16.61-0.10856 33.23-0.0184 49.85 2.97 0.35 5.9 0.0213 8.9 0.0313 0.14-16.62 0.10856-33.24 0.0184-49.85-1.47-0.145-2.9618-0.1878-4.4531-0.17656zm-117.54 137.71c-8.0994-0.0204-18.226 2.6038-23.778 0.41562-1.07 19.06 25.031 6.7606 35.891 7.9406-0.73936-6.7244-5.813-8.3404-12.112-8.3562z" fill="#ececec"/>
<path d="m176.05 200.21c-12.06 3.24-16.52 16.681-24.9 24.191 12.02 64.28 26.161 128.26 38.891 192.42 3.29 4.36 9.5488 7.7903 14.819 9.0703-10.6-65.56-20.16-131.37-28.63-197.26-2.61-7.69 2.7603-25.09-0.17969-28.42zm84 6.0203c-11.34 73.12-29.77 145.33-44.92 217.81 6.36-1.22 13.39-1 19.23-3.75 15.76-60.85 31.721-121.68 47.341-182.57 6.85-14.44-8.8-27.821-21.65-31.491z" fill="#333"/>
<path d="m212.44 213.19c1.7-0.33 3.45-0.33 5.18-0.19 5.27 12.32 23.32 0.18 31.28 5.95-2.32 9.51-0.67 20.3-3.78 29.29-10.36 2.92-15.6-10.38-23.92-12.92-4.1 2.58-8.54 0.7-12.91 0.12-6 4.53-12.14 12.52-20.51 10.96-4.9-2.35-0.63-7 0.04-10.61 0.38-6.52-6.95-13.08-3.43-19.6 7.84-5.65 16.95 5.3 24.65 1.23 1.29-1.28 2.32-2.78 3.4-4.23z" fill="#010101"/>
<path d="m145.03 227c-0.98662-0.0129-2.2434 0.58374-3.0422 0.97187-18.58 9.45-37.52 18.42-54.82 30.15-7.33 5.04-6.9009 14.879-9.5109 22.539-17.27 92.82-17.559 188.07-17.109 281.65 12.66 4.24 28.091 2.8112 41.641 4.2812-0.01-1.26-0.0612-2.5109-0.13124-3.7609-0.74-72.97 1.8509-146.02-2.9391-218.89-0.89544-6.2167 5.3717-7.637 5.4594-1.5109 5.03 73.33 3.08 146.92 3.3 220.38 2.11 10.1 3.6097 20.51 5.5297 30.7 8.16 11.97 15.981 24.51 16.891 39.45 21.2-3.77 46.28 9.9006 64.52-6.1594 17.74-17.96 8.2397-45.229 6.0297-66.859 1.65-24.28 2.04-48.62 3.1-72.92-15.59-0.86-31.77 2.2003-46.85-3.0297-15.8-8.3-26.77-24.331-30.7-41.581-1.68-7.99 2.58-16.81 10.35-19.73 15.21-6.02 31.861-11.39 48.141-6.55-12.99-62.47-25.491-125.09-38.391-187.61-0.0963-1.1331-0.69982-1.5118-1.4672-1.5219zm144.14 2.1219c-16.52 63.22-33.59 126.4-48.95 189.92 11.1-5.27 40.88 0.37907 37.58-19.061 7.67-18.34 30.509-29.819 49.359-20.939 1.97-17.32-3.4797-35.341-2.8797-53.011 0.82-1.71 6.12-3.5994 5.15-0.55938 1.17 18.67 6.74 38.5 2.55 57.33 7.6 10.35 17.3 28.319 4.2203 38.459-4.26 9.49-8.5806 21.681-21.041 21.661-14.62-4.35-32.569-10.661-37.259-26.861-19.53 6.76-40.68 9.7106-60.3 14.591-0.89 20.29-0.8497 42.04-0.2797 62.27 36.21-5.48 72.869-10.381 107.84-21.711 21.25-10.26 38.72-27.02 48.27-48.78 4.75-9.9 15.391-18.28 11.711-30.48-7.02-44.46-20.161-87.839-29.211-131.86-14.21-22.01-44.659-21.94-66.759-30.97zm27.372 251.02c-0.282 0.001-0.5928 0.0356-0.9328 0.10625-32.37 8.81-65.65 13.51-98.73 18.62-9.47 4.03-1.26-12.16-8-11.67 0.97 23.69-3.3303 47.3-1.4703 70.98 10.81 24.64 16.91 53 35.22 73.2 30.21 5.51 63.72-0.68907 91.43-13.289 4.88-42.5-7.1294-85.36-13.659-127.42-1.6031-3.1219 0.3716-10.542-3.8578-10.527zm-107.5 99.097c3.65 21.53 1.2497 50.569-23.27 58.539-17.86 5.57-39.341-4.5897-55.611 2.2703 23.91 102.09 11.48 207.38 18.62 310.9 12.37 8.13 29.23 6.4297 43.25 5.2797 12.06-11.4 9.0609-29.68 12.711-44.5 10.8-65.49 8.3394-132.04 16.109-197.82-2.1-20.73-2.3503-41.62-1.5703-62.43 1.84-0.85 6.2206-1.37 5.6906 1.75-0.1 18.38-0.1606 36.75 1.7594 55.05-7.19 81.1-6.2094 163.35-22.709 243.46 14.43 8.5 43.78 6.1787 45.3-15.431 15.76-68.75 21.94-139.37 39.17-207.82 8.12-31.62 17.07-64.041 21.93-95.911-23.05 3.1-50.611 12.651-73.341 1.2906-13.5-15.52-18.939-38.12-28.039-54.63z" fill="#464646"/>
<path d="m150.41 959.83c26.06 8.36 50.46-5.97 75.91 2.67 14.26 14.29 8.05 40.87 29.86 49.03-6.15 20.77-38.32 9.32-49.11-2.52-8.36 20.22-35.52 28.93-50.26 10.13-6.18-18.21-18.13-41.49-6.4-59.31z" fill="#340000"/>
<path d="m471.96 442.09c-17.506-0.043-35.349 4.9072-49.097 16.041-7.5778 5.8101-13.659 15.563-11.038 25.39 3.5128 12.717 15.515 20.684 27.172 25.252 9.2479 4.0398 19.522 4.4879 29.445 5.3495 21.18 1.3092 43.701-2.5522 60.792-15.879-1.5671-2.6914 1.9538-4.2095 3.7032-5.3965 1.8235-3.3723 4.9124-6.0543 5.1855-10.107 1.9601-9.0674-3.8749-17.482-10.486-23.047-5.1899-4.6385-11.088-8.3911-16.367-12.92-1.3454 1.255-3.8171 2.025-4.6816-0.0898-11.295-2.9334-22.943-4.6692-34.629-4.5938zm-23.385 8.5762c5.4031 0.0649 10.79 3.0055 13.336 7.8476 8.3301-6.0155 19.744-7.8881 29.557-4.6602 5.5304 1.7911 9.5329 7.2446 9.2539 13.109 8.5638 2.7298 18.219 8.7642 19.09 18.637 0.5164 9.8345-8.3664 17.812-17.173 20.092-13.514 3.5382-29.279-1.4964-37.506-12.971-6.8927 2.5242-16.373 3.0649-21.17-3.5586-0.6452-1.9782-2.0763-1.5662-3.7578-1.1738-10.026 1.2698-17.95-8.4813-18.515-17.797-0.58-6.1483 2.3895-13.825 9.0324-15.306 1.2726-0.4615 5.0359-2.0687 4.4613 0.71978-0.9403 1.9178-0.4912 3.6735 0.8945 1.1406 2.7519-4.1146 7.6638-6.2165 12.498-6.0801z" fill="#2f8538"/>
<path d="m434.1 453.11c-2.8179 0.40343-5.6911 1.4529-8.0515 2.9672-7.2342 6.5285-6.5624 18.326-0.9448 25.656 3.911 5.6614 11.423 8.8075 18.099 6.5505-2.1594-3.3863-0.4154-7.3826 2.0082-10.051 1.3019-1.6828 2.6129-3.4281 3.2418-5.4913-6.4462-0.46068-13.739-5.1266-13.498-12.252-0.3343-2.3358 2.159-4.6877 0.7672-6.8688-0.4162-0.42887-1.05-0.52982-1.6219-0.51093zm66.822 13.22c-9.4168 10.369-26.398 10.785-37.469 2.9266-1.6459-2.02-4.8554-1.8055-6.3359 0.3-1.4901 1.3141-1.2171 4.2196 1.0157 4.4469 2.234 0.23187 4.5982-0.40661 6.589 1.05 6.5682 3.7034 6.3365 14.657-0.3469 18.147 8.9153 12.464 26.54 17.661 40.909 12.594 7.481-2.753 14.259-9.2485 15.369-17.391 1.0348-7.804-4.5732-14.727-10.992-18.402-2.699-1.5043-5.8383-3.3224-8.7396-3.6718z" fill="#dd0101"/>
<path fill="#ccc" d="m370.03 532.95c-0.38 0.12-1.1491 0.35969-1.5391 0.47969-35.15 100.25-35.161 208.9-60.341 311.68-7.62 28.19-25.969 52.351-32.959 80.731 5.83 0.23 7.1394-7.6413 10.709-10.981 36.04-56.82 48.27-124.72 55.28-190.64 8.69-63.89 16.93-127.87 28.85-191.27zm30.1 3.8906c-26.61 113.11-21.57 231.01-39.77 345.5-5.15 34.96-23.6 67.68-25.75 102.75 29.07-61.31 42.82-129.3 47.79-196.74 5.95-81.64 9.4894-163.5 18.959-244.85-0.1-2.38 1.8303-6.0694-1.2297-6.6594zm87.98 15.08c13.35 88.99 24.991 179.53 35.541 269.4 8.88 64.8 26.869 128.62 55.359 187.57 1.79 2.28 2.6509 6.68 6.0609 7.05-8.81-41.92-31.701-79.65-37.661-122.35-19.7-104.06-26.489-210.31-50.339-313.67-2.96-8.85-3.2109-21-8.9609-28zm55.43 7.1766c-0.17226 0.004-0.35875 0.0278-0.55938 0.0734 13.15 74.01 23.13 148.61 32.6 223.2 7.66 58.26 22.45 117.6 56.53 166.44 0.32 2.77 2.9503 3.37 5.0203 3.95-6.75-30.57-26.64-56.399-34.15-86.759-22.92-99.44-25.869-202.95-56.059-300.82-1.2469-1.7062-0.79734-6.1371-3.3812-6.0828z"/>
</g>
</svg>
